<?xml version="1.0" encoding="utf-8"?>
<!-- Generator: Adobe Illustrator 16.0.0, SVG Export Plug-In . SVG Version: 6.00 Build 0)  -->
<!DOCTYPE svg PUBLIC "-//W3C//DTD SVG 1.1//EN" "http://www.w3.org/Graphics/SVG/1.1/DTD/svg11.dtd">
<svg version="1.1" id="Layer_1" xmlns="http://www.w3.org/2000/svg" xmlns:xlink="http://www.w3.org/1999/xlink" x="0px" y="0px"
	 width="612px" height="792px" viewBox="0 0 612 792" enable-background="new 0 0 612 792" xml:space="preserve">
<g>
	<path fill-rule="evenodd" clip-rule="evenodd" fill="none" stroke="#000000" stroke-width="0.2" stroke-miterlimit="10" d="
		M377.654,215.624c-9.062,6.25-25.787,7.45-36.32,1.74c-7.192-3.899-12.434-9.49-14.064-17.802
		c-1.285-6.539,2.723-12.389,9.061-13.457c6.092-1.031,11.686,3.155,12.619,9.437c0.92,6.246-3.119,10.74-11.455,12.738
		c6.999,5.769,17.93,2.553,22.713-9.764c12.596,0.045,21.127-4.111,24.632-12.462c-12.488,3.391-23.277-0.365-33.923-6.153
		c-9.831-5.343-19.759-5.512-27.771,1.745c-2.44-2.464-4.7-6.515-6.867-6.461c-2.337,0.053-4.585,3.938-7.139,6.409
		c-4.719-4.473-11.607-6.646-19.13-4.669c-5.086,1.34-9.739,4.242-14.763,5.908c-5.498,1.828-11.134,3.451-16.837,4.368
		c-3.494,0.56-7.229-0.367-11.816-0.689c7.117,9.113,15.458,13.055,25.968,11.884c4.631,11.833,13.25,15.646,21.207,10.583
		c-2.783-2.123-6.532-3.947-8.744-6.918c-3.091-4.144-2.035-8.884,1.361-12.731c3.194-3.617,8.947-4.339,13.229-1.988
		c4.607,2.533,6.752,7.777,5.29,13.279c-5.453,20.531-32.7,26.452-51.264,13.845c4.87-0.569,10.759,1.795,13.227-4.192
		c0.958-2.323,0.156-5.371,0.156-8.093c-0.514,0.019-1.026,0.033-1.537,0.055c-2.94,7.2-8.4,9.311-18.235,7.04
		c8.565-4.402,9.379-6.232,5.145-11.591c-3.182,7.834-6.449,9.339-15.239,7.035c-2.062-0.539-4.124-1.098-6.217-1.485
		c-10.507-1.94-19.761,0.755-27.658,7.871c-7.708,6.949-10.946,16.191-11.95,26.104c-0.451,4.413-2.092,5.376-6.071,6.036
		c-5.541,0.911-11.227,2.281-16.258,4.691c-15.148,7.263-21.043,22.658-16.346,40.217c0.85,3.164,1.572,7,0.518,9.848
		c-0.981,2.635-4.415,4.367-7.382,7.051c1.976,0.342,4.804,1.721,5.968,0.855c2.551-1.893,4.261-4.922,5.973-7.062
		c2.204,9.73,0.192,15.164-7.452,19.215c2.959,0.525,6.508,1.564,8.806,0.312c5.382-2.928,3.693-8.646,3.772-13.633
		c5.342,10.365,8.848,21.008,4.97,32.619c-3.345,10.033-9.44,17.555-20.528,19.49c-6.313,1.105-12.091-3.072-12.953-9.023
		c-0.901-6.223,3.212-11.762,9.438-12.691c6.131-0.916,10.962,3.541,12.523,11.57c6.164-8.09,2.296-17.564-9.334-22.338
		c0.605-10.488-2.92-19.197-12.126-25.844c1.215,17.66,1.064,19.596-4.505,29.941c-6.166,11.451-9.333,22.746-0.365,32.797
		c-2.602,2.178-4.852,4.062-7.101,5.951c2.217,2.58,4.433,5.16,6.84,7.963c-7.243,8.207-6.854,18.248-1.356,27.896
		c6.081,10.67,8.881,21.576,5.857,34.773c9.699-7.098,13.417-15.707,12.747-26.322c11.633-4.795,15.55-14.168,9.377-22.175
		c-2.048,10.093-10.529,14.595-17.647,9.376c-4.149-3.042-5.662-8.738-3.554-13.365c2.385-5.246,7.733-7.678,13.871-6.055
		c10.809,2.863,16.349,10.877,19.439,20.853c2.811,9.074-0.588,25.16-6.047,30.756c0.928-8.031,0.278-12.029-3.368-13.396
		c-2.512-0.941-5.659-0.178-8.523-0.178c7.471,4.654,9.531,10.365,6.985,20.4c-3.232-8.941-6.627-10.617-11.491-5.68
		c7.775,2.451,9.387,6.295,6.687,15.949c-5.653,20.229,3.759,37.275,23.939,43.02c4.553,1.297,9.288,1.959,14.061,2.938
		c0.161,1.549,0.286,2.955,0.456,4.354c3.43,28.227,24.172,40.236,46.734,32.656c7.342-2.469,10.676-0.496,14.762,6.863
		c3.954-5.48,1.969-8.715-6.75-11.285c3.807-0.297,7.877-1.131,11.361-0.059c3.371,1.033,6.137,4.029,9.682,6.52
		c0-2.225,0.965-5.52-0.187-7.697c-3.063-5.789-8.878-4.062-14.09-3.834c8.683-5.195,18.085-7.783,27.998-6.518
		c12.197,1.564,22.359,10.785,24.449,20.971c1.306,6.363-2.65,12.711-8.646,13.869c-6.199,1.191-12.653-3.215-12.887-9.605
		c-0.105-2.885,1.238-6.416,3.132-8.6c1.826-2.104,5.212-2.855,7.815-4.146c-8.251-5.52-15.743-2.354-22.264,9.715
		c-10.547-0.678-18.915,3.26-25.833,12.572c11.944-1.988,22.167-1.113,31.965,4.738c10.599,6.332,21.614,8.176,30.927-0.25
		c2.351,2.561,4.448,4.846,6.546,7.133c2.382-2.254,4.764-4.506,7.379-6.977c9.672,6.742,16.75,7.775,28.639,1.105
		c10.59-5.945,21.349-8.197,34.264-5.701c-7.167-9.469-15.754-13.291-26.312-12.662c-4.994-11.707-14.535-15.576-22.241-9.195
		c0.31,0.125,0.613,0.32,0.938,0.371c7.017,1.078,11.409,6.211,10.435,12.203c-1.03,6.328-7.25,10.631-13.326,9.225
		c-6.295-1.455-9.742-7.643-7.987-14.57c4.979-19.668,31.948-27.311,52.12-13.166c-5.271-0.969-10.771-2.281-13.805,2.887
		c-1.34,2.281-0.227,6.006-0.227,9.074c4.083-7.734,10.183-9.996,20.534-7.197c-8.929,2.785-10.789,6.262-6.743,10.617
		c2.346-2.271,4.334-5.562,7.111-6.494c2.893-0.977,6.654-0.096,9.846,0.719c7.439,1.885,14.814,2.424,22.048-0.354
		c14.979-5.752,20.766-18.098,22.53-32.867c0.447-3.732,1.468-4.994,5.316-5.422c29.385-3.271,40.967-26.125,32.717-47.5
		c-2.653-6.865-0.007-10.615,8.285-14.26c-2.51-0.783-4.984-2.326-5.865-1.684c-2.768,2.01-4.936,4.846-7.141,7.148
		c-0.707-6.959-1.647-14.59,7.768-18.346c-9.002-4.455-11.779-1.592-12.606,12.373c-9.163-14.439-9.091-33.102,2.437-44.728
		c4.27-4.309,9.277-7.328,15.562-7.082c4.373,0.168,7.895,2.182,9.643,6.428c1.674,4.076,1.398,7.977-1.564,11.484
		c-3.137,3.703-7.191,4.585-11.609,3.365c-5.291-1.461-7.259-5.83-8.027-11.335c-5.645,9.873-2.281,17.394,9.605,22.904
		c-0.924,10.602,3.043,18.906,12.594,26.145c-2.811-12.424-0.889-22.84,4.898-32.803c6.068-10.437,7.395-21.083-0.4-29.964
		c2.492-2.678,4.676-5.027,6.857-7.379c-2.33-2.117-4.658-4.229-6.578-5.969c1.381-3.963,3.656-8.588,4.541-13.469
		c1.316-7.205-2.57-13.334-5.299-19.732c-2.338-5.463-4.08-11.297-5.146-17.141c-0.717-3.928,0.205-8.162,0.424-12.979
		c-8.893,6.977-12.85,15.334-11.926,25.828c-11.886,5.307-15.452,13.609-9.525,22.6c0.324-1.51,0.476-2.846,0.896-4.088
		c1.84-5.379,7.502-8.729,12.588-7.518c5.969,1.422,9.457,6.779,8.426,12.938c-0.898,5.314-6.051,9.617-11.613,8.723
		c-3.734-0.6-7.698-1.961-10.769-4.107c-15.166-10.584-15.966-32.35-5.931-47.766c0.472,14.113,3.866,17.441,12.561,12.322
		c-7.543-3.16-9.697-8.713-7.274-18.74c3.791,8.664,6.774,9.947,11.706,5.043c-6.854-1.623-9.225-5.252-7.888-12.27
		c0.361-1.91,1.103-3.742,1.564-5.643c3.188-13.073,0.127-24.345-10.049-33.327c-6.641-5.862-14.725-8.451-23.395-9.375
		c-3.202-0.337-5.455-0.849-5.79-5.131c-1.953-25.07-21.664-41.475-46.699-33.075c-7.84,2.629-11.662,0.284-14.494-8.398
		c-0.944,2.602-2.547,4.895-1.968,5.815c1.799,2.858,4.425,5.198,6.44,7.424c-10.086,1.47-14.414-0.301-18.182-7.657
		c-0.564,2.91-1.736,7.392-0.33,8.453C369.277,213.097,373.926,214.13,377.654,215.624z M487.312,395.721
		c1.938-2.66,4.08-4.346,3.846-5.576c-0.33-1.725-2.436-3.104-3.787-4.625c-1.443,1.5-3.645,2.812-4.08,4.564
		C483.012,391.239,485.277,393.014,487.312,395.721z M300.492,538.588c-3.146-1.699-4.986-3.494-6.652-3.344
		c-1.289,0.111-3.371,2.744-3.253,4.102c0.121,1.416,2.538,3.795,3.777,3.684C296.071,542.889,297.618,540.812,300.492,538.588z
		 M300.28,196.543c-2.769-1.761-4.459-3.682-5.95-3.537c-1.444,0.138-3.997,2.792-3.744,3.643c0.526,1.731,2.457,3.876,4.101,4.152
		C295.954,201.015,297.663,198.651,300.28,196.543z M151.249,389.649c-2.966-2-4.797-4.156-6.049-3.859
		c-1.683,0.398-2.916,2.689-4.344,4.166c1.371,1.303,2.734,3.631,4.121,3.648C146.617,393.622,148.28,391.645,151.249,389.649z
		 M344.028,196.807c-2.739-1.916-4.349-3.921-5.769-3.789c-1.559,0.136-2.937,2.245-4.395,3.496c1.434,1.532,2.65,3.839,4.377,4.314
		C339.383,201.146,341.25,198.84,344.028,196.807z M493.277,345.754c-2.836-1.875-4.693-4.008-5.871-3.678
		c-1.717,0.479-2.939,2.723-4.379,4.213c1.58,1.279,3.059,3.326,4.793,3.576C489.07,350.045,490.666,347.831,493.277,345.754z
		 M343.877,539.318c-2.443-2.014-4.025-4.281-5.273-4.107c-1.671,0.227-3.084,2.346-4.607,3.648
		c1.396,1.492,2.578,3.779,4.256,4.225C339.418,543.393,341.25,541.176,343.877,539.318z M151.267,345.768
		c-3.125-1.871-4.917-3.799-6.55-3.672c-1.378,0.111-2.569,2.6-3.844,4.033c1.526,1.324,2.926,3.441,4.621,3.711
		C146.771,350.045,148.428,347.885,151.267,345.768z"/>
	<path fill-rule="evenodd" clip-rule="evenodd" fill="none" stroke="#000000" stroke-width="0.2" stroke-miterlimit="10" d="
		M200.512,252.807c1.118-7.912,1.473-16.143,3.573-23.896c2.84-10.486,11.954-16.451,22.011-15.843
		c6.672,0.401,11.466,3.625,13.847,9.945c2.501,6.634,1.18,12.692-3.667,17.756c-4.371,4.566-11.604,4.809-15.938,0.899
		c-4.684-4.222-4.644-9.547,0.124-16.2c-5.17,0.258-9.402,3.651-11.016,8.832c-1.88,6.032,0.105,12.445,5.043,16.296
		c10.382,8.09,26.11,4.571,32.914-7.817c2.417-4.39,3.465-9.537,5.139-14.356c34.762,8.386,52.667,1.478,63.812-25.401
		c4.157,13.798,13.175,22.31,25.888,27.015c12.736,4.719,25.207,2.111,38.24-2.104c0.337,2.08,0.613,3.904,0.934,5.719
		c2.681,15.212,16.975,24.591,30.624,20.106c7.269-2.392,12.171-8.877,11.683-15.443c-0.538-7.157-4.49-11.637-12.182-13.24
		c0.6,0.815,0.943,1.275,1.268,1.737c3.842,5.417,3.561,10.958-0.754,14.897c-4.111,3.756-11.059,3.462-15.584-0.662
		c-5.41-4.928-6.743-13.496-3.135-20.095c3.556-6.498,11.547-9.637,19.428-7.386c7.768,2.21,13.357,7.381,15.441,14.95
		c2.172,7.881,2.847,16.172,4.129,23.986c6.265,0.726,13.783,0.767,20.852,2.581c13.681,3.51,20.894,15.777,16.965,27.398
		c-2.191,6.473-7.078,9.635-13.649,10.186c-6.562,0.547-11.917-1.852-15.314-7.654c-2.622-4.48-1.562-10.456,2.13-13.677
		c4.432-3.873,9.238-3.548,15.982,1.481c-0.807-5.647-3.584-9.09-8.188-11.087c-5.803-2.51-11.18-1.578-15.824,2.689
		c-8.02,7.368-7.988,21.323-0.031,29.927c4.963,5.371,9.973,7.613,20.858,9.207c-3.797,12.488-6.795,25.098-2.119,37.965
		c4.697,12.896,13.116,22.129,26.827,26.107c-27.258,10.533-34.932,35.798-24.945,64.349c-3.436,0.852-6.957,1.428-10.259,2.611
		c-14.359,5.166-20.621,21.062-13.264,33.33c3.467,5.785,9.222,8.359,15.941,7.143c5.762-1.047,9.614-5.184,10.696-11.475
		c-6.889,4.826-12.116,4.908-16.506,0.252c-3.525-3.734-3.719-10.275-0.162-14.758c3.715-4.684,8.814-6.688,14.662-5.906
		c5.976,0.801,10.734,3.705,13.036,9.66c3.901,10.102-1.413,22.051-12.791,26.398c-5.827,2.225-12.413,2.518-18.691,3.457
		c-2.401,0.354-4.903,0.055-6.851,0.055c-0.799,7.502-0.875,14.818-2.492,21.777c-2.201,9.48-8.249,16.047-18.136,18.266
		c-8.005,1.797-16.376-2.904-18.836-10.41c-2.546-7.777,0.769-16.641,7.382-19.727c4.906-2.291,9.707-1.414,13.143,2.391
		c3.418,3.801,3.67,8.451,0.68,13.271c-0.463,0.75-1.068,1.416-1.648,2.17c4.997-0.359,8.805-3.039,10.687-7.662
		c2.185-5.377,1.634-10.465-2.103-15.016c-8.018-9.77-25.018-9.057-33.061,2.084c-3.594,4.967-5.283,11.318-8.061,17.547
		c-11.44-3.359-24.001-6.498-36.92-1.607c-12.609,4.773-21.662,13.049-25.836,26.504c-10.133-25.68-34.263-35.178-64.312-24.633
		c-0.795-3.254-1.336-6.578-2.415-9.717c-4.596-13.367-17.922-20.17-30.084-15.504c-7.035,2.703-11.105,8.252-10.889,14.852
		c0.233,7.057,3.81,11.273,12.266,13.988c-0.382-0.678-0.532-1.023-0.75-1.32c-4.899-6.539-4.416-12.793,1.299-16.703
		c5.431-3.715,13.107-1.621,17.009,4.639c3.807,6.104,3.128,14.633-1.582,19.877c-4.946,5.502-13.725,6.855-21.152,3.123
		c-9.229-4.631-12.856-13.008-14.09-22.52c-0.652-5.025-0.113-10.201-0.113-15.135c-7.158-0.617-13.969-0.572-20.494-1.916
		c-9.873-2.031-17.184-7.648-19.652-18.037c-3.013-12.693,8.287-23.293,20.693-19.502c5.794,1.777,9.644,5.469,10.367,11.59
		c0.517,4.361-1.172,8-5.177,10.32c-5.305,3.066-9.796,1.195-14.086-2.441c1.39,7.869,6.573,12.127,14.36,11.957
		c7.591-0.16,13.902-6.293,15.095-14.67c1.84-12.914-6.732-24.564-20.016-27.201c-2.074-0.406-4.148-0.807-6.246-1.215
		c11.375-32.768-1.716-56.382-25.169-64.41c13.668-4.104,22.229-13.074,26.937-25.926c4.743-12.939,1.892-25.547-2.119-38.506
		c8.992-0.357,16.487-3.396,22.097-10.332c6.465-7.992,6.427-20.156-0.211-27.536c-3.901-4.328-8.655-6.006-14.427-4.464
		c-5.878,1.569-9.301,5.316-10.387,10.276c3.673-0.782,7.79-2.905,11.083-2.006c3.106,0.85,6.271,4.44,7.744,7.608
		c2.056,4.416-0.291,8.666-3.784,11.869c-4.926,4.518-13.594,5.248-19.48,1.803c-5.908-3.455-8.915-10.885-7.303-18.051
		c2.225-9.889,11.124-17.339,22.849-18.708C189.789,253.143,195.296,253.101,200.512,252.807z M315.961,231.731
		c-75.534,0.25-136.105,61.359-135.764,136.98c0.339,74.865,61.116,135.445,135.703,135.267
		c76.168-0.178,136.553-60.773,136.35-136.822C452.05,292.407,390.742,231.488,315.961,231.731z M451.447,273.4
		c-0.759-0.003-1.517-0.013-2.278-0.017c-1.265,1.957-3.722,4.065-3.491,5.824c0.256,1.929,2.981,3.533,4.632,5.277
		c1.65-1.74,4.387-3.335,4.635-5.258C455.172,277.464,452.719,275.356,451.447,273.4z M405.205,241.149
		c2.277-3.565,4.775-5.765,4.482-7.478c-0.32-1.83-3.328-4.466-5.078-4.394c-1.699,0.065-4.463,3.021-4.588,4.85
		C399.904,235.881,402.59,237.818,405.205,241.149z M404.484,494.746c-2.254,3.531-4.783,5.748-4.5,7.521
		c0.289,1.832,3.363,4.512,5.131,4.443c1.706-0.062,4.514-3.102,4.594-4.93C409.791,499.963,407.072,498.025,404.484,494.746z
		 M227.431,509.338c2.446-3.373,5.074-5.42,4.879-7.152c-0.211-1.889-2.999-4.812-4.723-4.854c-1.71-0.035-4.662,2.793-4.903,4.65
		C222.456,503.734,225.041,505.857,227.431,509.338z M182.917,273.358c-0.754,0.037-1.51,0.062-2.267,0.096
		c-1.171,2.018-3.506,4.238-3.202,6.001c0.329,1.892,3.14,3.349,4.868,4.999c1.593-1.801,4.306-3.518,4.455-5.43
		C186.909,277.249,184.311,275.257,182.917,273.358z M227.354,226.508c-2.409,3.587-4.984,5.757-4.7,7.437
		c0.316,1.863,3.239,4.497,5.054,4.52c1.621,0.024,4.425-2.95,4.596-4.793C232.464,231.927,229.87,229.934,227.354,226.508z
		 M187.889,457.561c-0.032-0.764-0.062-1.525-0.093-2.285c-1.973-1.232-4.13-3.639-5.87-3.369c-1.801,0.275-4.53,3.24-4.419,4.869
		c0.118,1.744,2.957,4.447,4.799,4.617C184.035,461.551,186.017,458.947,187.889,457.561z M456.058,457.684
		c0-0.756,0.003-1.508,0.003-2.266c-1.923-1.277-4.004-3.744-5.724-3.516c-1.833,0.24-4.676,3.084-4.62,4.695
		c0.064,1.764,2.812,4.574,4.648,4.801C452.084,461.605,454.145,459.031,456.058,457.684z"/>
	<path fill-rule="evenodd" clip-rule="evenodd" fill="none" stroke="#000000" stroke-width="0.2" stroke-miterlimit="10" d="
		M211.785,635.225c7.584-2.418,15.178-4.801,22.778-7.158c7.869-2.451,15.641-5.113,23.045-8.795
		c15.362-7.643,26.115-19.316,31.66-35.68c2.162-6.377,4.144-12.783,4.593-19.65c-0.341,0.641-0.786,1.236-1.011,1.91
		c-5.2,15.418-15.764,25.795-30.361,32.432c-7.029,3.189-14.396,5.398-21.756,7.625c-2.455,0.744-4.905,1.488-7.364,2.223
		c-5.883,1.744-11.374,4.236-16.105,8.246c-0.994,0.838-2.162,1.48-3.627,2.467c-0.332-2.049-0.693-3.615-0.831-5.203
		c-0.402-4.639-1.641-9.035-3.739-13.172c-2.502-4.932-5.113-9.816-7.712-14.703c-3.939-7.408-7.594-14.924-9.73-23.092
		c-3.151-12.051-2.444-23.801,2.72-35.213c0.443-0.986,0.819-1.99,1.206-2.996c0.04-0.094-0.064-0.242-0.159-0.551
		c-0.305,0.176-0.678,0.262-0.837,0.49c-6.43,9.283-11.645,19.15-14.348,30.191c-2.475,10.104-1.655,20.107,1.201,30.008
		c2.178,7.561,5.363,14.711,8.999,21.656c3.13,5.98,6.433,11.877,9.524,17.885c2.156,4.188,4.086,8.488,6.323,13.172
		C208.287,636.539,210.007,635.789,211.785,635.225z"/>
	<path fill-rule="evenodd" clip-rule="evenodd" fill="none" stroke="#000000" stroke-width="0.2" stroke-miterlimit="10" d="
		M418.155,616.582c-5.11-4.43-11.106-7.088-17.509-9.021c-6.848-2.059-13.688-4.17-20.473-6.434
		c-5.391-1.791-10.525-4.201-15.391-7.17c-10.035-6.123-17.274-14.574-21.479-25.584c-0.479-1.264-1-2.512-1.537-3.746
		c-0.094-0.209-0.376-0.34-0.813-0.727c0.072,0.99,0.042,1.754,0.187,2.496c1.364,6.902,3.359,13.613,5.906,20.182
		c5.141,13.268,13.977,23.262,26.3,30.273c8.032,4.574,16.651,7.689,25.438,10.396c6.965,2.146,13.949,4.223,20.893,6.443
		c3.067,0.982,6.049,2.242,9.178,3.424c0.371-0.482,0.765-0.855,0.995-1.316c3.522-6.988,7.058-13.977,10.524-20.994
		c3.528-7.139,7.268-14.199,10.399-21.51c3.984-9.275,6.003-19.029,5.49-29.225c-0.283-5.586-1.386-10.977-3.298-16.211
		c-2.984-8.162-7.037-15.781-11.924-22.957c-0.413-0.605-0.961-1.119-1.933-1.396c0.458,1.068,0.886,2.154,1.382,3.197
		c5.988,12.736,6.547,25.844,2.14,39.064c-1.957,5.863-4.628,11.518-7.257,17.137c-2.061,4.396-4.504,8.621-6.868,12.871
		c-3.519,6.324-5.999,12.975-6.571,20.258c-0.062,0.762-0.301,1.502-0.552,2.73C420.067,617.887,419.023,617.332,418.155,616.582z"
		/>
	<path fill-rule="evenodd" clip-rule="evenodd" fill="none" stroke="#000000" stroke-width="0.2" stroke-miterlimit="10" d="
		M440.646,660.85c0.639-4.27,1.271-8.545,1.83-12.826c0.651-5.02,2.205-9.744,4.521-14.213c2.854-5.514,5.913-10.932,8.667-16.494
		c3.649-7.379,7.367-14.742,10.537-22.33c3.825-9.166,5.807-18.822,5.917-28.805c0.097-8.457-1.371-16.67-4.369-24.582
		c-3.697-9.787-8.656-18.898-14.763-27.381c-0.62-0.861-1.361-1.635-2.257-2.697c-1.434,1.264-2.713,2.396-4.163,3.672
		c0.686,1.09,1.206,1.994,1.802,2.844c4.294,6.086,7.896,12.553,11.104,19.285c7.57,15.889,8.35,32.195,3.373,48.928
		c-2.281,7.672-5.51,14.943-9.197,22.025c-2.809,5.385-5.765,10.695-8.59,16.08c-1.631,3.109-3.168,6.268-4.68,9.428
		c-2.105,4.43-3.395,9.096-3.919,13.977c-0.172,1.592-0.526,3.162-0.886,5.23c-1.426-0.973-2.58-1.621-3.573-2.467
		c-5.444-4.633-11.747-7.623-18.519-9.723c-7.732-2.391-15.49-4.715-23.213-7.139c-7.102-2.223-14.004-4.934-20.606-8.377
		c-15.786-8.225-26.91-20.516-32.837-37.422c-2.465-7.025-4.521-14.141-5.717-21.496c-0.145-0.922-0.432-1.812-0.658-2.75
		c-1.992-0.734-3.729-0.201-5.848,0.318c0.613,3.451,1.074,6.633,1.768,9.766c1.543,6.998,3.711,13.818,6.44,20.445
		c5.627,13.672,14.711,24.424,27.127,32.418c8.818,5.672,18.408,9.629,28.343,12.789c7.199,2.291,14.453,4.412,21.693,6.59
		c7.185,2.168,13.836,5.314,19.583,10.252c2.457,2.113,5.135,3.967,7.733,5.906c0.727,0.541,1.54,0.971,2.602,1.633
		C440.195,662.59,440.516,661.734,440.646,660.85z"/>
	<path fill-rule="evenodd" clip-rule="evenodd" fill="none" stroke="#000000" stroke-width="0.2" stroke-miterlimit="10" d="
		M426.226,533.74c0.151,7.014-1.812,13.621-4.731,19.926c-1.981,4.287-4.094,8.523-6.396,12.645
		c-3.274,5.848-5.679,11.926-6.11,18.684c-0.045,0.66-0.217,1.314-0.393,2.348c-0.955-0.482-1.857-0.721-2.475-1.279
		c-5.348-4.863-11.812-7.367-18.625-9.369c-5.424-1.596-10.77-3.516-16.023-5.607c-5.311-2.113-10.115-5.207-14.043-9.387
		c-1.837-1.965-3.535-2.158-5.969-0.67c0.207,0.754,0.379,1.625,0.676,2.457c3.85,10.74,10.779,18.891,20.686,24.531
		c5.542,3.15,11.459,5.422,17.5,7.381c7.822,2.537,15.662,5.021,23.501,7.52c0.362,0.109,0.778,0.061,1.368,0.094
		c1.354-2.746,2.674-5.529,4.098-8.271c2.99-5.746,6.123-11.418,9.042-17.201c3.48-6.908,6.134-14.121,7.13-21.844
		c1.227-9.539-0.693-18.471-5.283-27.154C427.26,529.455,426.167,530.963,426.226,533.74z"/>
	<path fill-rule="evenodd" clip-rule="evenodd" fill="none" stroke="#000000" stroke-width="0.2" stroke-miterlimit="10" d="
		M247.19,594.766c6.7-2.164,13.103-5.008,18.92-9.047c8.505-5.906,14.25-13.822,17.359-23.656c-2.883-2.004-3.858-2.061-5.959-0.018
		c-5.532,5.389-12.17,8.906-19.36,11.447c-4.319,1.527-8.709,2.877-13.102,4.174c-5.494,1.619-10.657,3.818-15.037,7.633
		c-0.888,0.773-1.938,1.373-3.073,2.164c-0.975-1.494-1.047-2.973-1.138-4.396c-0.312-4.795-1.729-9.252-3.975-13.482
		c-2.403-4.525-4.814-9.062-7.077-13.658c-2.811-5.725-4.937-11.691-5.657-18.072c-0.238-2.139-0.311-4.295-0.493-6.869
		c-0.945-0.654-2.109-1.457-3.444-2.381c-0.656,1.139-1.185,1.906-1.569,2.74c-5.009,10.793-5.57,21.922-1.887,33.135
		c1.759,5.359,4.106,10.555,6.56,15.646c3.634,7.533,7.595,14.9,11.431,22.336c0.115,0.221,0.386,0.359,0.762,0.697
		C229.446,600.344,238.34,597.629,247.19,594.766z"/>
	<path fill-rule="evenodd" clip-rule="evenodd" fill="none" stroke="#000000" stroke-width="0.2" stroke-miterlimit="10" d="
		M327.143,594.137c-1.145,2.951-0.648,5.977-1.089,8.889c-0.479,3.193-0.909,6.408-1.581,9.564
		c-0.645,3.023-1.482,6.016-2.393,8.967c-0.916,2.941-2.025,5.826-3.035,8.695c6.247,4.621,24.26,9.699,31.604,8.887
		c0.761-3.576,1.533-7.213,2.388-11.244C341.306,619.244,332.705,607.912,327.143,594.137z"/>
	<path fill-rule="evenodd" clip-rule="evenodd" fill="none" stroke="#000000" stroke-width="0.2" stroke-miterlimit="10" d="
		M526.277,526.945c-7.119,0.75-14.252,1.057-21.361,0.139c-6.924-0.902-13.578-2.953-20.049-5.668
		c-0.129,0.242-0.26,0.475-0.383,0.713c2.494,3.084,5.131,6.064,7.447,9.275c2.355,3.275,4.541,6.693,6.537,10.201
		c1.988,3.496,3.648,7.182,5.434,10.75c7.377-0.945,24.119-10.322,28.547-16.037C530.316,533.078,528.33,530.059,526.277,526.945z"
		/>
	<path fill-rule="evenodd" clip-rule="evenodd" fill="none" stroke="#000000" stroke-width="0.2" stroke-miterlimit="10" d="
		M308.383,594.035c-0.842,1.195-1.297,1.633-1.516,2.168c-5.16,12.523-13.138,22.879-23.893,31.102
		c-0.322,0.248-0.641,0.494-0.964,0.744c0.766,3.703,1.498,7.242,2.271,10.969c1.493,0.844,3.285,0.502,4.965,0.27
		c9.306-1.264,17.935-4.648,26.96-8.58C311.366,618.914,308.67,607.166,308.383,594.035z"/>
	<path fill-rule="evenodd" clip-rule="evenodd" fill="none" stroke="#000000" stroke-width="0.2" stroke-miterlimit="10" d="
		M502.234,554.793c-11.727-4.914-22.062-11.242-31.238-19.672c5.355,13.594,7.423,27.408,5.187,41.914
		c3.139,2.098,6.229,4.156,9.646,6.432C493.877,575.498,497.754,565.203,502.234,554.793z"/>
	<path fill-rule="evenodd" clip-rule="evenodd" fill="none" stroke="#000000" stroke-width="0.2" stroke-miterlimit="10" d="
		M361.234,633.369c-1.072-0.662-2.141-1.332-3.388-2.107c-2.271,3.871-1.62,7.836-1.751,11.723
		c-1.206,1.189-2.723,1.145-4.166,1.256c-4.617,0.352-9.218,0.039-13.636-1.322c-5.793-1.785-11.565-3.695-17.213-5.902
		c-2.604-1.018-4.78-1.01-7.316,0.082c-6.698,2.895-13.553,5.463-20.795,6.57c-3.57,0.543-7.252,0.42-10.887,0.465
		c-1.009,0.016-2.024-0.469-3.215-0.77c0.118-4.08,0.371-7.998-1.545-11.875c-1.22,0.701-2.232,1.281-3.204,1.83
		c0,4.234,0,8.232,0,12.674c3.904,2.529,8.676,2.986,13.56,2.734c6.25-0.324,12.244-1.959,18.143-3.941
		c2.177-0.73,4.47-1.289,6.437-2.404c3.669-2.082,6.952-1.594,10.674,0.055c5.668,2.512,11.631,4.332,17.761,5.467
		c4.535,0.838,9.091,1.316,13.685,0.432c2.381-0.459,4.725-1.023,6.984-2.799C360.135,641.432,360.049,637.57,361.234,633.369z"/>
	<path fill-rule="evenodd" clip-rule="evenodd" fill="none" stroke="#000000" stroke-width="0.2" stroke-miterlimit="10" d="
		M409.385,540.818c-0.803,0.525-1.471,1.578-1.768,2.521c-1.992,6.355-5.266,12.092-8.381,17.912
		c-0.244,0.457-0.613,0.852-1.047,1.445c-6.551-1.656-13.023-3.463-19.036-6.494c-2.374-1.203-4.463-1.549-6.896-0.543
		c-1.451,0.604-3.012,0.943-4.966,1.537c0.81,0.906,1.206,1.611,1.81,1.975c2.767,1.658,5.441,3.627,8.422,4.744
		c8.035,3.023,16.217,5.672,24.463,8.516c0.658-1.117,1.165-1.885,1.589-2.695c2.433-4.658,4.876-9.307,7.261-13.992
		c2.268-4.455,4.128-9.08,5.1-14.01c0.259-1.293,0.345-2.613,0.631-4.863C413.586,538.48,411.395,539.512,409.385,540.818z"/>
	<path fill-rule="evenodd" clip-rule="evenodd" fill="none" stroke="#000000" stroke-width="0.2" stroke-miterlimit="10" d="
		M535.939,524.832c-1.365,0.357-2.484,0.65-3.891,1.02c1.207,4.326,4.494,6.789,7.307,9.693c-1.824,3.582-4.518,6.176-7.496,8.521
		c-4.697,3.703-9.979,6.432-15.365,8.959c-2.318,1.086-4.652,2.178-7.057,3.047c-2.072,0.746-3.24,2.035-4.115,4.059
		c-2.146,4.947-4.467,9.83-6.934,14.631c-2.164,4.219-4.82,8.156-8.305,11.426c-1.547,1.461-3.309,2.686-5.041,4.074
		c-3.143-2.793-5.532-6.006-9.715-7.396c-0.387,1.379-0.689,2.48-0.879,3.184c3.039,3.215,5.785,6.123,8.809,9.322
		c3.229-0.719,6.205-2.736,8.924-5.189c3.547-3.201,6.463-6.943,8.701-11.129c2.744-5.111,5.314-10.316,7.74-15.59
		c0.91-1.979,2.105-3.182,4.084-4.107c5.621-2.631,11.182-5.391,16.631-8.342c3.928-2.141,7.398-4.992,10.352-8.385
		c2.309-2.641,4.318-5.479,4.914-9.33C540.916,531.352,537.969,528.648,535.939,524.832z"/>
	<path fill-rule="evenodd" clip-rule="evenodd" fill="none" stroke="#000000" stroke-width="0.2" stroke-miterlimit="10" d="
		M220.296,545.783c1.112,3.18,2.339,6.342,3.823,9.359c2.791,5.682,5.801,11.254,8.812,17.051c0.979-0.213,1.883-0.342,2.75-0.613
		c5.403-1.699,10.876-3.225,16.167-5.217c4.145-1.559,8.087-3.662,12.063-5.641c1.15-0.572,2.099-1.545,3.542-2.635
		c-2.993-1.498-5.705-2.139-8.394-2.674c-0.898-0.178-2.031,0.523-2.98,0.965c-6.001,2.826-12.336,4.65-18.879,6.516
		c-0.553-0.812-1.141-1.521-1.572-2.32c-2.934-5.473-5.948-10.9-7.958-16.814c-0.284-0.842-0.818-1.793-1.522-2.242
		c-2.133-1.365-4.402-2.504-7.1-3.994C218.687,540.934,219.461,543.395,220.296,545.783z"/>
	<path fill-rule="evenodd" clip-rule="evenodd" fill="none" stroke="#000000" stroke-width="0.2" stroke-miterlimit="10" d="
		M317.439,583.184c-0.985-3.27-1.821-6.037-2.818-9.344c-0.602,0.895-1.072,1.324-1.208,1.836
		c-3.079,11.732-1.407,23.014,3.31,33.988c0.094,0.221,0.383,0.352,0.878,0.775c2.567-4.055,3.595-8.566,4.511-13.082
		c1.575-7.768,1.371-15.506-0.996-23.562C318.797,576.568,319.106,579.92,317.439,583.184z"/>
	<path fill-rule="evenodd" clip-rule="evenodd" fill="none" stroke="#000000" stroke-width="0.2" stroke-miterlimit="10" d="
		M465.124,511.391c0.807,3.277,2.974,5.586,4.349,8.621c-1.878,0-2.949-1.332-4.304-1.951c-1.285-0.58-2.522-1.266-4.122-2.07
		c3.254,9.492,16.562,20.75,27.68,23.566C486.301,528.916,475.131,515.58,465.124,511.391z"/>
	<path fill-rule="evenodd" clip-rule="evenodd" fill="none" stroke="#000000" stroke-width="0.2" stroke-miterlimit="10" d="
		M383.815,552.098c2.054,1.924,6.289,3.516,11.72,4.465c2.161-2.477,4.322-6.602,5.948-11.66
		C395.167,547.473,389.519,549.775,383.815,552.098z"/>
	<path fill-rule="evenodd" clip-rule="evenodd" fill="none" stroke="#000000" stroke-width="0.2" stroke-miterlimit="10" d="
		M53.748,481.939c7.071,3.656,14.125,7.348,21.17,11.047c7.29,3.834,14.674,7.443,22.513,10.08
		c16.269,5.459,32.126,4.805,47.614-2.84c6.038-2.982,11.966-6.111,17.139-10.648c-0.687,0.209-1.426,0.318-2.06,0.633
		c-14.583,7.225-29.389,7.094-44.402,1.463c-7.229-2.713-13.997-6.361-20.777-9.996c-2.261-1.205-4.525-2.41-6.778-3.635
		c-5.394-2.922-11.039-5.039-17.217-5.553c-1.301-0.109-2.578-0.482-4.31-0.818c1.21-1.686,2.066-3.049,3.088-4.268
		c2.997-3.562,5.23-7.545,6.669-11.959c1.718-5.26,3.33-10.557,4.947-15.85c2.45-8.021,5.184-15.924,9.444-23.207
		c6.295-10.754,15.106-18.562,26.828-22.978c1.004-0.379,1.982-0.83,2.969-1.262c0.09-0.043,0.124-0.219,0.274-0.504
		c-0.342-0.092-0.661-0.297-0.939-0.248c-11.107,2.014-21.773,5.314-31.492,11.203c-8.893,5.396-15.388,13.049-20.37,22.072
		c-3.805,6.885-6.609,14.188-8.955,21.674c-2.015,6.449-3.848,12.947-5.906,19.383c-1.438,4.48-3.112,8.891-4.841,13.779
		C50.345,480.398,52.091,481.086,53.748,481.939z"/>
	<path fill-rule="evenodd" clip-rule="evenodd" fill="none" stroke="#000000" stroke-width="0.2" stroke-miterlimit="10" d="
		M197.458,661.898c3.47-2.57,6.942-5.148,10.364-7.783c4.008-3.09,8.449-5.33,13.245-6.852c5.918-1.879,11.914-3.545,17.793-5.533
		c7.796-2.637,15.634-5.215,23.239-8.34c9.189-3.777,17.418-9.203,24.552-16.18c6.048-5.92,10.817-12.764,14.296-20.471
		c4.302-9.541,7.236-19.486,8.922-29.809c0.168-1.045,0.191-2.113,0.309-3.5c-1.904-0.121-3.613-0.223-5.54-0.344
		c-0.282,1.254-0.56,2.256-0.739,3.285c-1.263,7.338-3.291,14.457-5.783,21.482c-5.884,16.592-16.862,28.67-32.213,36.984
		c-7.034,3.809-14.461,6.674-22.074,9.074c-5.796,1.824-11.643,3.486-17.446,5.299c-3.349,1.039-6.674,2.184-9.982,3.359
		c-4.62,1.639-8.827,4.023-12.649,7.107c-1.243,1.006-2.607,1.861-4.326,3.068c-0.317-1.695-0.675-2.971-0.78-4.27
		c-0.574-7.129-2.918-13.699-6.224-19.967c-3.775-7.16-7.611-14.289-11.362-21.465c-3.447-6.59-6.413-13.389-8.648-20.492
		c-5.346-16.98-4.52-33.539,3.242-49.68c3.225-6.717,6.802-13.197,11.16-19.246c0.542-0.75,0.977-1.586,1.479-2.416
		c-0.895-1.922-2.496-2.77-4.364-3.904c-2.003,2.871-3.93,5.451-5.654,8.154c-3.854,6.045-7.144,12.396-9.904,19.018
		c-5.688,13.639-6.869,27.672-3.737,42.104c2.223,10.244,6.21,19.822,10.997,29.08c3.469,6.717,7.1,13.34,10.677,20
		c3.553,6.613,6.028,13.535,6.599,21.1c0.244,3.229,0.83,6.43,1.293,9.635c0.132,0.902,0.4,1.783,0.682,3.002
		C195.909,662.809,196.735,662.43,197.458,661.898z"/>
	<path fill-rule="evenodd" clip-rule="evenodd" fill="none" stroke="#000000" stroke-width="0.2" stroke-miterlimit="10" d="
		M171.775,498.869c-0.532-0.576-1.167-1.057-1.932-1.73c-1.433,0.93-2.788,1.77-4.096,2.68c-6.342,4.406-13.125,8.004-20.194,11.107
		c-13.215,5.789-26.832,6.838-40.844,3.674c-9.021-2.035-17.499-5.527-25.688-9.727c-6.609-3.379-13.123-6.936-19.654-10.457
		c-7.423-4.008-15.075-7.283-23.625-7.936c-0.905-0.061-1.793-0.387-3.049-0.684c0.624-1.002,1-1.838,1.576-2.5
		c5.142-5.934,8.43-12.846,10.717-20.268c1.908-6.197,3.714-12.426,5.619-18.615c2.511-8.143,5.402-16.129,9.271-23.742
		c8.205-16.158,20.622-27.492,37.789-33.55c6.636-2.34,13.369-4.281,20.308-5.51c1.193-0.215,2.38-0.43,3.53-0.639
		c0.53-2.643,0.53-2.643-0.219-6.262c-0.489,0.15-1.123,0.432-1.785,0.541c-12.219,1.953-24,5.354-34.987,11.119
		c-13.243,6.945-22.715,17.621-29.606,30.732c-3.532,6.717-6.279,13.754-8.616,20.957c-1.248,3.855-2.39,7.746-3.565,11.621
		c-1.061,3.486-2.155,6.971-3.151,10.477c-2.178,7.646-5.772,14.516-10.951,20.57c-1.755,2.051-3.338,4.248-4.956,6.412
		c-0.637,0.852-1.156,1.797-1.9,2.975c1.049,0.316,1.875,0.67,2.736,0.805c4.005,0.623,8.004,1.293,12.031,1.75
		c5.447,0.613,10.559,2.242,15.388,4.762c8.014,4.186,15.976,8.461,24.004,12.623c6.841,3.539,13.907,6.572,21.291,8.82
		c18.215,5.553,35.962,4.648,53.286-3.527c6.981-3.293,13.681-7.037,20.013-11.443c1.074-0.744,2.011-1.68,3.164-2.662
		C172.93,500.297,172.399,499.539,171.775,498.869z"/>
	<path fill-rule="evenodd" clip-rule="evenodd" fill="none" stroke="#000000" stroke-width="0.2" stroke-miterlimit="10" d="
		M107.39,478.369c6.266,3.211,12.81,5.725,19.777,6.98c10.191,1.838,19.853,0.307,29-4.455c-0.624-3.453-1.266-4.184-4.201-4.221
		c-7.724-0.098-14.904-2.303-21.784-5.594c-4.134-1.975-8.188-4.127-12.213-6.318c-5.031-2.736-10.237-4.83-16.027-5.232
		c-1.182-0.084-2.345-0.398-3.708-0.643c0.368-1.74,1.359-2.838,2.301-3.908c3.177-3.617,5.322-7.768,6.726-12.352
		c1.505-4.902,3.003-9.805,4.658-14.66c2.057-6.031,4.77-11.754,8.775-16.775c1.342-1.686,2.815-3.262,4.511-5.203
		c-0.209-1.137-0.462-2.527-0.753-4.123c-1.27,0.338-2.185,0.508-3.046,0.826c-11.174,4.092-19.44,11.564-24.763,22.094
		c-2.547,5.035-4.562,10.369-6.427,15.707c-2.758,7.895-5.166,15.906-7.711,23.875c-0.074,0.238,0.017,0.527,0.046,1.035
		C90.897,469.764,99.108,474.139,107.39,478.369z"/>
	<path fill-rule="evenodd" clip-rule="evenodd" fill="none" stroke="#000000" stroke-width="0.2" stroke-miterlimit="10" d="
		M164.372,534.461c-2.899,1.275-4.691,3.764-7.055,5.514c-2.6,1.918-5.176,3.891-7.884,5.641c-2.592,1.689-5.297,3.213-8.035,4.664
		c-2.725,1.43-5.547,2.676-8.289,3.99c1.147,7.686,10.294,24.02,16.06,28.635c3.064-1.992,6.183-4.02,9.638-6.266
		C156.634,562.229,158.559,548.135,164.372,534.461z"/>
	<path fill-rule="evenodd" clip-rule="evenodd" fill="none" stroke="#000000" stroke-width="0.2" stroke-miterlimit="10" d="
		M46.48,334.717c-1.158,6.418,3.316,23.047,8.592,31.607c3.872-1.279,7.76-2.742,11.752-3.832c4.026-1.094,8.125-1.996,12.245-2.639
		c4.052-0.633,8.169-0.818,12.325-1.461c-6.589-3.156-13.07-6.334-18.824-10.807c-5.671-4.406-10.574-9.553-14.951-15.195
		C53.576,333.237,50.029,333.975,46.48,334.717z"/>
	<path fill-rule="evenodd" clip-rule="evenodd" fill="none" stroke="#000000" stroke-width="0.2" stroke-miterlimit="10" d="
		M57.409,403.4c4.535-5.459,9.383-10.863,15.199-15.289c5.694-4.328,11.968-7.645,18.527-10.906
		c-4.052-0.393-8.135-0.605-12.154-1.225c-3.986-0.619-7.956-1.473-11.848-2.531c-4.009-1.094-7.92-2.57-11.858-3.871
		c-4.232,5.172-9.596,23.82-9.007,31.503C50.081,401.879,53.62,402.609,57.409,403.4z"/>
	<path fill-rule="evenodd" clip-rule="evenodd" fill="none" stroke="#000000" stroke-width="0.2" stroke-miterlimit="10" d="
		M151.173,521.127c-1.434,0.246-2.064,0.234-2.602,0.453c-12.503,5.215-25.466,6.891-38.887,5.104
		c-0.401-0.055-0.801-0.109-1.206-0.162c-2.078,3.16-4.063,6.186-6.149,9.365c0.456,1.656,1.964,2.684,3.313,3.703
		c7.475,5.689,15.972,9.391,25.136,12.992C135.689,540.828,142.093,530.613,151.173,521.127z"/>
	<path fill-rule="evenodd" clip-rule="evenodd" fill="none" stroke="#000000" stroke-width="0.2" stroke-miterlimit="10" d="
		M160.732,586.311c-0.285-1.229-0.57-2.453-0.903-3.887c-4.342,1.135-6.69,4.402-9.528,7.049c-1.688-0.008-2.732-1.111-3.833-2.051
		c-3.516-3.018-6.547-6.49-8.707-10.578c-2.836-5.367-5.562-10.801-7.998-16.348c-1.124-2.566-2.668-4.092-5.235-5.115
		c-6.778-2.695-13.444-5.719-19.342-10.062c-2.913-2.141-5.431-4.826-8.029-7.365c-0.726-0.703-1.103-1.768-1.729-2.818
		c2.967-2.801,5.913-5.393,7.298-9.492c-1.353-0.371-2.477-0.676-3.554-0.967c-2.992,2.992-5.825,5.82-8.963,8.961
		c0.972,4.543,4.021,8.242,7.653,11.52c4.652,4.191,10.046,7.27,15.616,10.043c2.055,1.021,4.074,2.248,6.256,2.848
		c4.06,1.125,6.041,3.791,7.504,7.586c2.236,5.789,5.167,11.291,8.699,16.428c2.613,3.797,5.494,7.357,9.367,9.979
		c2.009,1.359,4.061,2.619,6.916,2.967C154.254,591.232,156.928,588.441,160.732,586.311z"/>
	<path fill-rule="evenodd" clip-rule="evenodd" fill="none" stroke="#000000" stroke-width="0.2" stroke-miterlimit="10" d="
		M52.219,411.574c0.668-1.156,1.253-2.162,1.954-3.375c-3.922-2.148-7.988-1.621-12.029-1.658c-0.915-2.523-1.082-4.918-1.054-7.338
		c0.053-4.496,0.847-8.888,2.215-13.128c1.653-5.133,3.486-10.221,5.452-15.238c0.792-2.033,0.819-3.727,0.021-5.787
		c-2.094-5.402-4.146-10.848-5.713-16.41c-1.088-3.861-1.468-7.941-1.927-11.949c-0.278-2.398,0.106-4.812,0.974-7.393
		c4.053,0.023,8.119,0.43,12.102-1.602c-0.613-1.166-1.153-2.195-1.784-3.395c-4.281,0.846-8.414,1.086-12.566-0.299
		c-1.936,2.754-2.591,5.742-2.943,8.822c-0.495,4.338-0.176,8.67,0.938,12.859c1.46,5.465,2.803,11.041,5.049,16.189
		c1.901,4.355,1.705,7.998-0.09,12.24c-1.988,4.691-3.312,9.693-4.667,14.633c-1.143,4.174-1.633,8.484-1.351,12.837
		c0.232,3.529,0.917,6.93,3.043,10.342C44.065,410.441,48.065,410.637,52.219,411.574z"/>
	<path fill-rule="evenodd" clip-rule="evenodd" fill="none" stroke="#000000" stroke-width="0.2" stroke-miterlimit="10" d="
		M123.01,424.719c-1.46,3.033-2.832,6.135-3.914,9.318c-2.047,5.994-3.856,12.066-5.828,18.289c0.842,0.539,1.577,1.092,2.378,1.512
		c5.021,2.617,9.966,5.412,15.119,7.744c4.036,1.828,8.312,3.127,12.522,4.539c1.217,0.41,2.574,0.395,4.367,0.645
		c-1.058-3.178-2.526-5.545-4.048-7.83c-0.507-0.754-1.8-1.061-2.791-1.422c-6.241-2.242-12.006-5.434-17.947-8.748
		c0.177-0.959,0.264-1.885,0.524-2.75c1.795-5.936,3.505-11.91,6.261-17.514c0.393-0.795,0.691-1.848,0.51-2.666
		c-0.545-2.467-1.345-4.877-2.198-7.838C125.301,420.146,124.106,422.441,123.01,424.719z"/>
	<path fill-rule="evenodd" clip-rule="evenodd" fill="none" stroke="#000000" stroke-width="0.2" stroke-miterlimit="10" d="
		M165.253,519.854c1.614-3.006,2.983-5.553,4.617-8.604c-1.061,0.213-1.694,0.178-2.156,0.449
		c-10.47,6.117-17.266,15.279-21.692,26.377c-0.087,0.219,0.026,0.512,0.073,1.164c4.683-1.051,8.602-3.518,12.435-6.055
		c6.615-4.387,11.941-9.992,15.959-17.367C170.887,516.139,168.737,518.73,165.253,519.854z"/>
	<path fill-rule="evenodd" clip-rule="evenodd" fill="none" stroke="#000000" stroke-width="0.2" stroke-miterlimit="10" d="
		M75.391,367.844c6.616,5.42,24.5,7.289,36.109,3.586c-0.798-0.512-1.317-1.02-1.941-1.221c-2.141-0.689-4.31-1.271-7.081-2.072
		c1.84-1.234,3.465-1.248,4.897-1.74c1.352-0.459,2.842-0.6,4.44-1.912C100.344,360.692,83.132,362.401,75.391,367.844z"/>
	<path fill-rule="evenodd" clip-rule="evenodd" fill="none" stroke="#000000" stroke-width="0.2" stroke-miterlimit="10" d="
		M234.167,544.812c0.095,2.809,1.962,6.928,5.133,11.441c3.277-0.225,7.728-1.615,12.449-4.039
		C245.462,549.564,239.844,547.203,234.167,544.812z"/>
	<path fill-rule="evenodd" clip-rule="evenodd" fill="none" stroke="#000000" stroke-width="0.2" stroke-miterlimit="10" d="
		M132.788,434.162c-2.06,4.154-3.03,7.832-4.075,11.824c3.249,2.426,6.896,3.965,11.289,5.855
		C137.503,445.723,135.299,440.324,132.788,434.162z"/>
	<path fill-rule="evenodd" clip-rule="evenodd" fill="none" stroke="#000000" stroke-width="0.2" stroke-miterlimit="10" d="
		M206.318,99.232c-2.238,4.684-4.171,8.987-6.326,13.174c-3.093,6-6.391,11.892-9.524,17.876c-3.636,6.947-6.819,14.096-9,21.658
		c-2.852,9.904-3.674,19.915-1.2,30.013c2.703,11.038,7.919,20.911,14.348,30.186c0.159,0.231,0.531,0.315,0.84,0.491
		c0.092-0.307,0.196-0.451,0.16-0.551c-0.389-0.998-0.767-2.007-1.209-2.987c-5.167-11.412-5.872-23.164-2.719-35.222
		c2.136-8.162,5.793-15.683,9.729-23.086c2.6-4.888,5.208-9.773,7.715-14.708c2.098-4.135,3.336-8.534,3.74-13.171
		c0.134-1.585,0.497-3.153,0.831-5.198c1.464,0.984,2.63,1.621,3.625,2.467c4.734,4.006,10.221,6.502,16.105,8.248
		c2.456,0.726,4.91,1.475,7.36,2.223c7.363,2.221,14.73,4.43,21.759,7.625c14.599,6.632,25.16,17.013,30.363,32.427
		c0.226,0.675,0.665,1.275,1.01,1.904c-0.451-6.864-2.43-13.267-4.594-19.644c-5.546-16.358-16.296-28.035-31.658-35.676
		c-7.405-3.682-15.178-6.348-23.044-8.796c-7.601-2.361-15.197-4.739-22.78-7.155C210.07,100.759,208.352,100.009,206.318,99.232z"
		/>
	<path fill-rule="evenodd" clip-rule="evenodd" fill="none" stroke="#000000" stroke-width="0.2" stroke-miterlimit="10" d="
		M421.442,117.782c0.255,1.227,0.493,1.973,0.555,2.731c0.572,7.28,3.054,13.929,6.571,20.263c2.367,4.25,4.814,8.472,6.871,12.869
		c2.63,5.617,5.301,11.267,7.254,17.135c4.404,13.222,3.854,26.327-2.139,39.06c-0.494,1.051-0.921,2.131-1.383,3.2
		c0.973-0.277,1.527-0.789,1.938-1.394c4.886-7.178,8.935-14.795,11.923-22.954c1.912-5.236,3.015-10.632,3.294-16.219
		c0.518-10.193-1.506-19.947-5.486-29.222c-3.139-7.314-6.874-14.367-10.399-21.505c-3.467-7.021-7.003-14.008-10.528-21.001
		c-0.23-0.458-0.623-0.83-0.992-1.316c-3.132,1.18-6.109,2.443-9.176,3.425c-6.944,2.222-13.93,4.296-20.894,6.44
		c-8.791,2.712-17.405,5.831-25.442,10.4c-12.322,7.013-21.154,17.006-26.299,30.268c-2.547,6.571-4.539,13.286-5.9,20.193
		c-0.148,0.736-0.12,1.508-0.193,2.49c0.438-0.382,0.725-0.517,0.814-0.727c0.541-1.237,1.058-2.481,1.54-3.741
		c4.204-11.012,11.44-19.468,21.476-25.588c4.861-2.973,10-5.378,15.393-7.171c6.785-2.264,13.623-4.373,20.473-6.436
		c6.399-1.931,12.398-4.583,17.506-9.018C419.089,119.214,420.126,118.661,421.442,117.782z"/>
	<path fill-rule="evenodd" clip-rule="evenodd" fill="none" stroke="#000000" stroke-width="0.2" stroke-miterlimit="10" d="
		M439.955,72.812c-1.059,0.665-1.872,1.091-2.603,1.636c-2.599,1.943-5.272,3.792-7.729,5.901
		c-5.751,4.944-12.402,8.09-19.587,10.252c-7.236,2.181-14.49,4.298-21.688,6.593c-9.936,3.163-19.525,7.114-28.344,12.788
		c-12.416,7.991-21.504,18.75-27.127,32.415c-2.729,6.635-4.896,13.45-6.444,20.449c-0.692,3.132-1.151,6.315-1.768,9.771
		c2.122,0.514,3.856,1.048,5.848,0.317c0.231-0.941,0.514-1.837,0.661-2.753c1.196-7.354,3.254-14.47,5.718-21.496
		c5.927-16.905,17.051-29.195,32.833-37.422c6.606-3.444,13.509-6.153,20.604-8.375c7.727-2.423,15.483-4.75,23.217-7.146
		c6.768-2.095,13.073-5.083,18.521-9.72c0.992-0.84,2.144-1.489,3.574-2.468c0.354,2.074,0.717,3.642,0.885,5.231
		c0.521,4.884,1.81,9.549,3.915,13.978c1.509,3.167,3.054,6.322,4.683,9.431c2.822,5.379,5.786,10.689,8.588,16.083
		c3.69,7.075,6.92,14.349,9.201,22.021c4.973,16.73,4.193,33.039-3.374,48.928c-3.208,6.725-6.81,13.202-11.11,19.284
		c-0.596,0.848-1.109,1.756-1.795,2.845c1.447,1.279,2.726,2.405,4.159,3.672c0.899-1.063,1.641-1.835,2.261-2.691
		c6.106-8.491,11.065-17.601,14.763-27.384c2.994-7.914,4.459-16.124,4.373-24.585c-0.117-9.978-2.096-19.639-5.921-28.805
		c-3.17-7.583-6.892-14.949-10.541-22.327c-2.75-5.568-5.81-10.979-8.666-16.495c-2.312-4.474-3.87-9.193-4.521-14.208
		c-0.555-4.285-1.186-8.561-1.83-12.837C440.578,74.814,440.262,73.958,439.955,72.812z"/>
	<path fill-rule="evenodd" clip-rule="evenodd" fill="none" stroke="#000000" stroke-width="0.2" stroke-miterlimit="10" d="
		M430.24,208.008c4.594-8.684,6.513-17.619,5.283-27.16c-0.996-7.721-3.646-14.933-7.127-21.839
		c-2.915-5.786-6.051-11.461-9.043-17.206c-1.426-2.736-2.746-5.524-4.1-8.269c-0.586,0.038-1.007-0.016-1.369,0.098
		c-7.836,2.488-15.679,4.978-23.504,7.516c-6.038,1.959-11.951,4.225-17.492,7.385c-9.911,5.636-16.838,13.784-20.687,24.527
		c-0.296,0.831-0.472,1.701-0.676,2.457c2.433,1.488,4.132,1.289,5.969-0.664c3.929-4.187,8.729-7.276,14.042-9.39
		c5.256-2.094,10.6-4.02,16.024-5.608c6.812-2.006,13.277-4.513,18.622-9.368c0.617-0.562,1.523-0.799,2.475-1.28
		c0.179,1.034,0.352,1.687,0.396,2.347c0.427,6.756,2.836,12.835,6.109,18.685c2.302,4.116,4.41,8.358,6.396,12.64
		c2.915,6.303,4.88,12.911,4.731,19.928C426.229,205.579,427.321,207.085,430.24,208.008z"/>
	<path fill-rule="evenodd" clip-rule="evenodd" fill="none" stroke="#000000" stroke-width="0.2" stroke-miterlimit="10" d="
		M220.519,133.391c-0.378,0.334-0.649,0.476-0.762,0.694c-3.837,7.435-7.799,14.804-11.431,22.337
		c-2.456,5.091-4.805,10.286-6.561,15.65c-3.684,11.211-3.125,22.339,1.884,33.132c0.386,0.832,0.914,1.601,1.572,2.738
		c1.333-0.918,2.495-1.725,3.446-2.376c0.177-2.576,0.25-4.737,0.491-6.876c0.718-6.382,2.846-12.344,5.658-18.066
		c2.262-4.604,4.673-9.128,7.076-13.66c2.244-4.232,3.659-8.684,3.973-13.483c0.093-1.432,0.166-2.905,1.136-4.397
		c1.139,0.796,2.185,1.392,3.077,2.167c4.375,3.803,9.543,6.014,15.034,7.633c4.395,1.298,8.782,2.644,13.102,4.17
		c7.192,2.542,13.829,6.056,19.362,11.449c2.099,2.047,3.074,1.985,5.958-0.019c-3.106-9.83-8.854-17.749-17.36-23.651
		c-5.818-4.042-12.221-6.889-18.921-9.056C238.405,138.918,229.509,136.201,220.519,133.391z"/>
	<path fill-rule="evenodd" clip-rule="evenodd" fill="none" stroke="#000000" stroke-width="0.2" stroke-miterlimit="10" d="
		M353.098,108.652c-0.854-4.023-1.626-7.666-2.381-11.239c-7.344-0.818-25.359,4.266-31.607,8.884
		c1.01,2.865,2.123,5.746,3.033,8.689c0.913,2.958,1.75,5.948,2.395,8.977c0.669,3.155,1.1,6.366,1.582,9.564
		c0.438,2.908-0.062,5.932,1.089,8.891C332.77,128.633,341.371,117.306,353.098,108.652z"/>
	<path fill-rule="evenodd" clip-rule="evenodd" fill="none" stroke="#000000" stroke-width="0.2" stroke-miterlimit="10" d="
		M532.514,200.228c-4.434-5.708-21.176-15.09-28.543-16.04c-1.791,3.572-3.455,7.255-5.438,10.75
		c-1.998,3.508-4.18,6.93-6.537,10.202c-2.314,3.215-4.955,6.194-7.447,9.275c0.125,0.24,0.252,0.478,0.377,0.711
		c6.48-2.708,13.129-4.762,20.055-5.656c7.109-0.924,14.24-0.619,21.361,0.131C528.396,206.484,530.381,203.474,532.514,200.228z"/>
	<path fill-rule="evenodd" clip-rule="evenodd" fill="none" stroke="#000000" stroke-width="0.2" stroke-miterlimit="10" d="
		M316.266,105.843c-9.023-3.932-17.651-7.322-26.958-8.589c-1.68-0.224-3.468-0.568-4.961,0.279
		c-0.774,3.723-1.505,7.261-2.273,10.969c0.324,0.246,0.645,0.494,0.964,0.741c10.758,8.226,18.735,18.578,23.894,31.1
		c0.222,0.54,0.67,0.982,1.514,2.164C308.734,129.379,311.43,117.628,316.266,105.843z"/>
	<path fill-rule="evenodd" clip-rule="evenodd" fill="none" stroke="#000000" stroke-width="0.2" stroke-miterlimit="10" d="
		M361.427,89.552c-2.264-1.772-4.604-2.336-6.985-2.795c-4.594-0.881-9.152-0.402-13.684,0.435
		c-6.131,1.138-12.092,2.955-17.764,5.466c-3.719,1.645-7.002,2.131-10.672,0.052c-1.969-1.116-4.263-1.674-6.437-2.404
		c-5.901-1.98-11.892-3.617-18.145-3.939c-4.885-0.252-9.656,0.208-13.557,2.735c0,4.435,0,8.441,0,12.671
		c0.972,0.555,1.982,1.132,3.2,1.828c1.921-3.877,1.668-7.792,1.551-11.872c1.187-0.301,2.204-0.782,3.214-0.771
		c3.634,0.041,7.316-0.077,10.888,0.465c7.242,1.105,14.092,3.677,20.79,6.569c2.538,1.091,4.712,1.102,7.32,0.087
		c5.648-2.208,11.417-4.12,17.209-5.901c4.422-1.365,9.019-1.677,13.64-1.327c1.44,0.109,2.96,0.068,4.163,1.252
		c0.131,3.888-0.518,7.853,1.754,11.727c1.244-0.774,2.315-1.442,3.384-2.11C360.114,97.525,360.2,93.656,361.427,89.552z"/>
	<path fill-rule="evenodd" clip-rule="evenodd" fill="none" stroke="#000000" stroke-width="0.2" stroke-miterlimit="10" d="
		M416.632,199.674c-0.286-2.247-0.379-3.57-0.631-4.859c-0.976-4.937-2.833-9.554-5.104-14.011
		c-2.378-4.687-4.827-9.34-7.257-13.994c-0.428-0.812-0.931-1.579-1.592-2.691c-8.243,2.841-16.424,5.488-24.464,8.508
		c-2.98,1.122-5.651,3.086-8.419,4.75c-0.605,0.36-1.002,1.072-1.809,1.969c1.951,0.591,3.512,0.936,4.963,1.537
		c2.432,1.01,4.521,0.656,6.895-0.539c6.014-3.027,12.485-4.84,19.039-6.494c0.435,0.593,0.797,0.987,1.045,1.447
		c3.118,5.817,6.389,11.56,8.384,17.909c0.296,0.95,0.962,1.996,1.768,2.522C411.459,197.033,413.647,198.065,416.632,199.674z"/>
	<path fill-rule="evenodd" clip-rule="evenodd" fill="none" stroke="#000000" stroke-width="0.2" stroke-miterlimit="10" d="
		M544.662,203.245c-0.596-3.854-2.6-6.687-4.908-9.33c-2.953-3.388-6.422-6.241-10.352-8.377c-5.451-2.957-11.014-5.72-16.633-8.346
		c-1.979-0.923-3.172-2.126-4.084-4.107c-2.422-5.269-4.996-10.479-7.736-15.59c-2.244-4.184-5.162-7.926-8.705-11.127
		c-2.719-2.453-5.695-4.475-8.922-5.189c-3.025,3.198-5.769,6.104-8.808,9.321c0.189,0.701,0.492,1.801,0.875,3.188
		c4.184-1.396,6.575-4.607,9.718-7.4c1.734,1.383,3.494,2.615,5.041,4.071c3.479,3.274,6.139,7.211,8.307,11.422
		c2.467,4.802,4.785,9.685,6.932,14.637c0.877,2.024,2.045,3.313,4.109,4.058c2.408,0.87,4.74,1.959,7.062,3.052
		c5.387,2.527,10.666,5.251,15.367,8.959c2.977,2.34,5.672,4.941,7.494,8.517c-2.812,2.903-6.102,5.366-7.305,9.69
		c1.402,0.37,2.525,0.663,3.891,1.023C538.039,207.902,540.98,205.198,544.662,203.245z"/>
	<path fill-rule="evenodd" clip-rule="evenodd" fill="none" stroke="#000000" stroke-width="0.2" stroke-miterlimit="10" d="
		M219.114,199.02c2.696-1.487,4.966-2.622,7.098-3.985c0.702-0.455,1.235-1.409,1.524-2.247c2.011-5.912,5.025-11.346,7.958-16.815
		c0.428-0.796,1.017-1.511,1.569-2.314c6.545,1.859,12.878,3.679,18.881,6.502c0.952,0.452,2.082,1.146,2.98,0.969
		c2.686-0.536,5.401-1.172,8.395-2.667c-1.44-1.094-2.392-2.066-3.542-2.634c-3.976-1.978-7.918-4.082-12.064-5.648
		c-5.294-1.992-10.766-3.515-16.165-5.214c-0.868-0.271-1.775-0.4-2.752-0.613c-3.011,5.794-6.021,11.37-8.814,17.051
		c-1.481,3.024-2.709,6.184-3.819,9.359C219.526,193.149,218.749,195.613,219.114,199.02z"/>
	<path fill-rule="evenodd" clip-rule="evenodd" fill="none" stroke="#000000" stroke-width="0.2" stroke-miterlimit="10" d="
		M321.178,162.747c2.367-8.055,2.574-15.79,0.996-23.562c-0.914-4.509-1.938-9.023-4.512-13.078
		c-0.491,0.427-0.781,0.558-0.874,0.772c-4.718,10.979-6.389,22.261-3.313,33.993c0.137,0.512,0.608,0.939,1.211,1.836
		c0.996-3.31,1.832-6.077,2.819-9.349C319.172,156.624,318.858,159.973,321.178,162.747z"/>
	<path fill-rule="evenodd" clip-rule="evenodd" fill="none" stroke="#000000" stroke-width="0.2" stroke-miterlimit="10" d="
		M401.545,191.642c-1.623-5.05-3.783-9.182-5.947-11.661c-5.432,0.953-9.666,2.545-11.717,4.468
		C389.58,186.771,395.229,189.069,401.545,191.642z"/>
	<path fill-rule="evenodd" clip-rule="evenodd" fill="none" stroke="#000000" stroke-width="0.2" stroke-miterlimit="10" d="
		M251.554,183.601c-4.443-1.77-8.109-3.262-12.123-3.844c-2.083,3.565-3.997,6.851-5.48,11.243
		C240.087,188.418,245.462,186.164,251.554,183.601z"/>
	<path fill-rule="evenodd" clip-rule="evenodd" fill="none" stroke="#000000" stroke-width="0.2" stroke-miterlimit="10" d="
		M48.421,257.037c1.728,4.896,3.404,9.301,4.842,13.786c2.058,6.432,3.889,12.93,5.906,19.375
		c2.342,7.488,5.149,14.791,8.955,21.676c4.982,9.027,11.478,16.68,20.371,22.072c9.713,5.896,20.382,9.188,31.491,11.197
		c0.274,0.057,0.598-0.148,0.933-0.242c-0.146-0.285-0.178-0.463-0.271-0.504c-0.984-0.436-1.96-0.877-2.967-1.258
		c-11.722-4.418-20.532-12.227-26.827-22.98c-4.264-7.285-6.994-15.188-9.444-23.205c-1.623-5.295-3.228-10.598-4.948-15.855
		c-1.438-4.41-3.676-8.399-6.668-11.959c-1.024-1.217-1.878-2.58-3.088-4.263c1.729-0.341,3.009-0.709,4.31-0.82
		c6.178-0.512,11.823-2.629,17.217-5.553c2.254-1.222,4.518-2.428,6.778-3.639c6.781-3.63,13.547-7.278,20.775-9.992
		c15.012-5.634,29.819-5.762,44.402,1.463c0.634,0.317,1.37,0.427,2.062,0.632c-5.175-4.539-11.102-7.664-17.142-10.643
		c-15.49-7.65-31.344-8.303-47.611-2.843c-7.84,2.633-15.223,6.239-22.515,10.078c-7.044,3.705-14.097,7.39-21.17,11.046
		C52.152,255.46,50.409,256.146,48.421,257.037z"/>
	<path fill-rule="evenodd" clip-rule="evenodd" fill="none" stroke="#000000" stroke-width="0.2" stroke-miterlimit="10" d="
		M194.946,73.145c-0.285,1.218-0.551,2.101-0.684,3.001c-0.467,3.207-1.049,6.408-1.295,9.639
		c-0.57,7.559-3.046,14.483-6.596,21.097c-3.58,6.659-7.209,13.286-10.678,19.997c-4.786,9.263-8.777,18.839-11,29.086
		c-3.125,14.428-1.948,28.464,3.741,42.103c2.762,6.62,6.049,12.971,9.902,19.017c1.724,2.7,3.651,5.276,5.656,8.153
		c1.869-1.135,3.47-1.983,4.364-3.906c-0.503-0.827-0.938-1.665-1.48-2.417c-4.354-6.042-7.932-12.53-11.157-19.241
		c-7.761-16.145-8.589-32.701-3.245-49.679c2.237-7.105,5.204-13.905,8.647-20.495c3.752-7.171,7.591-14.301,11.366-21.467
		c3.303-6.268,5.647-12.836,6.224-19.969c0.105-1.294,0.461-2.569,0.779-4.268c1.718,1.212,3.081,2.069,4.324,3.07
		c3.825,3.086,8.033,5.469,12.653,7.113c3.307,1.171,6.632,2.315,9.981,3.357c5.802,1.808,11.647,3.477,17.443,5.299
		c7.614,2.397,15.039,5.26,22.076,9.069c15.35,8.312,26.327,20.395,32.208,36.982c2.495,7.023,4.521,14.147,5.789,21.491
		c0.174,1.023,0.455,2.033,0.737,3.281c1.927-0.121,3.631-0.228,5.541-0.345c-0.122-1.387-0.141-2.455-0.312-3.503
		c-1.684-10.314-4.618-20.264-8.921-29.799c-3.477-7.715-8.246-14.558-14.297-20.471c-7.13-6.977-15.362-12.413-24.547-16.183
		c-7.606-3.127-15.445-5.702-23.241-8.339c-5.882-1.992-11.874-3.655-17.794-5.54c-4.795-1.524-9.235-3.759-13.242-6.846
		c-3.423-2.641-6.893-5.215-10.368-7.784C196.801,74.119,195.972,73.738,194.946,73.145z"/>
	<path fill-rule="evenodd" clip-rule="evenodd" fill="none" stroke="#000000" stroke-width="0.2" stroke-miterlimit="10" d="
		M173.744,235.301c-1.152-0.977-2.091-1.914-3.163-2.662c-6.333-4.395-13.033-8.146-20.015-11.439
		c-17.321-8.174-35.069-9.08-53.282-3.529c-7.388,2.254-14.452,5.278-21.294,8.82c-8.027,4.156-15.988,8.444-24.004,12.621
		c-4.831,2.521-9.941,4.15-15.39,4.764c-4.024,0.454-8.026,1.124-12.028,1.746c-0.862,0.14-1.687,0.495-2.737,0.806
		c0.744,1.181,1.26,2.123,1.9,2.981c1.615,2.161,3.2,4.361,4.954,6.406c5.179,6.055,8.775,12.926,10.952,20.574
		c0.997,3.508,2.09,6.988,3.15,10.477c1.179,3.877,2.32,7.766,3.566,11.619c2.341,7.201,5.086,14.24,8.618,20.957
		c6.891,13.111,16.359,23.785,29.604,30.736c10.989,5.764,22.771,9.16,34.989,11.123c0.662,0.1,1.296,0.383,1.787,0.535
		c0.747-3.623,0.747-3.623,0.219-6.26c-1.151-0.209-2.343-0.432-3.534-0.641c-6.937-1.225-13.668-3.168-20.307-5.514
		c-17.164-6.057-29.582-17.389-37.786-33.545c-3.873-7.619-6.763-15.602-9.271-23.74c-1.905-6.195-3.71-12.422-5.621-18.615
		c-2.286-7.432-5.577-14.338-10.714-20.272c-0.576-0.662-0.954-1.499-1.578-2.5c1.255-0.291,2.142-0.622,3.049-0.687
		c8.549-0.648,16.201-3.927,23.627-7.931c6.529-3.519,13.045-7.082,19.651-10.462c8.189-4.196,16.67-7.683,25.688-9.721
		c14.011-3.16,27.627-2.121,40.843,3.677c7.069,3.1,13.851,6.697,20.197,11.104c1.308,0.912,2.662,1.746,4.093,2.68
		c0.766-0.676,1.401-1.158,1.934-1.73C172.464,237.003,172.994,236.25,173.744,235.301z"/>
	<path fill-rule="evenodd" clip-rule="evenodd" fill="none" stroke="#000000" stroke-width="0.2" stroke-miterlimit="10" d="
		M82.613,271.148c-0.026,0.507-0.118,0.791-0.046,1.028c2.542,7.967,4.954,15.982,7.71,23.875
		c1.864,5.338,3.882,10.676,6.427,15.709c5.324,10.535,13.59,18.008,24.76,22.098c0.867,0.309,1.782,0.484,3.05,0.824
		c0.291-1.596,0.546-2.982,0.753-4.119c-1.692-1.947-3.167-3.523-4.511-5.207c-4.005-5.018-6.719-10.746-8.773-16.781
		c-1.657-4.85-3.155-9.754-4.66-14.658c-1.402-4.58-3.55-8.73-6.723-12.344c-0.944-1.076-1.936-2.168-2.304-3.914
		c1.364-0.24,2.527-0.558,3.709-0.641c5.785-0.406,10.996-2.494,16.025-5.232c4.023-2.195,8.081-4.342,12.216-6.318
		c6.88-3.288,14.059-5.497,21.785-5.591c2.931-0.038,3.576-0.772,4.199-4.23c-9.148-4.755-18.81-6.291-29.002-4.449
		c-6.969,1.252-13.508,3.77-19.777,6.98C99.171,262.409,90.962,266.782,82.613,271.148z"/>
	<path fill-rule="evenodd" clip-rule="evenodd" fill="none" stroke="#000000" stroke-width="0.2" stroke-miterlimit="10" d="
		M158.873,159.908c-3.456-2.244-6.576-4.273-9.638-6.263c-5.769,4.612-14.915,20.95-16.062,28.629
		c2.743,1.316,5.565,2.565,8.29,3.999c2.737,1.447,5.441,2.969,8.036,4.657c2.707,1.756,5.282,3.723,7.883,5.641
		c2.366,1.745,4.158,4.24,7.055,5.515C158.625,188.408,156.697,174.317,158.873,159.908z"/>
	<path fill-rule="evenodd" clip-rule="evenodd" fill="none" stroke="#000000" stroke-width="0.2" stroke-miterlimit="10" d="
		M130.84,183.959c-9.159,3.606-17.661,7.307-25.135,12.995c-1.347,1.03-2.856,2.05-3.311,3.705c2.085,3.181,4.07,6.203,6.147,9.363
		c0.404-0.052,0.807-0.104,1.205-0.155c13.421-1.792,26.385-0.112,38.889,5.097c0.536,0.224,1.166,0.215,2.599,0.457
		C142.157,205.938,135.755,195.72,130.84,183.959z"/>
	<path fill-rule="evenodd" clip-rule="evenodd" fill="none" stroke="#000000" stroke-width="0.2" stroke-miterlimit="10" d="
		M150.827,140.086c-2.854,0.347-4.906,1.603-6.916,2.965c-3.873,2.621-6.756,6.182-9.366,9.98
		c-3.534,5.14-6.461,10.641-8.698,16.427c-1.465,3.792-3.443,6.459-7.506,7.58c-2.181,0.605-4.2,1.832-6.253,2.855
		c-5.575,2.769-10.967,5.85-15.618,10.045c-3.633,3.272-6.681,6.973-7.653,11.519c3.142,3.134,5.969,5.968,8.963,8.961
		c1.076-0.295,2.201-0.603,3.554-0.97c-1.384-4.101-4.33-6.69-7.299-9.492c0.629-1.053,1.007-2.114,1.73-2.817
		c2.597-2.54,5.118-5.226,8.028-7.366c5.899-4.342,12.565-7.371,19.343-10.062c2.567-1.02,4.112-2.554,5.235-5.116
		c2.434-5.551,5.166-10.982,7.999-16.344c2.16-4.085,5.19-7.561,8.705-10.581c1.099-0.937,2.143-2.043,3.834-2.057
		c2.839,2.657,5.185,5.92,9.529,7.056c0.333-1.428,0.617-2.659,0.9-3.887C155.536,146.649,152.863,143.856,150.827,140.086z"/>
	<path fill-rule="evenodd" clip-rule="evenodd" fill="none" stroke="#000000" stroke-width="0.2" stroke-miterlimit="10" d="
		M128.032,318.547c0.851-2.955,1.652-5.371,2.197-7.836c0.181-0.816-0.118-1.871-0.509-2.668
		c-2.761-5.602-4.471-11.574-6.264-17.514c-0.259-0.869-0.346-1.791-0.525-2.754c5.945-3.305,11.707-6.5,17.95-8.744
		c0.989-0.357,2.279-0.664,2.79-1.421c1.521-2.282,2.989-4.655,4.049-7.825c-1.794,0.242-3.15,0.23-4.367,0.641
		c-4.21,1.41-8.488,2.713-12.523,4.538c-5.152,2.331-10.099,5.12-15.121,7.745c-0.798,0.418-1.531,0.969-2.374,1.512
		c1.967,6.229,3.781,12.299,5.822,18.289c1.085,3.178,2.454,6.287,3.919,9.32C124.167,314.108,125.363,316.397,128.032,318.547z"/>
	<path fill-rule="evenodd" clip-rule="evenodd" fill="none" stroke="#000000" stroke-width="0.2" stroke-miterlimit="10" d="
		M174.551,220.729c-4.02-7.371-9.345-12.984-15.956-17.368c-3.833-2.538-7.754-5.003-12.437-6.056
		c-0.048,0.648-0.16,0.946-0.072,1.168c4.423,11.1,11.22,20.255,21.693,26.374c0.459,0.265,1.092,0.237,2.155,0.442
		c-1.635-3.042-3.004-5.589-4.619-8.598C168.802,217.816,170.952,220.409,174.551,220.729z"/>
	<path fill-rule="evenodd" clip-rule="evenodd" fill="none" stroke="#000000" stroke-width="0.2" stroke-miterlimit="10" d="
		M140.067,284.706c-4.396,1.889-8.042,3.43-11.293,5.857c1.048,3.994,2.016,7.668,4.075,11.818
		C135.366,296.223,137.568,290.825,140.067,284.706z"/>
	<path fill-rule="evenodd" clip-rule="evenodd" fill="none" stroke="#000000" stroke-width="0.2" stroke-miterlimit="10" d="
		M460.934,499.939c1.154,0.982,2.088,1.918,3.16,2.662c6.334,4.402,13.029,8.148,20.018,11.443
		c17.32,8.176,35.07,9.088,53.279,3.527c7.389-2.254,14.453-5.279,21.293-8.822c8.025-4.156,15.992-8.443,24.004-12.621
		c4.836-2.52,9.943-4.152,15.391-4.764c4.021-0.451,8.021-1.125,12.027-1.748c0.861-0.135,1.688-0.492,2.738-0.805
		c-0.744-1.18-1.262-2.123-1.898-2.982c-1.619-2.158-3.201-4.354-4.951-6.404c-5.188-6.051-8.777-12.924-10.955-20.576
		c-0.996-3.5-2.092-6.98-3.154-10.471c-1.174-3.877-2.314-7.768-3.562-11.623c-2.336-7.201-5.09-14.24-8.619-20.953
		c-6.891-13.111-16.363-23.787-29.607-30.738c-10.986-5.762-22.768-9.158-34.986-11.119c-0.662-0.111-1.293-0.385-1.783-0.535
		c-0.754,3.617-0.754,3.617-0.219,6.258c1.15,0.211,2.336,0.426,3.531,0.641c6.938,1.227,13.67,3.168,20.307,5.514
		c17.166,6.055,29.584,17.388,37.785,33.541c3.871,7.623,6.766,15.607,9.271,23.74c1.908,6.197,3.715,12.43,5.623,18.623
		c2.289,7.426,5.572,14.334,10.711,20.262c0.582,0.666,0.957,1.504,1.58,2.506c-1.254,0.291-2.143,0.619-3.045,0.686
		c-8.553,0.645-16.207,3.93-23.629,7.932c-6.531,3.527-13.047,7.078-19.652,10.463c-8.191,4.193-16.672,7.688-25.691,9.723
		c-14.008,3.162-27.627,2.121-40.842-3.678c-7.068-3.1-13.85-6.697-20.197-11.109c-1.306-0.906-2.66-1.74-4.09-2.676
		c-0.769,0.678-1.406,1.158-1.938,1.73C462.212,498.236,461.682,498.994,460.934,499.939z"/>
	<path fill-rule="evenodd" clip-rule="evenodd" fill="none" stroke="#000000" stroke-width="0.2" stroke-miterlimit="10" d="
		M552.064,464.094c0.023-0.504,0.117-0.793,0.041-1.027c-2.541-7.969-4.953-15.984-7.713-23.879
		c-1.863-5.338-3.877-10.67-6.424-15.707c-5.324-10.531-13.59-18.002-24.762-22.092c-0.861-0.316-1.779-0.488-3.043-0.828
		c-0.297,1.598-0.549,2.988-0.756,4.123c1.689,1.941,3.164,3.52,4.508,5.203c4.004,5.023,6.721,10.746,8.777,16.779
		c1.654,4.852,3.152,9.758,4.656,14.656c1.406,4.582,3.553,8.732,6.723,12.35c0.943,1.074,1.939,2.17,2.305,3.91
		c-1.363,0.246-2.525,0.557-3.707,0.641c-5.787,0.408-10.996,2.498-16.027,5.236c-4.025,2.189-8.082,4.342-12.213,6.318
		c-6.879,3.281-14.061,5.492-21.785,5.59c-2.934,0.041-3.578,0.771-4.202,4.225c9.149,4.758,18.813,6.291,29.003,4.459
		c6.967-1.262,13.508-3.777,19.779-6.986C535.502,472.834,543.715,468.461,552.064,464.094z"/>
	<path fill-rule="evenodd" clip-rule="evenodd" fill="none" stroke="#000000" stroke-width="0.2" stroke-miterlimit="10" d="
		M576.992,331.086c-4.381,5.645-9.279,10.791-14.953,15.193c-5.754,4.471-12.232,7.654-18.822,10.811
		c4.154,0.637,8.271,0.828,12.324,1.461c4.121,0.639,8.219,1.545,12.246,2.643c3.988,1.086,7.879,2.547,11.748,3.826
		c5.279-8.562,9.756-25.186,8.592-31.604C584.58,332.672,581.033,331.932,576.992,331.086z"/>
	<path fill-rule="evenodd" clip-rule="evenodd" fill="none" stroke="#000000" stroke-width="0.2" stroke-miterlimit="10" d="
		M588.346,399.775c0.584-7.683-4.779-26.328-9.01-31.498c-3.936,1.299-7.848,2.773-11.855,3.863
		c-3.896,1.064-7.867,1.918-11.85,2.531c-4.025,0.625-8.102,0.834-12.158,1.234c6.564,3.258,12.834,6.57,18.529,10.904
		c5.816,4.424,10.662,9.828,15.203,15.283C580.99,401.311,584.529,400.57,588.346,399.775z"/>
	<path fill-rule="evenodd" clip-rule="evenodd" fill="none" stroke="#000000" stroke-width="0.2" stroke-miterlimit="10" d="
		M594.766,410.623c2.127-3.41,2.812-6.818,3.043-10.346c0.283-4.349-0.199-8.662-1.344-12.835c-1.357-4.936-2.68-9.938-4.672-14.635
		c-1.795-4.238-1.992-7.883-0.09-12.232c2.246-5.154,3.59-10.73,5.049-16.197c1.113-4.186,1.436-8.52,0.939-12.859
		c-0.354-3.076-1.006-6.068-2.945-8.816c-4.152,1.381-8.285,1.146-12.568,0.291c-0.631,1.199-1.164,2.232-1.777,3.4
		c3.977,2.035,8.043,1.629,12.102,1.598c0.865,2.578,1.248,4.998,0.969,7.396c-0.455,4.006-0.838,8.086-1.922,11.945
		c-1.572,5.57-3.623,11.012-5.715,16.412c-0.803,2.061-0.768,3.76,0.021,5.791c1.965,5.016,3.797,10.102,5.451,15.23
		c1.367,4.244,2.164,8.639,2.217,13.132c0.027,2.418-0.143,4.814-1.053,7.34c-4.045,0.037-8.107-0.49-12.035,1.656
		c0.701,1.215,1.287,2.221,1.957,3.375C586.545,409.334,590.545,409.139,594.766,410.623z"/>
	<path fill-rule="evenodd" clip-rule="evenodd" fill="none" stroke="#000000" stroke-width="0.2" stroke-miterlimit="10" d="
		M506.645,416.693c-0.854,2.963-1.652,5.373-2.201,7.84c-0.18,0.818,0.121,1.871,0.518,2.662c2.752,5.602,4.461,11.578,6.258,17.52
		c0.262,0.871,0.344,1.789,0.527,2.748c-5.945,3.309-11.711,6.506-17.955,8.744c-0.992,0.363-2.281,0.67-2.783,1.428
		c-1.527,2.281-2.992,4.646-4.049,7.82c1.787-0.242,3.146-0.225,4.365-0.637c4.207-1.412,8.488-2.715,12.523-4.539
		c5.15-2.332,10.096-5.127,15.117-7.744c0.803-0.422,1.533-0.969,2.377-1.512c-1.971-6.232-3.783-12.301-5.826-18.289
		c-1.086-3.184-2.453-6.287-3.914-9.322C510.504,421.137,509.309,418.844,506.645,416.693z"/>
	<path fill-rule="evenodd" clip-rule="evenodd" fill="none" stroke="#000000" stroke-width="0.2" stroke-miterlimit="10" d="
		M494.605,450.539c4.396-1.893,8.047-3.43,11.293-5.859c-1.045-3.992-2.018-7.666-4.074-11.82
		C499.305,439.021,497.107,444.42,494.605,450.539z"/>
	<path fill-rule="evenodd" clip-rule="evenodd" fill="none" stroke="#000000" stroke-width="0.2" stroke-miterlimit="10" d="
		M580.793,253.299c-7.064-3.653-14.119-7.343-21.166-11.046c-7.291-3.832-14.672-7.445-22.508-10.071
		c-16.273-5.463-32.127-4.809-47.617,2.834c-6.041,2.979-11.969,6.113-17.138,10.646c0.689-0.205,1.42-0.315,2.057-0.632
		c14.585-7.227,29.388-7.094,44.403-1.465c7.229,2.717,13.996,6.361,20.779,9.999c2.256,1.208,4.518,2.409,6.773,3.632
		c5.395,2.927,11.039,5.043,17.221,5.557c1.299,0.107,2.574,0.479,4.307,0.815c-1.209,1.687-2.064,3.051-3.088,4.266
		c-2.994,3.564-5.23,7.551-6.67,11.956c-1.721,5.267-3.326,10.565-4.941,15.86c-2.455,8.014-5.188,15.916-9.449,23.199
		c-6.297,10.756-15.107,18.568-26.828,22.986c-1.002,0.381-1.98,0.826-2.967,1.26c-0.09,0.043-0.123,0.219-0.271,0.498
		c0.338,0.098,0.662,0.299,0.938,0.246c11.105-2.014,21.775-5.305,31.488-11.197c8.895-5.393,15.391-13.047,20.377-22.07
		c3.801-6.885,6.609-14.195,8.949-21.676c2.016-6.449,3.85-12.947,5.906-19.381c1.438-4.479,3.119-8.891,4.842-13.78
		C584.205,254.841,582.451,254.157,580.793,253.299z"/>
	<path fill-rule="evenodd" clip-rule="evenodd" fill="none" stroke="#000000" stroke-width="0.2" stroke-miterlimit="10" d="
		M462.771,236.371c0.53,0.578,1.165,1.057,1.933,1.732c1.434-0.931,2.788-1.766,4.091-2.678c6.348-4.411,13.13-8.005,20.2-11.103
		c13.217-5.794,26.832-6.842,40.844-3.68c9.018,2.037,17.494,5.531,25.686,9.726c6.613,3.382,13.125,6.939,19.656,10.462
		c7.42,4,15.076,7.278,23.623,7.929c0.908,0.069,1.795,0.395,3.049,0.682c-0.623,1.008-1,1.844-1.574,2.505
		c-5.146,5.932-8.43,12.84-10.717,20.268c-1.91,6.194-3.713,12.425-5.621,18.62c-2.506,8.135-5.4,16.121-9.27,23.738
		c-8.205,16.158-20.621,27.49-37.789,33.549c-6.637,2.342-13.371,4.283-20.307,5.51c-1.189,0.213-2.383,0.432-3.533,0.639
		c-0.527,2.645-0.527,2.645,0.221,6.264c0.49-0.15,1.123-0.432,1.789-0.539c12.215-1.959,23.994-5.357,34.98-11.119
		c13.246-6.951,22.715-17.625,29.611-30.742c3.525-6.711,6.275-13.748,8.615-20.951c1.246-3.854,2.387-7.744,3.562-11.621
		c1.061-3.49,2.156-6.969,3.152-10.475c2.176-7.648,5.773-14.525,10.949-20.574c1.756-2.048,3.342-4.246,4.955-6.406
		c0.641-0.856,1.158-1.799,1.902-2.981c-1.049-0.313-1.879-0.67-2.736-0.803c-4.002-0.624-8.01-1.294-12.033-1.749
		c-5.441-0.615-10.553-2.244-15.387-4.766c-8.012-4.178-15.973-8.46-24.006-12.621c-6.84-3.541-13.904-6.57-21.293-8.82
		c-18.207-5.551-35.961-4.647-53.277,3.525c-6.982,3.294-13.685,7.045-20.019,11.446c-1.072,0.741-2.006,1.682-3.163,2.66
		C461.612,234.946,462.146,235.701,462.771,236.371z"/>
	<path fill-rule="evenodd" clip-rule="evenodd" fill="none" stroke="#000000" stroke-width="0.2" stroke-miterlimit="10" d="
		M527.162,256.871c-6.275-3.208-12.811-5.72-19.779-6.977c-10.193-1.838-19.855-0.308-29.006,4.452
		c0.628,3.45,1.269,4.184,4.201,4.223c7.727,0.098,14.908,2.307,21.785,5.589c4.137,1.978,8.191,4.13,12.213,6.324
		c5.035,2.736,10.242,4.826,16.027,5.229c1.182,0.087,2.348,0.404,3.709,0.645c-0.365,1.746-1.357,2.835-2.299,3.91
		c-3.178,3.615-5.324,7.766-6.73,12.348c-1.502,4.9-3.002,9.809-4.656,14.658c-2.053,6.035-4.771,11.758-8.77,16.783
		c-1.348,1.68-2.826,3.256-4.514,5.205c0.207,1.131,0.461,2.521,0.754,4.119c1.266-0.336,2.182-0.512,3.043-0.828
		c11.176-4.088,19.439-11.561,24.77-22.094c2.541-5.033,4.561-10.367,6.42-15.709c2.762-7.891,5.166-15.904,7.713-23.875
		c0.072-0.234-0.021-0.525-0.041-1.031C543.652,265.476,535.438,261.101,527.162,256.871z"/>
	<path fill-rule="evenodd" clip-rule="evenodd" fill="none" stroke="#000000" stroke-width="0.2" stroke-miterlimit="10" d="
		M470.173,200.779c2.901-1.275,4.689-3.761,7.054-5.512c2.602-1.916,5.176-3.882,7.885-5.643c2.596-1.685,5.301-3.211,8.039-4.652
		c2.723-1.44,5.545-2.688,8.285-4.004c-1.145-7.68-10.293-24.01-16.059-28.626c-3.066,1.987-6.187,4.02-9.64,6.258
		C477.912,173.009,475.985,187.105,470.173,200.779z"/>
	<path fill-rule="evenodd" clip-rule="evenodd" fill="none" stroke="#000000" stroke-width="0.2" stroke-miterlimit="10" d="
		M511.535,310.526c1.461-3.035,2.836-6.137,3.914-9.322c2.047-5.986,3.863-12.059,5.828-18.289c-0.842-0.541-1.574-1.09-2.375-1.51
		c-5.023-2.619-9.969-5.408-15.121-7.744c-4.035-1.827-8.311-3.126-12.521-4.537c-1.221-0.41-2.574-0.395-4.371-0.646
		c1.062,3.18,2.529,5.547,4.053,7.828c0.504,0.758,1.799,1.07,2.789,1.425c6.244,2.237,12.006,5.437,17.949,8.747
		c-0.18,0.959-0.266,1.883-0.527,2.746c-1.791,5.939-3.5,11.916-6.262,17.518c-0.393,0.791-0.689,1.848-0.51,2.666
		c0.545,2.467,1.344,4.877,2.199,7.838C509.25,315.094,510.439,312.801,511.535,310.526z"/>
	<path fill-rule="evenodd" clip-rule="evenodd" fill="none" stroke="#000000" stroke-width="0.2" stroke-miterlimit="10" d="
		M469.294,215.386c-1.616,3.01-2.984,5.56-4.618,8.602c1.062-0.207,1.695-0.174,2.154-0.445
		c10.472-6.118,17.271-15.276,21.693-26.375c0.09-0.219-0.025-0.517-0.072-1.165c-4.68,1.048-8.603,3.515-12.435,6.058
		c-6.612,4.382-11.937,9.997-15.962,17.361C463.656,219.104,465.807,216.512,469.294,215.386z"/>
	<path fill-rule="evenodd" clip-rule="evenodd" fill="none" stroke="#000000" stroke-width="0.2" stroke-miterlimit="10" d="
		M559.156,367.399c-6.613-5.418-24.502-7.283-36.107-3.582c0.795,0.512,1.322,1.014,1.939,1.213
		c2.141,0.689,4.311,1.275,7.078,2.076c-1.836,1.238-3.463,1.25-4.9,1.74c-1.344,0.465-2.84,0.602-4.436,1.914
		C534.199,374.551,551.412,372.844,559.156,367.399z"/>
	<path fill-rule="evenodd" clip-rule="evenodd" fill="none" stroke="#000000" stroke-width="0.2" stroke-miterlimit="10" d="
		M501.76,301.079c2.061-4.152,3.027-7.828,4.08-11.822c-3.254-2.426-6.9-3.965-11.301-5.854
		C497.041,289.52,499.246,294.917,501.76,301.079z"/>
	<path fill-rule="evenodd" clip-rule="evenodd" fill="none" stroke="#000000" stroke-width="0.2" stroke-miterlimit="10" d="
		M587.045,478.23c-1.727-4.893-3.408-9.301-4.842-13.787c-2.059-6.43-3.895-12.93-5.91-19.373
		c-2.344-7.488-5.148-14.791-8.953-21.678c-4.986-9.023-11.482-16.68-20.365-22.068c-9.723-5.89-20.395-9.187-31.498-11.201
		c-0.277-0.051-0.6,0.148-0.936,0.248c0.146,0.281,0.182,0.457,0.275,0.5c0.982,0.434,1.957,0.881,2.967,1.262
		c11.723,4.412,20.531,12.224,26.826,22.98c4.264,7.283,6.992,15.186,9.445,23.205c1.617,5.295,3.227,10.592,4.949,15.852
		c1.434,4.406,3.666,8.398,6.664,11.955c1.023,1.223,1.879,2.584,3.096,4.268c-1.738,0.34-3.012,0.711-4.314,0.818
		c-6.176,0.516-11.824,2.631-17.221,5.557c-2.254,1.221-4.514,2.428-6.777,3.639c-6.779,3.631-13.543,7.279-20.773,9.988
		c-15.014,5.633-29.822,5.766-44.405-1.461c-0.634-0.318-1.371-0.424-2.058-0.633c5.173,4.539,11.1,7.664,17.141,10.646
		c15.484,7.646,31.342,8.299,47.611,2.84c7.84-2.633,15.221-6.242,22.516-10.08c7.043-3.701,14.094-7.391,21.166-11.045
		C583.312,479.807,585.053,479.123,587.045,478.23z"/>
</g>
<g>
	<path fill-rule="evenodd" clip-rule="evenodd" fill="none" stroke="#000000" stroke-width="0.2" stroke-miterlimit="10" d="
		M217.367,368.01c0.577-55.68,45.491-100.063,100.665-99.492c54.933,0.574,99.307,45.762,98.76,100.574
		c-0.552,55.017-45.688,99.177-100.529,98.755C262.512,467.434,217.554,423.941,217.367,368.01z M348.27,290.909
		c-4.6,3.174-13.091,3.779-18.436,0.885c-3.649-1.979-6.31-4.816-7.137-9.037c-0.648-3.315,1.382-6.284,4.601-6.829
		c3.087-0.525,5.931,1.603,6.399,4.79c0.469,3.166-1.582,5.449-5.811,6.463c3.55,2.932,9.102,1.299,11.527-4.951
		c6.389,0.021,10.724-2.086,12.498-6.326c-6.337,1.719-11.812-0.189-17.216-3.127c-4.986-2.712-10.028-2.797-14.091,0.886
		c-1.24-1.251-2.388-3.305-3.486-3.275c-1.188,0.028-2.328,1.995-3.627,3.251c-2.393-2.268-5.888-3.369-9.708-2.369
		c-2.583,0.682-4.941,2.152-7.493,2.998c-2.788,0.931-5.648,1.754-8.541,2.217c-1.778,0.287-3.671-0.187-6.003-0.351
		c3.615,4.626,7.85,6.626,13.185,6.036c2.348,6.004,6.727,7.936,10.764,5.367c-1.413-1.078-3.313-2.002-4.44-3.51
		c-1.57-2.107-1.034-4.51,0.693-6.463c1.621-1.832,4.538-2.202,6.711-1.012c2.34,1.285,3.429,3.951,2.687,6.748
		c-2.77,10.416-16.596,13.422-26.016,7.02c2.471-0.291,5.457,0.91,6.711-2.123c0.484-1.18,0.076-2.732,0.076-4.109
		c-0.258,0.01-0.519,0.021-0.779,0.027c-1.494,3.658-4.263,4.725-9.252,3.574c4.347-2.234,4.759-3.164,2.611-5.883
		c-1.613,3.977-3.272,4.734-7.733,3.57c-1.047-0.277-2.095-0.559-3.155-0.756c-5.335-0.984-10.031,0.383-14.038,3.998
		c-3.912,3.525-5.557,8.221-6.068,13.242c-0.227,2.246-1.062,2.732-3.08,3.066c-2.811,0.465-5.698,1.158-8.252,2.379
		c-7.689,3.689-10.678,11.506-8.293,20.416c0.43,1.604,0.797,3.551,0.26,4.998c-0.498,1.338-2.241,2.217-3.746,3.576
		c1.005,0.176,2.438,0.873,3.029,0.436c1.296-0.961,2.162-2.5,3.03-3.584c1.12,4.938,0.097,7.693-3.779,9.75
		c1.499,0.266,3.302,0.797,4.47,0.162c2.73-1.49,1.873-4.389,1.913-6.92c2.712,5.258,4.491,10.66,2.521,16.553
		c-1.697,5.092-4.789,8.912-10.416,9.895c-3.208,0.559-6.138-1.562-6.576-4.58c-0.458-3.16,1.631-5.971,4.791-6.443
		c3.114-0.463,5.562,1.797,6.355,5.867c3.129-4.098,1.166-8.91-4.736-11.326c0.305-5.33-1.486-9.746-6.157-13.125
		c0.615,8.967,0.538,9.951-2.288,15.199c-3.129,5.812-4.735,11.543-0.185,16.643c-1.322,1.107-2.462,2.066-3.604,3.023
		c1.128,1.311,2.254,2.617,3.474,4.045c-3.679,4.162-3.48,9.26-0.688,14.154c3.087,5.42,4.509,10.949,2.973,17.646
		c4.921-3.6,6.809-7.968,6.469-13.353c5.904-2.441,7.892-7.195,4.759-11.258c-1.039,5.123-5.343,7.408-8.957,4.758
		c-2.104-1.541-2.874-4.434-1.804-6.781c1.209-2.664,3.925-3.895,7.041-3.074c5.485,1.455,8.295,5.523,9.867,10.586
		c1.424,4.602-0.3,12.767-3.072,15.607c0.473-4.074,0.143-6.103-1.708-6.798c-1.275-0.475-2.872-0.092-4.326-0.092
		c3.793,2.363,4.836,5.263,3.547,10.353c-1.643-4.535-3.364-5.383-5.832-2.883c3.944,1.246,4.761,3.195,3.393,8.1
		c-2.871,10.264,1.906,18.914,12.149,21.836c2.308,0.656,4.713,0.988,7.137,1.486c0.081,0.789,0.144,1.5,0.229,2.209
		c1.743,14.324,12.269,20.422,23.72,16.572c3.724-1.25,5.417-0.248,7.487,3.486c2.013-2.783,1.004-4.422-3.422-5.729
		c1.934-0.15,3.999-0.572,5.765-0.029c1.711,0.531,3.114,2.043,4.916,3.311c0-1.137,0.487-2.807-0.093-3.91
		c-1.558-2.938-4.507-2.061-7.154-1.941c4.407-2.637,9.18-3.955,14.208-3.307c6.194,0.791,11.351,5.471,12.414,10.641
		c0.663,3.23-1.348,6.451-4.39,7.043c-3.148,0.6-6.422-1.635-6.543-4.883c-0.05-1.461,0.629-3.252,1.592-4.363
		c0.925-1.066,2.643-1.447,3.964-2.105c-4.187-2.797-7.991-1.195-11.301,4.93c-5.35-0.346-9.596,1.656-13.113,6.385
		c6.066-1.01,11.256-0.566,16.225,2.402c5.381,3.219,10.975,4.15,15.7-0.127c1.192,1.303,2.254,2.461,3.321,3.621
		c1.209-1.145,2.419-2.285,3.746-3.543c4.906,3.426,8.501,3.947,14.535,0.564c5.375-3.02,10.838-4.162,17.389-2.893
		c-3.637-4.807-7.995-6.744-13.357-6.424c-2.533-5.945-7.374-7.91-11.285-4.674c0.158,0.066,0.313,0.168,0.475,0.189
		c3.564,0.551,5.793,3.154,5.297,6.197c-0.523,3.209-3.684,5.393-6.768,4.678c-3.191-0.736-4.938-3.877-4.049-7.396
		c2.525-9.979,16.213-13.855,26.451-6.68c-2.678-0.492-5.469-1.154-7.006,1.467c-0.682,1.16-0.113,3.047-0.113,4.607
		c2.07-3.93,5.165-5.076,10.42-3.656c-4.527,1.412-5.475,3.178-3.425,5.393c1.192-1.158,2.202-2.822,3.608-3.301
		c1.471-0.494,3.38-0.051,5.003,0.365c3.773,0.957,7.52,1.232,11.189-0.18c7.602-2.92,10.538-9.182,11.434-16.682
		c0.224-1.891,0.745-2.533,2.698-2.752c14.918-1.66,20.793-13.258,16.604-24.104c-1.345-3.488,0-5.391,4.203-7.242
		c-1.274-0.396-2.529-1.176-2.974-0.848c-1.405,1.014-2.505,2.453-3.625,3.625c-0.358-3.537-0.837-7.4,3.946-9.314
		c-4.573-2.26-5.982-0.803-6.403,6.283c-4.648-7.33-4.614-16.804,1.237-22.701c2.171-2.186,4.707-3.721,7.898-3.602
		c2.219,0.092,4.008,1.115,4.893,3.268c0.852,2.074,0.711,4.049-0.796,5.828c-1.589,1.879-3.646,2.328-5.89,1.711
		c-2.68-0.742-3.684-2.959-4.068-5.758c-2.867,5.016-1.162,8.832,4.869,11.627c-0.469,5.383,1.543,9.593,6.395,13.271
		c-1.426-6.307-0.451-11.595,2.485-16.65c3.081-5.297,3.753-10.701-0.204-15.209c1.266-1.361,2.375-2.551,3.48-3.746
		c-1.178-1.07-2.363-2.143-3.338-3.027c0.699-2.01,1.854-4.357,2.305-6.836c0.668-3.652-1.307-6.77-2.691-10.014
		c-1.186-2.77-2.067-5.732-2.608-8.701c-0.362-1.998,0.104-4.143,0.214-6.582c-4.515,3.533-6.52,7.777-6.052,13.107
		c-6.037,2.689-7.843,6.902-4.835,11.469c0.162-0.766,0.238-1.447,0.455-2.076c0.931-2.727,3.805-4.434,6.386-3.814
		c3.032,0.721,4.8,3.443,4.276,6.566c-0.455,2.695-3.07,4.877-5.893,4.426c-1.896-0.309-3.904-0.996-5.465-2.084
		c-7.695-5.375-8.105-16.412-3.006-24.244c0.238,7.164,1.958,8.852,6.372,6.256c-3.829-1.602-4.925-4.424-3.694-9.516
		c1.927,4.4,3.443,5.053,5.941,2.562c-3.478-0.822-4.68-2.662-4.001-6.227c0.183-0.969,0.558-1.9,0.792-2.863
		c1.617-6.635,0.062-12.355-5.1-16.916c-3.37-2.973-7.471-4.285-11.875-4.756c-1.627-0.176-2.768-0.432-2.936-2.605
		c-0.992-12.725-10.996-21.05-23.702-16.791c-3.979,1.34-5.917,0.146-7.356-4.259c-0.479,1.321-1.293,2.481-1,2.952
		c0.913,1.451,2.247,2.641,3.273,3.768c-5.124,0.744-7.318-0.152-9.231-3.887c-0.286,1.48-0.879,3.752-0.169,4.291
		C344.021,289.627,346.375,290.151,348.27,290.909z M403.923,382.315c0.985-1.346,2.075-2.207,1.954-2.832
		c-0.169-0.873-1.237-1.572-1.92-2.348c-0.736,0.766-1.854,1.432-2.074,2.316C401.742,380.034,402.889,380.942,403.923,382.315z
		 M309.107,454.824c-1.6-0.861-2.531-1.773-3.379-1.697c-0.653,0.059-1.709,1.391-1.651,2.078c0.064,0.723,1.287,1.924,1.918,1.873
		C306.862,457.008,307.649,455.955,309.107,454.824z M308.997,281.224c-1.403-0.895-2.261-1.866-3.016-1.796
		c-0.735,0.069-2.031,1.418-1.9,1.853c0.264,0.878,1.246,1.964,2.08,2.106C306.802,283.495,307.668,282.297,308.997,281.224z
		 M233.36,379.233c-1.502-1.018-2.434-2.109-3.07-1.961c-0.853,0.205-1.48,1.365-2.205,2.119c0.698,0.658,1.387,1.84,2.093,1.848
		C231.012,381.249,231.856,380.247,233.36,379.233z M331.202,281.355c-1.389-0.968-2.206-1.988-2.926-1.919
		c-0.796,0.07-1.492,1.141-2.233,1.774c0.728,0.776,1.348,1.948,2.223,2.192C328.845,283.563,329.793,282.391,331.202,281.355z
		 M406.952,356.952c-1.437-0.951-2.385-2.029-2.981-1.865c-0.867,0.244-1.492,1.385-2.223,2.143
		c0.804,0.645,1.555,1.686,2.438,1.807C404.815,359.133,405.629,358.012,406.952,356.952z M331.126,455.197
		c-1.24-1.027-2.04-2.178-2.677-2.086c-0.848,0.115-1.564,1.191-2.337,1.85c0.71,0.758,1.31,1.916,2.157,2.143
		C328.859,457.262,329.793,456.141,331.126,455.197z M233.369,356.959c-1.584-0.949-2.495-1.926-3.324-1.859
		c-0.7,0.051-1.305,1.316-1.952,2.047c0.774,0.674,1.485,1.744,2.344,1.883C231.088,359.133,231.929,358.036,233.369,356.959z"/>
	<g>
		<path fill="none" d="M272.166,302.5c0.824,0.012,2.247-1.494,2.333-2.434c0.082-0.881-1.234-1.895-2.513-3.635
			c-1.222,1.824-2.531,2.926-2.382,3.779C269.762,301.153,271.244,302.491,272.166,302.5z"/>
		<path fill="none" d="M249.128,325.84c0.808-0.916,2.183-1.779,2.26-2.754c0.07-0.9-1.248-1.91-1.955-2.869
			c-0.382,0.01-0.766,0.029-1.151,0.043c-0.594,1.023-1.781,2.15-1.626,3.045C246.826,324.262,248.249,325.006,249.128,325.84z"/>
		<path fill="none" d="M382.816,413.211c0.023,0.895,1.423,2.322,2.357,2.438c0.867,0.107,1.916-1.205,2.887-1.889
			c0-0.383,0.004-0.766,0.004-1.148c-0.975-0.648-2.037-1.898-2.904-1.783C384.226,410.949,382.781,412.393,382.816,413.211z"/>
		<path fill="none" d="M384.563,320.223c-0.642,0.992-1.886,2.064-1.769,2.955c0.128,0.982,1.514,1.793,2.351,2.68
			c0.838-0.881,2.227-1.693,2.354-2.666c0.113-0.896-1.135-1.965-1.779-2.959C385.336,320.227,384.949,320.223,384.563,320.223z"/>
		<path fill="none" d="M249.125,415.645c0.877,0.078,1.883-1.242,2.833-1.945c-0.018-0.391-0.034-0.773-0.047-1.162
			c-1.002-0.625-2.097-1.844-2.98-1.705c-0.915,0.139-2.298,1.643-2.244,2.467C246.745,414.188,248.185,415.557,249.125,415.645z"/>
		<path fill="none" d="M361.951,297.836c-0.865,0.035-2.265,1.535-2.33,2.465c-0.059,0.893,1.303,1.873,2.633,3.559
			c1.154-1.807,2.423-2.924,2.274-3.793C364.363,299.141,362.836,297.805,361.951,297.836z"/>
		<path fill="none" d="M316.959,299.084c-38.339,0.125-69.077,31.141-68.903,69.523c0.17,37.994,31.016,68.738,68.868,68.652
			c38.658-0.092,69.308-30.846,69.201-69.447C386.024,329.875,354.91,298.961,316.959,299.084z"/>
		<path fill="none" d="M274.501,436.35c-0.108-0.965-1.524-2.443-2.396-2.463c-0.87-0.02-2.369,1.416-2.489,2.359
			c-0.117,0.891,1.197,1.965,2.407,3.729C273.271,438.266,274.599,437.227,274.501,436.35z"/>
		<path fill="none" d="M359.601,436.391c0.147,0.93,1.709,2.285,2.604,2.256c0.869-0.031,2.292-1.58,2.334-2.506
			c0.041-0.918-1.341-1.904-2.654-3.566C360.741,434.361,359.463,435.492,359.601,436.391z"/>
		<path fill-rule="evenodd" clip-rule="evenodd" fill="none" stroke="#000000" stroke-width="0.2" stroke-miterlimit="10" d="
			M388.533,406.396c-2.971-0.398-5.555,0.623-7.443,2.998c-1.806,2.271-1.706,5.598,0.082,7.496c2.23,2.355,4.884,2.314,8.378-0.135
			c-0.548,3.193-2.505,5.291-5.431,5.826c-3.412,0.621-6.327-0.691-8.088-3.629c-3.736-6.227-0.559-14.293,6.733-16.912
			c1.675-0.604,3.46-0.893,5.203-1.328c-5.069-14.492-1.171-27.312,12.664-32.658c-6.957-2.023-11.237-6.703-13.618-13.248
			c-2.375-6.533-0.852-12.934,1.075-19.271c-5.528-0.811-8.071-1.947-10.587-4.674c-4.038-4.365-4.052-11.447,0.018-15.189
			c2.354-2.164,5.083-2.635,8.025-1.363c2.34,1.016,3.754,2.758,4.16,5.625c-3.422-2.549-5.861-2.713-8.112-0.748
			c-1.871,1.637-2.412,4.666-1.079,6.941c1.724,2.943,4.442,4.166,7.775,3.883c3.332-0.281,5.812-1.881,6.922-5.17
			c1.996-5.898-1.668-12.125-8.607-13.906c-3.591-0.92-7.402-0.939-10.586-1.312c-0.648-3.963-0.992-8.168-2.092-12.17
			c-1.062-3.842-3.897-6.465-7.84-7.586c-3.998-1.141-8.053,0.451-9.859,3.744c-1.83,3.352-1.154,7.705,1.592,10.203
			c2.296,2.09,5.82,2.24,7.906,0.336c2.191-2,2.332-4.812,0.385-7.562c-0.161-0.236-0.337-0.465-0.644-0.881
			c3.907,0.814,5.913,3.086,6.183,6.721c0.251,3.332-2.24,6.623-5.928,7.834c-6.927,2.279-14.18-2.479-15.545-10.199
			c-0.162-0.922-0.303-1.85-0.473-2.906c-6.615,2.143-12.943,3.465-19.41,1.074c-6.448-2.393-11.027-6.711-13.138-13.711
			c-5.653,13.639-14.744,17.141-32.384,12.883c-0.85,2.449-1.383,5.057-2.609,7.293c-3.454,6.283-11.435,8.072-16.705,3.965
			c-2.507-1.955-3.514-5.207-2.56-8.266c0.818-2.635,2.969-4.359,5.591-4.488c-2.418,3.379-2.441,6.084-0.063,8.221
			c2.199,1.984,5.87,1.861,8.088-0.453c2.461-2.568,3.126-5.648,1.862-9.012c-1.206-3.213-3.642-4.846-7.027-5.047
			c-5.105-0.311-9.729,2.715-11.174,8.039c-1.064,3.938-1.245,8.109-1.812,12.131c-2.647,0.148-5.441,0.164-8.202,0.49
			c-5.951,0.697-10.47,4.48-11.599,9.496c-0.816,3.637,0.709,7.41,3.707,9.164c2.986,1.746,7.387,1.375,9.885-0.916
			c1.775-1.629,2.967-3.783,1.92-6.023c-0.746-1.605-2.351-3.434-3.926-3.865c-1.671-0.455-3.763,0.623-5.627,1.02
			c0.552-2.52,2.288-4.418,5.271-5.213c2.932-0.783,5.346,0.068,7.325,2.266c3.368,3.746,3.384,9.914,0.108,13.975
			c-2.852,3.516-6.652,5.066-11.216,5.244c2.036,6.574,3.481,12.973,1.072,19.543c-2.387,6.525-6.731,11.076-13.667,13.152
			c11.899,4.078,18.546,16.061,12.774,32.691c1.064,0.211,2.117,0.412,3.167,0.621c6.744,1.338,11.095,7.25,10.162,13.803
			c-0.607,4.252-3.809,7.363-7.662,7.445c-3.952,0.086-6.583-2.072-7.284-6.068c2.172,1.848,4.452,2.793,7.147,1.242
			c2.031-1.178,2.888-3.027,2.626-5.24c-0.367-3.109-2.32-4.982-5.26-5.883c-6.301-1.924-12.034,3.453-10.504,9.895
			c1.252,5.277,4.964,8.127,9.974,9.16c3.311,0.678,6.771,0.658,10.399,0.969c0,2.506-0.27,5.133,0.059,7.684
			c0.627,4.824,2.467,9.08,7.153,11.432c3.768,1.891,8.224,1.203,10.732-1.588c2.39-2.66,2.738-6.988,0.803-10.092
			c-1.98-3.174-5.873-4.234-8.63-2.352c-2.902,1.986-3.149,5.158-0.661,8.48c0.113,0.148,0.186,0.326,0.381,0.666
			c-4.292-1.377-6.107-3.516-6.227-7.098c-0.108-3.348,1.958-6.162,5.528-7.539c6.169-2.367,12.935,1.084,15.267,7.869
			c0.548,1.594,0.824,3.279,1.226,4.934c15.25-5.357,27.499-0.531,32.638,12.498c2.121-6.822,6.715-11.025,13.114-13.449
			c6.555-2.484,12.93-0.889,18.739,0.816c1.41-3.16,2.268-6.385,4.091-8.904c4.08-5.654,12.712-6.016,16.782-1.064
			c1.892,2.316,2.174,4.898,1.061,7.627c-0.951,2.342-2.884,3.709-5.42,3.891c0.297-0.391,0.604-0.721,0.834-1.102
			c1.52-2.449,1.393-4.809-0.345-6.736c-1.743-1.934-4.177-2.377-6.668-1.217c-3.356,1.566-5.042,6.062-3.746,10.018
			c1.247,3.807,5.493,6.191,9.56,5.283c5.014-1.129,8.088-4.463,9.204-9.273c0.82-3.535,0.854-7.244,1.265-11.051
			c0.985,0,2.258,0.15,3.477-0.033c3.188-0.473,6.531-0.623,9.484-1.75c5.778-2.211,8.473-8.271,6.495-13.4
			C393.981,408.275,391.562,406.807,388.533,406.396z M388.061,413.76c-0.971,0.684-2.02,1.996-2.887,1.889
			c-0.935-0.115-2.334-1.543-2.357-2.438c-0.035-0.818,1.409-2.262,2.344-2.383c0.867-0.115,1.93,1.135,2.904,1.783
			C388.064,412.994,388.061,413.377,388.061,413.76z M385.146,325.858c-0.837-0.887-2.223-1.697-2.351-2.68
			c-0.117-0.891,1.127-1.963,1.769-2.955c0.386,0,0.772,0.004,1.157,0.01c0.645,0.994,1.893,2.062,1.779,2.959
			C387.372,324.165,385.983,324.977,385.146,325.858z M362.254,303.86c-1.33-1.686-2.691-2.666-2.633-3.559
			c0.065-0.93,1.465-2.43,2.33-2.465c0.885-0.031,2.412,1.305,2.577,2.23C364.677,300.936,363.408,302.053,362.254,303.86z
			 M271.986,296.432c1.279,1.74,2.595,2.754,2.513,3.635c-0.086,0.939-1.509,2.445-2.333,2.434c-0.922-0.01-2.404-1.348-2.562-2.289
			C269.455,299.358,270.764,298.256,271.986,296.432z M248.283,320.26c0.385-0.014,0.769-0.033,1.151-0.043
			c0.707,0.959,2.024,1.969,1.955,2.869c-0.077,0.975-1.452,1.838-2.26,2.754c-0.879-0.834-2.303-1.578-2.472-2.535
			C246.502,322.411,247.689,321.284,248.283,320.26z M248.93,410.832c0.883-0.139,1.978,1.08,2.98,1.705
			c0.014,0.389,0.03,0.771,0.047,1.162c-0.95,0.703-1.956,2.023-2.833,1.945c-0.94-0.088-2.38-1.457-2.439-2.346
			C246.632,412.475,248.015,410.971,248.93,410.832z M272.105,433.887c0.873,0.02,2.288,1.498,2.396,2.463
			c0.097,0.877-1.231,1.916-2.479,3.625c-1.209-1.764-2.524-2.838-2.407-3.729C269.736,435.303,271.235,433.867,272.105,433.887z
			 M362.205,438.646c-0.896,0.029-2.457-1.326-2.604-2.256c-0.138-0.898,1.141-2.029,2.284-3.816
			c1.313,1.662,2.695,2.648,2.654,3.566C364.497,437.066,363.074,438.615,362.205,438.646z M316.924,437.26
			c-37.852,0.086-68.697-30.658-68.868-68.652c-0.174-38.383,30.564-69.398,68.903-69.523c37.951-0.123,69.065,30.791,69.166,68.729
			C386.231,406.414,355.582,437.168,316.924,437.26z"/>
	</g>
</g>
<path fill-rule="evenodd" clip-rule="evenodd" fill="none" stroke="#000000" stroke-width="0.2" stroke-miterlimit="10" d="
	M286.172,481.887c-6.591,6.781-13.173,6.115-20.664,1.043c-7.604-5.148-15.855-9.363-23.967-13.721
	c-6.995-3.746-10.778-8.814-8.061-17.885c-10.25,2.734-15.385-2.428-19.339-10.787c-3.619-7.654-8.246-14.867-12.853-22.006
	c-4.5-6.965-5.265-13.373,1.547-19.961c-9.663-2.589-11.956-9.248-11.382-18.207c0.558-8.762,0.482-17.605-0.007-26.373
	c-0.477-8.686,2.236-14.637,11.658-16.559c-6.961-6.512-6.61-12.955-1.738-20.281c4.953-7.455,9.427-15.293,13.433-23.301
	c3.883-7.771,8.893-12.402,18.673-9.41c-2.914-9.713,1.591-14.775,9.412-18.658c8.011-3.983,15.807-8.521,23.267-13.459
	c7.291-4.826,13.759-5.319,20.282,1.658c1.959-9.313,7.905-12.015,16.492-11.622c9.429,0.431,18.907,0.438,28.333,0
	c8.121-0.371,13.58,2.469,16.137,11.287c7.699-7.683,14.818-5.247,22.357,0.061c6.169,4.332,12.823,8.136,19.674,11.291
	c8.373,3.854,13.787,8.908,10.824,19.393c9.414-2.551,14.553,1.229,18.301,8.641c3.957,7.811,8.188,15.555,13.078,22.791
	c5.083,7.51,6.541,14.348-0.576,21.293c9.602,3.658,11.725,7.514,11.228,17.748c-0.413,8.525-0.468,17.094-0.089,25.629
	c0.482,10.613-1.037,13.668-10.9,18.083c6.441,6.631,5.714,13.291,0.758,20.551c-4.624,6.785-8.952,13.893-12.405,21.33
	c-3.749,8.088-8.595,13.248-18.915,11.064c2.067,10.287-3.029,15.406-11.382,19.227c-7.485,3.426-14.573,7.867-21.444,12.439
	c-7.116,4.746-13.615,5.453-20.404-1.234c-2.691,9.732-9.146,12.096-18.291,11.281c-8.43-0.744-16.99-0.188-25.482,0.078
	C293.345,493.633,289.913,491.572,286.172,481.887z M316.984,257.224c-55.932-0.448-110.792,42.634-110.919,110.39
	c-0.126,68.326,55.244,111.355,111.058,110.98c60.775-0.41,110.709-49.791,110.753-110.046
	C427.928,307.038,378.268,257.183,316.984,257.224z"/>
<g>
	<polygon fill="none" stroke="#000000" stroke-width="0.2" stroke-miterlimit="10" points="284.694,423.418 252.529,367.708 
		284.694,311.991 349.025,311.991 381.189,367.708 349.025,423.418 	"/>
	<g>
		<polygon fill="none" stroke="#000000" stroke-width="0.2" stroke-miterlimit="10" points="316.889,421.609 301.042,394.627 
			317.083,367.756 348.967,367.874 364.729,395.02 332.842,394.907 316.993,367.926 333.035,341.049 364.91,341.053 
			348.967,367.874 317.083,367.756 301.236,340.77 317.268,313.903 333.121,340.887 317.083,367.756 285.192,367.641 
			269.348,340.448 301.319,340.606 317.166,367.59 301.128,394.467 269.25,394.348 285.192,367.641 317.083,367.756 
			332.936,394.735 		"/>
	</g>
</g>
</svg>
