<?xml version="1.0" encoding="utf-8"?>
<!-- Generator: Adobe Illustrator 16.0.0, SVG Export Plug-In . SVG Version: 6.00 Build 0)  -->
<!DOCTYPE svg PUBLIC "-//W3C//DTD SVG 1.1//EN" "http://www.w3.org/Graphics/SVG/1.1/DTD/svg11.dtd">
<svg version="1.1" id="Layer_1" xmlns="http://www.w3.org/2000/svg" xmlns:xlink="http://www.w3.org/1999/xlink" x="0px" y="0px"
	 width="612px" height="792px" viewBox="0 0 612 792" enable-background="new 0 0 612 792" xml:space="preserve">
<path fill-rule="evenodd" clip-rule="evenodd" fill="#41130C" d="M374.287,395.453c0.198,37.305-30.801,68.186-68.58,67.663
	c-36.369-0.502-66.828-30.459-66.688-68.081c0.136-37.083,30.606-67.223,68.173-67.196
	C344.041,327.864,374.287,358.346,374.287,395.453z M322.438,455.164c4.457,3.076,6.479,3.05,10.99,0.145
	c2.72-1.751,5.508-3.391,8.309-5.01c1.568-0.907,3.276-1.587,4.827-2.527c2.573-1.558,3.974-3.826,3.739-6.941
	c-0.04-0.535-0.006-1.075-0.006-1.689c4.165,0.812,7.019-0.809,8.906-4.332c0.429-0.801,0.764-1.654,1.221-2.438
	c2.072-3.527,4.129-7.062,6.271-10.548c2.417-3.93,2.379-6.325-0.314-10.007c-0.053-0.071-0.055-0.184-0.104-0.348
	c0.479-0.248,0.957-0.523,1.454-0.757c2.846-1.335,4.103-3.621,4.025-6.701c-0.055-2.124-0.194-4.243-0.186-6.365
	c0.018-3.74,0.165-7.479,0.176-11.22c0.007-2.921-1.429-4.98-4.068-6.208c-0.523-0.244-1.045-0.49-1.406-0.658
	c0.686-1.287,1.459-2.38,1.874-3.595c0.85-2.472-0.177-4.651-1.407-6.738c-2.131-3.612-4.275-7.214-6.393-10.833
	c-0.688-1.176-1.23-2.443-1.979-3.575c-1.708-2.572-4.128-3.612-7.196-3.085c-0.369,0.063-0.753,0.056-1.159,0.083
	c0.784-4.745-0.49-7.084-4.687-9.369c-4.121-2.243-8.198-4.577-12.209-7.009c-4.27-2.59-6.635-2.598-10.685,0.311
	c-0.087-0.12-0.208-0.229-0.254-0.362c-1.306-3.878-4.108-5.33-8.062-5.249c-5.055,0.106-10.111,0.033-15.166,0.024
	c-4.984-0.007-6.616,1.088-8.47,5.834c-3.206-3.327-6.624-3.05-10.296-0.811c-4.182,2.55-8.447,4.967-12.727,7.352
	c-4.162,2.319-5.232,4.267-4.681,8.96c0.009,0.082-0.067,0.172-0.161,0.397c-5.045-1.401-7.537,1.543-9.627,5.577
	c-2.09,4.031-4.467,7.918-6.84,11.795c-2.396,3.919-2.298,6.55,0.625,10.054c0.053,0.062,0.033,0.186,0.045,0.279
	c-4.602,1.758-5.642,3.301-5.655,8.261c-0.012,5.103-0.079,10.204-0.077,15.31c0,3.263,0.826,6.127,4.093,7.661
	c0.526,0.249,1.067,0.464,1.628,0.706c-3.527,4.176-2.5,7.212-0.365,10.711c2.415,3.964,4.734,7.994,6.961,12.071
	c2.257,4.13,4.62,5.466,9.085,4.823c0.074-0.012,0.163,0.08,0.37,0.19c-1.402,5.054,1.59,7.554,5.592,9.657
	c4.019,2.116,7.893,4.508,11.811,6.812c2.35,1.382,4.76,2.333,7.451,1.095c0.971-0.445,1.832-1.141,2.892-1.816
	c1.04,3.586,3.216,5.691,6.981,5.764c0.959,0.018,1.922-0.016,2.883-0.014c4.244,0,8.492-0.133,12.727,0.043
	C318.162,461.078,320.423,459.816,322.438,455.164z"/>
<g>
	<path fill-rule="evenodd" clip-rule="evenodd" fill="#41130C" d="M306.344,337.963c32.2-0.071,58.365,26.329,57.811,58.843
		c-0.537,31.432-27.116,56.547-58.438,56.27c-28.748-0.258-57.074-22.593-56.925-58.11
		C248.926,363.217,274.33,337.963,306.344,337.963z M297.748,349.133c-0.357-0.551-0.684-0.992-0.947-1.465
		c-0.781-1.404-0.612-2.927,0.422-4.072c1.156-1.283,2.916-1.598,4.418-0.794c1.638,0.877,2.297,2.696,1.71,4.725
		c-0.909,3.145-4.397,5.736-7.897,5.92c-3.658,0.192-6.848-1.001-9.752-3.14c-5.854-4.309-13.209-1.857-14.533,5.264
		c-0.608,3.272-2.006,4.192-4.902,4.868c-7.01,1.636-9.296,7.804-5.482,13.915c1.012,1.621,2.038,3.282,2.708,5.058
		c1.838,4.88,0.515,9.646-3.198,12.23c-1.301,0.903-2.716,1.333-4.303,0.997c-1.779-0.377-3.051-2.03-2.887-3.734
		c0.184-1.923,1.762-3.525,3.648-3.301c1.217,0.144,2.365,0.872,3.516,1.327c-0.004-2.101-1.536-3.101-3.444-3.677
		c-0.235-4.009-0.499-4.747-1.981-5.787c-0.273,1.432-0.414,2.945-0.871,4.354c-0.479,1.478-1.322,2.831-1.896,4.283
		c-0.931,2.363-1.211,4.729,0.602,6.853c1.702,1.996,4.163,2.519,6.917,1.542c4.312-1.528,7.586-6.775,6.977-11.33
		c-0.299-2.238-0.77-4.451-1.172-6.729c1.084-0.211,2.097-0.313,3.047-0.611c4.064-1.27,5.917-5.997,3.663-9.24
		c-1.458-2.098-4.087-2.311-5.593-0.365c0.346,0.035,0.639,0.066,0.932,0.091c1.576,0.134,2.846,0.721,3.389,2.337
		c0.514,1.52-0.021,3.185-1.374,4.36c-1.613,1.403-4.081,1.632-5.948,0.55c-2.004-1.161-3.008-3.43-2.465-5.714
		c0.746-3.14,2.819-4.969,5.908-5.604c1.812-0.373,3.671-0.518,5.598-0.776c0-0.926-0.023-1.781,0-2.634
		c0.134-4.562,2.667-7.979,6.402-8.651c2.308-0.417,4.639,0.814,5.609,2.959c0.959,2.121,0.352,4.772-1.449,6.191
		c-1.16,0.912-2.462,1.176-3.85,0.613c-1.415-0.575-2.066-1.706-2.159-3.197c-0.024-0.362-0.069-0.723-0.115-1.202
		c-1.429,1.613-1.663,3.292-0.758,4.671c1.233,1.876,3.856,2.437,7.321,1.477c-0.309,0.58-0.543,1.056-0.806,1.515
		c-5.962,10.333-11.913,20.674-17.915,30.985c-0.527,0.907-0.548,1.532-0.013,2.454c6.003,10.308,11.956,20.647,17.917,30.983
		c0.278,0.484,0.518,0.991,0.876,1.685c-3.581-1.229-6.386-0.505-7.538,1.754c-0.823,1.616-0.499,3.092,0.954,4.1
		c0.025-0.332,0.055-0.627,0.072-0.922c0.091-1.613,0.802-2.809,2.372-3.361c1.481-0.521,3.279,0.068,4.363,1.373
		c1.328,1.598,1.541,4.176,0.492,5.994c-1.077,1.869-3.276,2.862-5.441,2.455c-3.295-0.621-5.596-3.218-6.072-6.894
		c-0.193-1.493-0.322-2.995-0.482-4.542c-1.396-0.091-2.711-0.099-4.002-0.273c-3.463-0.469-6.137-2.047-7.215-5.584
		c-0.739-2.422,0.345-4.96,2.488-6.102c2.168-1.152,4.975-0.634,6.477,1.234c0.918,1.141,1.236,2.439,0.703,3.84
		c-0.497,1.307-1.53,1.952-2.896,2.119c-0.441,0.055-0.876,0.143-1.37,0.223c1.747,1.984,4.455,1.602,5.815-0.725
		c1.646-2.811,0.589-6.518-2.383-8.066c-1.065-0.555-2.233-0.967-3.396-1.271c-1.059-0.281-1.191-0.796-0.96-1.76
		c0.401-1.669,0.755-3.354,0.995-5.055c0.646-4.54-2.723-9.964-7.047-11.453c-2.504-0.86-4.8-0.613-6.701,1.38
		c-1.89,1.983-1.764,4.248-0.914,6.646c1.092,3.096,2.098,6.223,3.117,9.257c1.084-1.12,1.846-2.714,1.693-4.633
		c-0.083-1.008,0.229-1.513,1.195-1.911c1.844-0.756,2.254-1.551,1.945-3.246c-0.266,0.217-0.484,0.415-0.72,0.586
		c-1.655,1.212-3.336,1.225-4.721,0.045c-1.354-1.159-1.696-2.814-0.905-4.381c0.788-1.555,2.479-2.277,4.383-1.872
		c3.367,0.723,6.285,4.53,6.379,8.331c0.094,3.777-1.528,6.949-3.557,9.969c-3.758,5.598-1.418,12.041,5.08,13.895
		c1.499,0.427,3.039,0.713,4.633,1.08c0.082,0.747,0.151,1.447,0.238,2.145c1.108,9.064,9.989,11.487,15.469,6.654
		c2.436-2.148,5.537-2.902,8.744-2.955c4.137-0.074,8.323,3.402,8.662,7.064c0.156,1.691-0.785,3.264-2.324,3.885
		c-1.425,0.574-3.154,0.121-4.119-1.074c-1.095-1.357-1.131-2.783-0.105-4.336c0.293-0.445,0.595-0.885,0.986-1.464
		c-2.568-0.036-3.328,1.677-4.034,3.532c-2.238-0.156-4.384,0.02-6.314,2.174c3.86-0.316,6.722,1.553,9.804,2.715
		c0.188,0.073,0.391,0.106,0.586,0.157c2.299,0.594,4.476,0.444,6.156-1.417c1.67-1.848,1.954-4.041,1.15-6.377
		c-1.629-4.729-7.357-7.967-12.464-7.024c-1.778,0.329-3.542,0.733-5.423,1.126c-0.435-1.389-0.843-2.694-1.262-4.029
		c13.419,0,26.65,0,39.904,0c-0.321,1.427-0.615,2.742-0.919,4.094c-1.794-0.403-3.542-0.898-5.323-1.186
		c-4.923-0.793-9.969,1.632-12.252,5.803c-1.279,2.331-1.119,5.469,0.379,7.312c1.502,1.854,3.933,2.561,6.473,1.658
		c3.366-1.197,6.465-3.27,10.533-2.745c-1.619-1.761-3.373-2.388-5.293-2.341c-0.995,0.024-1.398-0.234-1.758-1.136
		c-0.715-1.802-1.618-2.304-3.387-2.101c0.356,0.422,0.703,0.777,0.987,1.179c1.104,1.558,0.794,3.721-0.687,4.909
		c-1.521,1.223-3.613,1.078-4.936-0.35c-1.074-1.16-1.193-2.512-0.778-3.967c1.038-3.635,5.337-6.409,9.348-6.039
		c3.271,0.303,6.095,1.689,8.772,3.494c5.648,3.812,11.964,1.574,13.971-4.938c0.312-1.012,0.604-2.055,0.686-3.102
		c0.104-1.32,0.633-1.701,1.975-1.792c3.861-0.267,7.033-1.856,8.779-5.527c1.684-3.544,0.934-6.751-1.422-9.759
		c-1.92-2.457-2.842-5.322-3.06-8.428c-0.294-4.176,2.929-8.541,6.824-9.209c1.657-0.283,3.216,0.537,3.996,2.104
		c0.696,1.395,0.393,3.018-0.776,4.176c-1.115,1.104-2.637,1.269-4.189,0.438c-0.521-0.278-1.029-0.581-1.685-0.948
		c-0.155,1.686,0.661,2.674,1.878,3.113c1.293,0.467,1.562,1.16,1.514,2.443c-0.068,1.812,0.775,3.318,2.329,4.684
		c-0.046-0.523-0.074-0.77-0.091-1.019c-0.199-2.903,0.922-5.429,2.227-7.915c1.495-2.846,1.268-5.528-0.578-7.461
		c-1.93-2.017-4.607-2.376-7.548-1.014c-4.272,1.975-6.839,7.185-5.99,12.202c0.301,1.784,0.663,3.556,1.021,5.444
		c-0.666,0.146-1.244,0.283-1.827,0.402c-2.231,0.461-4.078,1.479-5.178,3.574c-1.063,2.021-0.84,4.657,0.522,6.291
		c1.494,1.789,4.002,1.837,5.231,0.037c-0.322-0.057-0.612-0.136-0.908-0.154c-1.763-0.115-2.993-0.938-3.406-2.697
		c-0.403-1.738,0.387-3.063,1.703-4.094c1.794-1.404,4.339-1.415,6.229-0.092c1.797,1.258,2.539,3.691,1.812,5.967
		c-1.145,3.588-3.95,4.911-7.368,5.369c-1.334,0.18-2.68,0.28-4.023,0.416c0,1.064,0.032,1.974-0.006,2.883
		c-0.18,4.285-2.387,7.428-5.824,8.323c-2.11,0.552-4.456-0.253-5.672-1.949c-1.16-1.612-1.203-4.112-0.104-5.882
		c1.01-1.623,2.781-2.387,4.549-1.963c1.568,0.379,2.42,1.61,2.537,3.686c0.018,0.281,0.002,0.564,0.002,0.938
		c1.482-1.193,1.824-2.441,1.195-4.057c-0.827-2.127-2.753-2.891-6.68-2.604c0.289-0.529,0.541-1.014,0.815-1.486
		c5.864-10.157,11.716-20.322,17.62-30.454c0.612-1.05,0.598-1.815-0.011-2.858c-5.829-10.001-11.605-20.036-17.394-30.061
		c-0.346-0.595-0.674-1.2-1.055-1.887c3.919,0.487,5.949-0.376,6.744-2.773c0.539-1.631,0.173-2.785-1.175-3.595
		c-0.024,0.32-0.048,0.617-0.066,0.914c-0.099,1.592-0.733,2.848-2.296,3.432c-1.496,0.56-3.225,0.004-4.374-1.321
		c-1.427-1.645-1.664-4.057-0.587-5.945c1.062-1.856,3.318-2.934,5.417-2.585c3.408,0.568,5.503,3.075,6.19,7.45
		c0.2,1.289-0.081,3.035,0.656,3.75c0.74,0.716,2.477,0.372,3.77,0.551c3.33,0.46,5.963,1.918,7.138,5.279
		c0.829,2.374-0.093,4.999-2.113,6.268c-1.874,1.176-4.815,0.919-6.347-0.612c-1.145-1.146-1.684-2.524-1.182-4.147
		c0.502-1.626,1.758-2.244,3.339-2.402c0.304-0.03,0.603-0.126,1.036-0.222c-1.068-1.228-2.292-1.431-3.564-1.065
		c-1.609,0.462-2.455,1.729-2.841,3.283c-0.835,3.348,1.138,6.496,4.694,7.529c0.91,0.265,1.834,0.478,2.785,0.723
		c-0.357,1.913-0.73,3.69-1.021,5.481c-0.928,5.763,2.566,11.476,7.779,12.768c4.384,1.089,8.121-2.547,7.043-6.914
		c-0.302-1.213-0.76-2.423-1.357-3.52c-1.071-1.968-1.569-4.035-1.574-6.252c-0.002-0.36-0.088-0.72-0.166-1.308
		c-1.355,1.514-2.183,2.991-2.085,4.798c0.062,1.137-0.128,1.829-1.372,2.241c-1.366,0.451-2.159,1.529-1.941,3.258
		c0.487-0.337,0.85-0.601,1.225-0.845c1.682-1.083,3.272-1.005,4.578,0.218c1.174,1.102,1.479,2.895,0.731,4.315
		c-0.796,1.515-2.448,2.248-4.243,1.88c-3.842-0.789-6.875-5.258-6.496-9.44c0.307-3.391,1.789-6.257,3.625-9.04
		c3.66-5.551,1.225-11.977-5.172-13.786c-0.971-0.275-1.967-0.499-2.966-0.621c-0.98-0.12-1.515-0.493-1.698-1.539
		c-0.234-1.339-0.58-2.673-1.027-3.956c-2.029-5.822-8.086-7.9-13.294-4.593c-0.853,0.542-1.653,1.168-2.521,1.687
		c-5.016,2.999-10.062,2.834-13.83-0.43c-1.576-1.365-2.469-3.07-2.367-5.188c0.077-1.612,1.203-2.947,2.672-3.309
		c1.58-0.389,3.23,0.287,4.061,1.664c0.848,1.413,0.684,3.111-0.479,4.34c-0.258,0.273-0.668,0.403-1.008,0.598
		c1.998,0.727,2.75-0.521,3.477-1.625c0.695-1.053,1.422-1.604,2.798-1.538c1.663,0.081,3.179-0.514,4.308-2.28
		c-3.229,0.323-5.896-0.424-8.376-1.993c-0.667-0.422-1.483-0.647-2.259-0.855c-3.344-0.893-6.463,0.839-7.217,4.022
		c-0.478,2.021-0.057,3.907,1.037,5.663c2.401,3.845,7.328,6.029,11.963,5.211c1.768-0.312,3.51-0.777,5.289-1.179
		c0.287,1.408,0.551,2.708,0.825,4.05c-13.264,0-26.409,0-39.608,0c0.288-1.379,0.559-2.681,0.852-4.094
		c1.3,0.332,2.512,0.662,3.734,0.95c6.01,1.409,11.712-1.023,14.031-5.974c1.24-2.644,0.859-5.326-1.035-7.302
		c-1.68-1.753-4.055-2.202-6.727-0.976c-3.066,1.408-6.064,2.935-9.779,2.475c1.792,1.945,2.996,2.363,6.5,2.387
		C294.667,347.657,295.305,349.361,297.748,349.133z"/>
	<path fill-rule="evenodd" clip-rule="evenodd" fill="#41130C" d="M306.576,364.282c5.566,0,11.135,0.027,16.702-0.026
		c1.001-0.009,1.521,0.325,2.009,1.177c5.504,9.606,11.043,19.192,16.596,28.769c0.466,0.801,0.639,1.41,0.106,2.318
		c-5.604,9.607-11.165,19.24-16.691,28.892c-0.526,0.916-1.106,1.201-2.132,1.197c-11.036-0.036-22.07-0.033-33.104-0.002
		c-0.948,0-1.534-0.205-2.046-1.1c-5.523-9.652-11.092-19.278-16.678-28.896c-0.478-0.826-0.541-1.449-0.032-2.32
		c5.575-9.565,11.118-19.149,16.614-28.76c0.56-0.979,1.165-1.288,2.255-1.277C295.643,364.312,301.109,364.282,306.576,364.282z
		 M306.654,424.16c5.11,0,10.222-0.012,15.334,0.012c0.811,0.004,1.372-0.121,1.837-0.938c5.099-8.902,10.238-17.784,15.396-26.653
		c0.442-0.759,0.417-1.322-0.019-2.074c-5.147-8.875-10.27-17.766-15.367-26.667c-0.43-0.747-0.896-1.053-1.783-1.051
		c-10.271,0.017-20.546,0-30.816-0.053c-0.908-0.004-1.333,0.341-1.756,1.078c-5.082,8.854-10.187,17.696-15.319,26.521
		c-0.456,0.785-0.524,1.382-0.045,2.204c5.136,8.823,10.247,17.659,15.315,26.523c0.508,0.891,1.078,1.126,2.041,1.116
		C296.531,424.137,301.594,424.16,306.654,424.16z"/>
	<path fill-rule="evenodd" clip-rule="evenodd" fill="#41130C" d="M284.99,382.911c4.325,0,8.268-0.021,12.207,0.029
		c0.402,0.006,0.967,0.331,1.172,0.677c2.035,3.424,4.012,6.886,6.172,10.628c-1.16,0-2.092,0-3.021,0
		c-2.932,0-5.865,0.023-8.796-0.021c-0.491-0.009-1.229-0.159-1.435-0.497C289.191,390.239,287.18,386.698,284.99,382.911z"/>
	<path fill-rule="evenodd" clip-rule="evenodd" fill="#41130C" d="M328.382,408.06c-4.288,0-8.28,0.017-12.269-0.024
		c-0.365-0.005-0.885-0.279-1.064-0.588c-2.057-3.475-4.061-6.979-6.249-10.773c1.22,0,2.2,0,3.185,0c2.881,0,5.766-0.03,8.646,0.03
		c0.521,0.01,1.277,0.245,1.507,0.628C324.219,400.784,326.207,404.291,328.382,408.06z"/>
	<path fill-rule="evenodd" clip-rule="evenodd" fill="#41130C" d="M304.422,396.902c-2.061,3.569-4.084,7.095-6.146,10.602
		c-0.146,0.248-0.552,0.48-0.839,0.48c-4.023,0.033-8.047,0.021-12.357,0.021c0.588-1.077,1.045-1.946,1.533-2.797
		c1.457-2.537,2.897-5.082,4.418-7.58c0.262-0.431,0.881-0.903,1.341-0.911c3.837-0.067,7.675-0.034,11.51-0.021
		C304.017,396.698,304.15,396.797,304.422,396.902z"/>
	<path fill-rule="evenodd" clip-rule="evenodd" fill="#41130C" d="M328.277,383.009c-2.152,3.744-4.126,7.2-6.132,10.638
		c-0.151,0.261-0.524,0.558-0.797,0.561c-4.077,0.036-8.156,0.024-12.521,0.024c1.788-3.103,3.58-5.897,5.041-8.855
		c0.942-1.908,2.121-2.551,4.225-2.421C321.355,383.158,324.641,383.009,328.277,383.009z"/>
	<path fill-rule="evenodd" clip-rule="evenodd" fill="#41130C" d="M308.83,369.246c4.258,0,8.277-0.013,12.296,0.025
		c0.326,0.003,0.784,0.275,0.95,0.558c2.047,3.468,4.05,6.962,6.238,10.75c-1.615,0-2.955,0-4.295,0
		c-2.524,0-5.052,0.021-7.576-0.021c-0.448-0.009-1.118-0.152-1.304-0.461C313.026,376.562,310.986,372.983,308.83,369.246z"/>
	<path fill-rule="evenodd" clip-rule="evenodd" fill="#41130C" d="M282.901,406.705c-0.854-1.447-1.62-2.732-2.375-4.027
		c-0.812-1.398-1.456-2.929-2.456-4.176c-1.732-2.156-1.447-3.994,0.047-6.165c1.732-2.519,3.119-5.278,4.768-8.122
		c2.143,3.707,4.172,7.188,6.146,10.695c0.174,0.31,0.131,0.901-0.053,1.226C287.02,399.606,285.013,403.051,282.901,406.705z"/>
	<path fill-rule="evenodd" clip-rule="evenodd" fill="#41130C" d="M306.676,392.994c-2.118-3.667-4.131-7.107-6.08-10.58
		c-0.197-0.35-0.203-1-0.008-1.346c1.949-3.473,3.959-6.911,6.088-10.594c1.127,1.947,2.147,3.714,3.17,5.479
		c0.959,1.661,1.949,3.306,2.857,4.993c0.201,0.374,0.312,1.014,0.13,1.341C310.861,385.806,308.822,389.287,306.676,392.994z"/>
	<path fill-rule="evenodd" clip-rule="evenodd" fill="#41130C" d="M304.54,421.728c-4.281,0-8.265,0.007-12.249-0.015
		c-0.312,0-0.787-0.11-0.915-0.328c-2.091-3.543-4.138-7.111-6.347-10.939c3.417,0,6.543,0.211,9.627-0.066
		c2.592-0.232,4.021,0.652,5.121,2.957C301.117,416.14,302.833,418.762,304.54,421.728z"/>
	<path fill-rule="evenodd" clip-rule="evenodd" fill="#41130C" d="M328.306,410.494c-2.175,3.76-4.2,7.285-6.271,10.787
		c-0.153,0.254-0.66,0.424-1.003,0.428c-3.979,0.029-7.96,0.019-12.218,0.019c1.172-2.036,2.225-3.903,3.315-5.747
		c1.073-1.818,1.788-4.283,3.388-5.227c1.543-0.908,4.019-0.246,6.084-0.258C323.719,410.486,325.837,410.494,328.306,410.494z"/>
	<path fill-rule="evenodd" clip-rule="evenodd" fill="#41130C" d="M304.56,369.192c-2.15,3.725-4.126,7.17-6.14,10.597
		c-0.175,0.298-0.586,0.648-0.891,0.651c-4.062,0.043-8.125,0.03-12.486,0.03c1.783-3.087,3.556-5.837,4.992-8.754
		c0.975-1.983,2.182-2.727,4.408-2.579C297.7,369.353,300.982,369.192,304.56,369.192z"/>
	<path fill-rule="evenodd" clip-rule="evenodd" fill="#41130C" d="M330.414,384.262c2.14,3.706,4.189,7.226,6.192,10.771
		c0.155,0.277,0.14,0.799-0.022,1.083c-1.954,3.458-3.953,6.895-6.094,10.604c-0.688-1.164-1.261-2.129-1.822-3.1
		c-1.391-2.399-2.797-4.789-4.137-7.215c-0.232-0.418-0.397-1.127-0.201-1.483C326.273,391.405,328.299,387.937,330.414,384.262z"/>
	<path fill-rule="evenodd" clip-rule="evenodd" fill="#41130C" d="M306.68,420.461c-2.148-3.711-4.176-7.188-6.164-10.693
		c-0.161-0.279-0.17-0.81-0.012-1.087c1.984-3.507,4.012-6.988,6.129-10.649c2.126,3.676,4.17,7.182,6.17,10.715
		c0.16,0.283,0.15,0.816-0.011,1.102C310.832,413.311,308.828,416.745,306.68,420.461z"/>
</g>
</svg>
