<?xml version="1.0" encoding="utf-8"?>
<!-- Generator: Adobe Illustrator 16.0.0, SVG Export Plug-In . SVG Version: 6.00 Build 0)  -->
<!DOCTYPE svg PUBLIC "-//W3C//DTD SVG 1.1//EN" "http://www.w3.org/Graphics/SVG/1.1/DTD/svg11.dtd">
<svg version="1.1" id="Layer_1" xmlns="http://www.w3.org/2000/svg" xmlns:xlink="http://www.w3.org/1999/xlink" x="0px" y="0px"
	 width="410.077px" height="300.319px" viewBox="0 0 410.077 300.319" enable-background="new 0 0 410.077 300.319"
	 xml:space="preserve">
<path fill-rule="evenodd" clip-rule="evenodd" d="M392.298,204.838c2.239,0.317,4.746,0.672,7.253,1.026
	c0.097-0.23,0.193-0.462,0.29-0.692c-0.615-0.325-1.23-0.649-2.419-1.274c1.403,0,2.178,0,3.109,0
	c0.042,0.059,0.348,0.291,0.384,0.561c0.286,2.126-0.197,4.076-1.184,5.996c-1.196,2.328-1.848,4.919-2.661,7.375
	c-1.275,3.848-3.525,6.939-5.844,10.079c-1.039,1.407-2.012,2.886-3.207,4.151c-1.005,1.064-3.26,0.895-3.086,3.147
	c-3.055,1.509-5.965,3.366-9.539,3.521c-1.726,0.074-3.608-0.618-5.118,0.943c-0.241,0.25-1.014,0.174-1.454,0.012
	c-2.6-0.953-5.177-1.971-7.756-2.982c-0.429-0.168-0.992-0.293-1.221-0.625c-1.867-2.719-5.442-2.381-7.699-4.369
	c-8.395-1.922-15.229-6.904-22.146-11.598c-2.155-1.463-3.525-4.082-5.42-6.373c0.851-0.961,1.571-1.775,2.291-2.592
	c-0.354-0.354-0.651-0.91-1.07-1.025c-1.953-0.537-3.927-1.023-5.919-1.382c-0.968-0.175-1.998-0.097-2.991-0.019
	c-3.07,0.244-5.062-1.055-6.051-4.426c1.318-1.338,3.133-2.796,3.075-5.402c-2.719,1.791-5.229,3.527-7.823,5.122
	c-1.509,0.927-2.019,2.621-3.322,3.755c-2.931,2.549-6.729,3.142-9.979,4.924c-2.57,1.41-5.221,2.67-7.823,4.021
	c-1.349,0.7-1.335,0.725-1.896,3.195c3.36-1.211,6.618-2.092,9.599-3.543c3.019-1.468,6.007-2.379,9.382-2.764
	c5.824-0.663,12.426,2.358,17.266,5.927c1.729,1.274,3.877,1.976,5.642,3.212c3.381,2.369,6.616,4.945,9.93,7.412
	c1.008,0.749,1.991,1.628,3.131,2.083c2.697,1.077,4.978,2.537,6.093,5.472c1.099,0,2.117,0.189,3.036-0.033
	c3.611-0.876,6.271,1.979,9.557,2.307c1.225,2.211,3.345,1.699,5.279,1.723c1.665,0.02,3.343-0.125,4.993,0.029
	c4.408,0.408,8.477-1.051,12.675-1.963c4.854-1.055,9.054-3.525,12.807-6.367c2.951-2.233,5.013-5.762,7.112-8.951
	c1.198-1.822,2.061-3.814,3.514-5.559c1.336-1.604,1.921-3.83,2.851-5.775c0.402-0.842,0.84-1.667,1.655-3.277
	c0.229,2.089,0.364,3.32,0.507,4.619c0.26-0.05,0.66-0.037,0.697-0.148c0.794-2.35,2.312-4.593,0.225-7.179
	c-0.57-0.706-0.266-2.295-0.054-3.421c0.673-3.59-1.342-5.357-4.205-6.693c-1.685-0.785-3.314-1.689-5.133-2.625L392.298,204.838z"
	/>
<path fill-rule="evenodd" clip-rule="evenodd" d="M276.852,204.785c-0.828,0-1.657,0-1.971,0c-1.83,2.359-3.312,4.591-5.119,6.517
	c-2.083,2.219-3.918,4.54-5.251,7.289c-0.807,1.663-1.571,3.491-2.845,4.752c-1.968,1.951-3.15,4.308-4.531,6.606
	c-1.369,2.278-2.744,4.652-4.582,6.529c-4.365,4.462-7.008,10.143-10.929,14.852c-2.42,2.906-5.812,5.007-8.796,7.434
	c-0.199,0.162-0.645,0.021-0.977,0.021c1.061-1.227,1.988-2.609,3.204-3.654c5.583-4.802,9.55-10.932,13.667-16.879
	c1.951-2.82,3.961-5.642,5.846-8.527c3.162-4.84,5.813-9.908,7.947-15.225c0.795-1.98,0.578-4.358,2.189-6.104
	c0.177-0.191,0.239-0.825,0.127-0.898c-2.236-1.432-0.189-2.922,0.104-4.182c1.105-4.736,1.194-4.695-0.518-10.506
	c-0.345-1.17-0.799-2.794-0.274-3.619c0.806-1.269,0.873-1.924-0.195-2.886c-0.182-0.163-0.017-0.952,0.217-1.298
	c1.435-2.133,1.127-4.801,0.445-6.631c-0.613-1.643-0.672-3.126-0.729-4.676c-0.305-8.38,1.636-16.673,0.999-25.081
	c-0.189-2.502,1.714-4.002,3.25-5.646c1.069-1.144,1.165-2.791-0.021-3.331c-3.361-1.529-5.063-5.295-8.959-6.166
	c-2.092-0.468-4.002-1.64-6.277-1.744c-1.707-0.077-3.751-1.378-5.011-0.787c-2.431,1.143-4.788,0.579-7.069,0.871
	c-1.48,1.01-2.92,1.979-4.346,2.969c-1.523,1.058-2.4,2.688-2.511,4.371c-0.128,1.958-1.034,4.403,1.92,5.746
	c1.001-0.731,2.117-1.545,3.616-2.639c0.598,2.826-1.075,3.621-2.418,5.046c-1.843,1.958-3.949,1.112-6.512,1.761
	c1.335,0.982,2.32,1.707,3.479,2.559c-0.689,1.177-1.18,2.59-2.131,3.538c-4.073,4.059-4.254,9.137-4.006,14.344
	c0.027,0.559,0.425,1.229,0.857,1.616c1.299,1.168,1.463,2.286,0.528,3.827c-0.454,0.748-0.312,1.863-0.419,2.814
	c-0.34,3.027-0.498,6.088-1.081,9.068c-0.253,1.291-1.163,2.627-2.136,3.568c-1.727,1.671-3.188,3.574-5.477,4.782
	c-1.522,0.804-2.339,2.946-3.748,4.866c-1.316-2.633-3.496-3.809-5.736-4.982c-3.984-2.086-5.143-7.693-2.358-11.188
	c0.164-0.205,0.869,0.02,1.62,0.061c-0.187,1.947-2.112,3.559,0.049,5.715c2.156,2.152,3.771,0.188,6.384,0.002
	c-0.962,1.6-1.562,2.598-2.38,3.958c0.322,0.257,0.911,0.724,1.613,1.281c2.572-1.231,4.893-2.554,6.324-5.38
	c1.584-3.133,2.148-6.301,1.926-9.708c-0.012-0.166,0.068-0.424-0.012-0.487c-3.611-2.823-1.541-6.766-1.904-10.191
	c-0.156-1.469,1.485-2.902,0.896-4.569c-1.747-4.948-1.43-10.154-0.814-15.067c1.07-8.55,0.503-17.075,0.885-25.599
	c0.188-4.221-0.626-7.626-5.296-9.348c5.474-4.954,8.161-11.44,12.067-17.093c0.715-1.035,1.289-2.199,2.146-3.097
	c2.201-2.308,3.619-2.208,5.482,0.422c0.979,1.382,1.876,2.891,2.451,4.473c0.711,1.957-0.372,3.74-1.309,5.374
	c-0.733,1.28-1.992,1.581-3.457,0.831c0.62-1.18,1.247-2.356,1.852-3.543c0.068-0.132,0.01-0.329,0.01-0.527
	c-0.5-0.595-1.014-1.207-1.449-1.727c-5.844,1.697-7.155,6.224-7.483,11.083c-0.313,4.645-0.112,9.328-0.039,13.992
	c0.021,1.312,0.939,2.887,0.466,3.867c-0.805,1.663-0.33,3.221-0.468,4.806c-0.125,1.438-0.026,2.896,0.757,4.345
	c0.072-0.894,0.297-1.807,0.188-2.678c-0.301-2.408,0.297-4.47,2.031-6.171c3.555-3.487,5.226-8.862,10.738-10.412
	c3.018-0.848,5.932-2.062,10.219-1.542c-3.253-2.843-5.621-4.913-8.275-7.233c3.655-2.84,3.332-7.219,4.289-11.115
	c1.99-8.107,0.688-16.381,1.016-24.574c0.078-1.974,0.012-3.954,0.012-6.208c2.719,1.139,2.799,3.759,2.859,5.471
	c0.305,8.654,0.164,17.325,0.098,25.99c-0.006,0.697-0.866,1.373-0.917,2.088c-0.307,4.275,0.395,8.436,3.612,11.445
	c3.23,3.022,4.53,7.249,8.568,11.068c-3.396-0.491-5.502-0.917-7.625-1.068c-2.155-0.153-4.344-0.185-6.492,0.008
	c-2.201,0.198-4.371,0.733-6.736,1.154c-0.99,1.004-2.15,2.183-3.408,3.46c1.435,0.426,2.742,0.665,4.15-0.199
	c0.625-0.383,1.521-0.368,2.303-0.448c2.539-0.261,5.062,0.314,7.657-0.844c1.293-0.578,3.56-0.96,5.146,0.525
	c0.205,0.192,0.566,0.27,0.866,0.301c3.513,0.364,7.027,0.708,11.029,1.106c-0.419,1.115-0.772,2.053-1.242,3.301
	c1.665,1.468,3.335,3.062,5.302,4.509c1.641,1.206,2.049,3.961,4.732,4.337c0,1.178,0,2.296,0,3.394
	c-3.818,1.373-7.1,3.653-8.28,7.427c-1.022,3.269-3.248,6.771-0.683,10.466c0.391,0.562,0.061,1.627,0.061,2.46
	c0,1.666,0.131,3.345-0.022,4.997c-0.72,7.746,1.497,15.357,1.001,23.082c-0.12,1.883,0.546,3.83-0.879,5.662
	c-0.477,0.613,0.155,2.139,0.38,3.227c0.188,0.91,0.521,1.788,0.824,2.791C273.398,201.996,275.244,202.866,276.852,204.785z
	 M266.991,211.145c0.7-0.7,1.091-1.005,1.371-1.39c0.587-0.807,2.091-1.208,1.27-2.654c-0.111-0.196-0.701-0.379-0.788-0.291
	c-0.701,0.715-1.409,1.448-1.955,2.281C266.688,209.399,266.914,209.988,266.991,211.145z"/>
<path fill-rule="evenodd" clip-rule="evenodd" d="M135.83,88.785c2.113,2.97,9.959,5.762,13.478,7.012
	c1.45,0.515,2.854,1.165,4.812,1.973c-1.477,2.09-2.679,3.792-4.267,6.04c0,1.605,0.085,3.917-0.032,6.22
	c-0.071,1.396,0.666,2.981-0.815,4.172c-0.26,0.209-0.306,1.02-0.124,1.395c1.979,4.079,0.436,8.412,1.167,13.1
	c0.842,0.787,1.948,2.066,3.294,3.001c1.072,0.744,2.436,1.066,4.133,1.767c-1.227,1.308-1.942,2.713-3,3.054
	c-1.726,0.557-2.549,1.945-3.79,2.932c-4.88,3.882-7.455,9.484-10.85,14.481c-2.105,3.099-3.897,6.283-5.054,9.904
	c-1.149,3.595-4.867,4.176-7.132,1.1c-1.136-1.541-2.659-2.463-3.942-3.727c-1.237-1.217-2.802-2.093-4.135-3.223
	c-4.058-3.44-7.979-7.036-12.213-10.276c-1.617-1.238-3.197-1.897-5.211-1.96c-2.736-0.086-3.015-0.505-3.303-3.541
	c-0.043-0.456-0.169-0.905-0.364-1.909c-2.444,2.482-5.231,2.985-8.132,2.378c-0.697-0.146-1.166-1.375-1.891-2.299
	c2.353-1.074,5.007-0.874,6.285-3.202c-1.02-0.354-2.022-0.769-3.062-1.045c-1.883-0.501-3.688-0.839-5.468,0.615
	c-1.688,1.379-3.741,2.311-5.44,3.678c-2.1,1.688-3.223,3.941-2.927,6.76c0.41,3.905-0.357,7.684-1.513,11.446
	c-0.158-3.188-2.626-5.918-0.656-9.654c1.292-2.45-0.031-5.701-0.899-8.46c-0.228-0.725-1.369-1.164-2.093-1.731
	c-0.62-0.486-1.242-0.969-2.568-2.002c2.772,0.507,4.577-2,6.736-0.319c0,0.637,0.735,0.504,0,0c0-0.178-0.195-0.987,0.03-1.129
	c2.363-1.49,4.702-3.071,7.23-4.231c2.701-1.238,5.264,0.276,7.717,1.232c1.715,0.668,3.263,1.789,4.838,2.783
	c1.625,1.025,2.48,1.109,3.73-0.453c1.359-1.698,2.371-3.671,3.58-5.493c0.94-1.416,2.679-1.849,3.757-1.005
	c2.41,1.885,2.616,2.01,5.048,1.155c2.391-0.84,4.477-0.535,6.901,0.332c2.991,1.071,5.309,2.69,7.509,4.872
	c1.668,1.654,3.747,2.91,5.712,4.241c1.487,1.007,3.151,1.804,2.947,4.018c-1.187-0.354-2.644-0.393-3.5-1.13
	c-1.477-1.271-3.018-2.229-4.824-2.916c-0.711-0.271-1.527-0.945-1.783-1.628c-1.672-4.475-5.762-3.706-9.169-4.279
	c-1.621-0.272-3.333,0.061-4.989-0.071c-2.769-0.221-5.038,0.651-6.904,2.683c-0.442,0.481-0.924,0.942-1.446,1.333
	c-1.649,1.235-1.943,1.997-0.725,3.122c2.259,2.086,4.598,4.096,7.001,6.016c2.607,2.082,5.164,4.306,8.038,5.953
	c3.34,1.915,6.334,4.48,10.247,5.427c2.946,0.713,4.036,0.85,5.432-1.476c2.646-4.407,6.385-7.988,9.1-12.25
	c1.712-2.689,3.44-5.289,5.625-7.359c-0.195-0.614-0.2-1.076-0.395-1.179c-3.014-1.588-3.765-4.103-3.789-7.396
	c-0.042-5.696-0.733-11.386-0.866-17.085c-0.086-3.689,0.338-7.39,0.547-11.343c-1.885-1.392-4.264-2.938-6.39-4.776
	c-2.349-2.03-5.332-2.459-8.03-3.583c-0.803-0.335-2.256-0.297-2.822,0.217c-1.523,1.384-3.193,0.375-4.647,0.745
	c-6.269,4.801-9.589,10.674-6.789,19.372c-0.914-0.635-1.506-0.908-1.899-1.355c-0.515-0.586-0.872-1.31-1.314-2.001
	c-1.564,1.743-1.564,1.743-1.846,9.591c-1.113,0.51-2.221,1.017-3.245,1.486c-0.287-0.287-0.503-0.4-0.508-0.523
	c-0.38-8.514-1.146-17.037-0.959-25.539c0.114-5.182-1.931-8.9-5.317-12.821c9.204-3.974,15.271-11.183,20.716-19.88
	c-1.708-0.197-2.919-0.336-4.168-0.48c-1.209-1.479,0.185-2.604,0.62-3.873c1.844,0.354,3.688,0.708,5.527,1.06
	c2.556-9.241,0.966-18.625,2.118-27.944c0.119,0.629,0.328,1.257,0.339,1.889c0.041,2.33,0.13,4.667-0.007,6.989
	c-0.328,5.57,1.397,10.964,1.201,16.572c-0.09,2.564,1.458,5.347,2.788,7.739c0.784,1.409,1.432,2.314,0.434,3.838
	c-1.568,2.395,1.097,4.408,1.736,6.523c0.599,1.982,1.361,3.768,3.907,4.495c3.133,0.895,6.05,2.92,8.104,5.598
	c1.281,1.669-2.997,0.503-6.314,1.908c-0.958-1.656-5.557-0.132-6.667-0.676c-2.279-1.118-7.384,1.818-7.5,2.176
	C123.853,85.952,134.751,87.269,135.83,88.785z M123.139,67.998c-4.217,4.217-8.033,7.867-11.61,11.737
	c-0.8,0.866-1.529,2.077-0.836,3.912c0.716,1.895,0.979,4.826-0.028,6.306c-1.608,2.365,0.371,3.184,0.535,4.882
	c2.205-5.52,4.925-10.269,8.563-13.506c2.684-1.235,5.346,0.675,6.896-1.808c-0.627-1.141-1.75-2.236-1.702-3.277
	C125.081,73.584,124.175,71.253,123.139,67.998z"/>
<path fill-rule="evenodd" clip-rule="evenodd" d="M215.382,111.271c-0.676,0.945-1.114,1.292-1.185,1.701
	c-0.356,2.112-2.841,2.817-3.25,4.639c-0.428,1.903,0.434,4.166-0.198,5.939c-1.671,4.685-0.877,9.441-0.743,14.111
	c0.08,2.811,0.308,6.174,3.305,8.054c0.242,0.152,0.641,0.055,1.268,0.09c0.138-0.873,0.279-1.773,0.432-2.741
	c0.236,0.027,0.58-0.036,0.686,0.094c1.404,1.74,2.839,3.464,4.111,5.3c0.305,0.44,0.045,1.273,0.045,1.827
	c-0.217,0.217-0.434,0.442-0.439,0.438c-0.962-0.889-1.909-1.795-2.92-2.759c-1.34,0.909-2.734,1.825-4.096,2.788
	c-1.295,0.915-2.438,2.335-3.861,2.706c-1.822,0.475-3.303,1.129-4.795,3.178c0,1.312,0,3.218,0,6.255
	c-1.285-1.604-1.873-2.339-2.466-3.079c-2.482,1.387-7.64,6.287-9.416,8.984c-0.167,0.253-0.165,0.662-0.375,0.832
	c-3.832,3.093-6.162,7.256-8.577,11.432c-0.716,1.239-1.051,2.283-1.052,3.58c-0.003,6.163-0.001,12.326-0.001,18.49
	c0,1.133,0,2.267,0,3.399c-0.204,0.03-0.407,0.062-0.611,0.091c-0.13-0.586-0.375-1.174-0.372-1.76
	c0.034-6.879-1.923-13.656-0.909-20.044c-0.888-1.348-1.768-2.196-2.064-3.215c-1.616-5.554-5.718-9.155-9.773-12.815
	c-2.894-2.611-6.72-3.99-8.795-7.793c-1.148-2.104-3.573-4.002-5.852-4.887c-3.708-1.438-5.903-4.366-8.648-6.812
	c1.962-1.489,2.872,0.211,4.202,1.108c7.797,5.256,15.693,10.368,23.498,15.616c1.221,0.82,2.817,1.959,3.049,3.176
	c0.375,1.968,2.062,1.55,2.82,2.369c0.521-0.434,1.029-0.855,1.511-1.256c-1.492-3.66-1.683-7.215-0.049-10.787
	c-2.598-4.131-7.687-4.942-11.357-8.579c1.267,0,2.635-0.353,2.924,0.057c1.994,2.822,4.725,1.447,7.425,1.889
	c0-3.505,0.173-6.653-0.051-9.772c-0.202-2.813-1.036-5.591-2.946-7.735c-1.322-1.484-1.312-2.945-0.605-4.438
	c1.132-2.394,2.251-4.74,2.664-7.411c0.155-1.003,0.795-2.168,1.584-2.787c1.421-1.114,1.311-2.496,1.403-3.973
	c0.027-0.429,0.639-0.823,1.437-1.772c0.275,1.274,0.495,1.83,0.499,2.388c0.029,4.164-0.043,8.33,0.043,12.493
	c0.039,1.889-0.607,3.902,0.925,5.626c0.331,0.372,0.212,1.341,0.021,1.947c-1.144,3.644-1.694,7.404-1.922,11.177
	c-0.231,3.817-0.201,7.667-0.004,11.488c0.164,3.171,0.736,6.321,1.132,9.521c2.088,0.625,2.871-1.19,3.503-2.176
	c2.181-3.404,4.562-6.6,7.513-9.358c1.154-1.079,1.975-2.574,4.041-2.429c0.685,0.049,1.418-1.232,2.206-1.8
	c0.62-0.447,1.335-0.989,2.045-1.047c3.528-0.289,6.173-2.082,8.551-4.594c-1.733-1.704-3.395-3.336-5.036-4.949
	c0-5.535,0.117-11.036-0.043-16.528c-0.099-3.367-0.44-6.755-1.047-10.065c-0.241-1.316-1.004-2.599-2.718-3.333
	c-5.237-2.244-10.222-5.087-15.489-7.248c-3.049-1.251-6.5-0.433-9.329,0.942c-4.944,2.402-10.07,4.747-13.643,9.885
	c0.743,0.456,1.447,0.889,2.395,1.471c-0.617,1.271-1.276,2.629-1.999,4.117c1.081,2.629,3.394-1.212,4.967,0.941
	c-0.407,0.622-0.908,1.992-1.368,1.978c-1.42-0.042-2.601,1.67-4.147,0.477c-0.442-0.341-0.485-0.143-0.807,1.165
	c-0.182,0.742-0.451,1.779-1.702,1.27c-1.283-0.521-2.597-1.546-3.841-1.467c-2.62,0.167-3.126-2.081-3.084-3.251
	c0.16-4.525-1.105-9.133,0.773-13.618c0.534-1.275-0.001-2.97,0.101-4.462c0.152-2.215,0.108-4.356,0.78-6.642
	c0.878-2.985-0.297-6.234-2.067-9.091c-1.021,1.164-1.957,2.232-3.334,3.804c0.154-1.707-1.882-1.314-0.872-3.046
	c1.067-1.829,0.64-4.259,1.382-6.398c0.722-2.083-1.408-3.688-1.972-5.854c0.602-0.553,1.276-1.173,1.982-1.823
	c2.514,3.545,4.193,4.074,8.132,2.719c1.602-0.551,3.384-0.887,4.71-1.84c1.308-0.94,3.067-0.964,3.667-0.46
	c2.023,1.701,4.156,0.343,6.085,0.956c0.383-0.79,0.682-1.408,1.091-2.252c0.552,4.291,0.609,4.184,4.335,6.186
	c4.017,2.157,8.159,3.323,12.769,3.014c3.298-0.221,6.623-0.043,10.121-0.043c-2.594,1.957-2.594,1.979-4.697,1.995
	c-2.965,0.021-5.931,0.005-9.873,0.005c1.683,1.212,2.596,1.87,3.683,2.653c-1.297,0.592-2.562,0.504-3.881-0.084
	c-4.154-1.854-8.413-3.026-12.969-3.825c-4.107-0.72-8.096-0.471-12.127-0.703c-2.19-0.126-2.468,0.373-2.933,3.166
	c1.422,1.131,2.768,2.201,3.84,3.054c-1.413,6.75-1.604,13.027,1.188,19.269c-1.38,1.02-2.877,1.946-4.15,3.115
	c-1.319,1.212-2.092,2.792-1.912,4.687c-2.465,1.709,0.508,2.993,0.347,4.573c1.184-1.887,0.04-4.275,1.608-6.112
	c1.267-1.485,1.848-3.258,3.911-4.385c3.319-1.812,6.125-4.562,9.146-6.921c2.03-1.586,4.055-3.179,5.781-4.533
	c0.685-2.54-0.91-5.132,1.799-6.975c2.178,4.266,6.516,5.747,10.285,8.076c5.082,3.141,10.807,4.516,16.286,6.564
	c1.738,0.65,3.633,0.868,5.419,1.407C213.312,110.077,214.104,110.625,215.382,111.271z"/>
<path fill-rule="evenodd" clip-rule="evenodd" d="M99.727,65.103c0,1.586,0,3.041,0,4.52c-0.958,0.107-1.746,0.195-2.519,0.281
	c-0.969,3.168-0.868,6.528-2.275,9.599c-0.505,1.102-0.081,2.629-0.081,3.962c0,4.771,0,9.543,0,14.315
	c-3.233-9.673-1.375-19.569-2.133-29.527c-1.167-0.59-2.518-1.272-4.175-2.109c1.923-1.064,3.66-2.024,5.96-3.297
	c-2.604-1.313-4.703-2.338-7.157-2.026c-1.603,2.617-3.064,5.197-4.735,7.634c-0.631,0.919-0.69,1.358-0.262,2.486
	c0.722,1.902,1.694,4.272-1.463,5.472c-0.577,0.219-0.702,1.632-1.194,2.904c0.85,0.47,1.875,0.835,2.62,1.51
	c0.625,0.566,2.297,1.081,0.627,2.503c-0.415,0.353-0.425,1.857-0.026,2.369c1.511,1.943,0.325,3.433-0.608,5.226
	c-0.656-0.965-1.255-1.846-2.037-2.996c-1.073,0-2.527,0-4.057,0c-3.947,3.622-6.314,8.13-6.635,13.756
	c-1.578,0.083-3.156,0.166-4.835,0.254c0.424,3.514,3.494,4.164,5.426,5.449c5.677,3.779,11.709,7.033,17.674,10.366
	c2.142,1.197,4.41,2.306,6.759,2.956c2.434,0.673,5.033,0.983,7.564,1.008s5.029-0.151,7.63-0.721
	c4.752-1.041,8.342-3.562,11.828-6.52c1.665-1.412,2.329-3.35,2.242-5.562c-0.112-2.873-1.273-3.65-4.037-2.596
	c-0.286,0.109-0.528,0.333-0.811,0.455c-0.141,0.061-0.329,0.011-0.496,0.011c-1.006-3.68,0.477-6.007,3.919-5.97
	c1.24,0.014,2.624-0.56,3.732,0.692c0.21,0.237,1.092-0.089,1.654-0.204c0.886-0.181,1.764-0.404,3.163-0.729
	c-0.226,1.335-0.116,2.399-0.58,3.06c-0.877,1.246-0.924,2.79-0.366,3.687c1.391,2.235,0.587,3.593-0.653,5.598
	c-2.585,4.176-5.98,6.67-10.704,7.966c-2.925,0.802-5.58,2.585-8.359,3.924c-0.694,0.334-1.377,0.878-2.098,0.94
	c-6.173,0.532-12.026-0.54-17.504-3.564c-2.836-1.565-5.731-3.044-8.683-4.376c-4.63-2.09-9.221-4.367-14.039-5.905
	c-3.3-1.053-5.517-3.519-8.452-4.961c-2.362-1.161-4.52-2.76-6.922-3.812c-3.178-1.392-6.856,0.317-8.77,3.786
	c-0.877,1.59-1.69,3.215-2.847,5.424c-0.209-2.652-0.43-4.596,0.798-6.551c0.807-1.284,1.317-2.791,1.763-4.257
	c0.826-2.715,2.833-3.809,5.379-3.696c3.394,0.151,6.804-0.641,10.229,0.582c1.042,0.372,2.765-0.85,4.044-1.575
	c0.838-0.476,1.706-1.246,2.101-2.098c2.181-4.692,6.094-7.915,9.562-11.51c-0.355-1.072-0.742-2.086-1.015-3.13
	c-0.123-0.468-0.051-0.997-0.017-1.494c0.587-8.397-0.856-16.713-1.171-25.556c-1.77-1.756-3.868-3.836-6.179-6.128
	c0.598-0.709,0.996-1.626,1.618-1.818c1.035-0.319,2.473-0.618,3.284-0.144c2.975,1.742,5.021,0.797,7.28-1.41
	c2.561-2.501,7.057-2.419,10.13-0.312c3.111,2.134,6.171,4.355,9.391,6.314c1.445,0.879,3.089,1.422,4.986,1.299
	c2.198-0.141,4.451-0.459,6.649,0.805c0.754,0.434,2.319-0.542,3.513-0.874c0.216,2.271-0.216,3.098-2.176,2.937
	c-3.363-0.276-6.903,1.164-10.088-0.941c-4.852,0.763-8.719-2.308-13.102-3.371c-2.56-0.621-5.104-1.309-7.578-1.947
	c-0.721,1.694-0.907,4.275-0.561,5.465c0.534,1.839,1.071,3.681-0.396,5.78c2.601,0.215,3.944-1.369,4.249-2.54
	c0.585-2.25,2.067-1.701,2.853-1.062c3.895,3.167,8.425,2.706,12.916,2.678c2.779-0.018,5.559-0.003,8.526-0.003
	C106.136,61.671,104.554,63.07,99.727,65.103z"/>
<path fill-rule="evenodd" clip-rule="evenodd" d="M276.852,192.113c2.311,1.904,4.914,2.389,8.801,0.324
	c-1.266,1.914-1.926,2.91-2.598,3.926c0.07,0.057,0.272,0.355,0.523,0.402c1.545,0.295,3.279-0.633,4.686,0.832
	c0.201,0.21,1.089-0.229,1.655-0.381c2.113-0.57,4.089-1.451,6.396-1.555c1.736-0.078,3.671-0.952,5.082-2.038
	c3.125-2.405,7.096-2.1,10.496-3.683c1.827-0.85,4.452-0.455,6.496,0.873c2.218,1.443,4.606,2.423,7.134,3.297
	c2.816,0.973,5.535,2.545,7.149,5.072c0,1.242,0,2.37,0,3.562c-2.12-1.74-3.916-3.631-6.076-4.907
	c-5.889-3.48-12.168-4.202-18.627-1.65c-5.043,1.992-9.937,4.219-14.49,7.296c-2.695,1.82-6.09,2.605-8.336,5.655
	c-0.853-0.696-2.092-1.211-2.188-1.888c-0.227-1.601-0.523-1.697-1.57-0.582c-0.015,0.016-0.86-0.5-0.988-0.879
	c-1.602-4.748-5.094-8.074-8.512-11.465c2.53-1.688-1.179-3.424,0.371-5.473c0.908,0,2.144,0,3.588,0
	c-0.273-0.6-0.317-0.953-0.492-1.039c-1.104-0.539-2.238-1.019-3.88-1.748c0.63-0.407,1.13-0.976,1.7-1.06
	c3.373-0.497,6.012-2.468,8.745-4.233c2.96-1.91,5.108-4.312,4.989-8.189c-0.031-1.018,0.707-2.034,0.928-3.086
	c0.623-2.988,1.368-5.965,1.042-9.076c-0.081-0.78,0.019-1.631,0.249-2.384c1.59-5.171,2.777-10.374,2.804-15.854
	c0.013-2.68-0.95-5.482,0.849-8.129c0.85-1.25-0.381-2.465-1.497-3.247c-0.422-0.295-1.021-0.337-1.508-0.485
	c0.329-1.933,1.412-2.167,2.769-2.631c3.026-1.036,6.595-1.358,8.473-5.017c-1.249-1.939-3.133-2.758-5.469-2.902
	c-2.08-0.128-7.496-2.348-8.915-3.76c-0.879-0.876-1.761-1.188-3.001-1.272c-5.317-0.361-8.283,0.099-13.738,2.467
	c0.307,0.36,0.602,0.703,0.895,1.046c-0.207,0.167-0.436,0.511-0.658,0.507c-3.459-0.064-6.057-1.772-8.188-4.473
	c-0.706-4.506,1.27-7.6,5.555-9.382c0.322,0.346,0.771,0.828,1.355,1.454c-1.351,0.961-2.719,1.934-4.076,2.899
	c1.333,2.275,1.289,2.051,3.657,1.584c2.793-0.55,5.271-1.665,7.839-2.824c2.88-1.3,6.119-1.841,9.633-0.884
	c-0.996,3.656,1.553,5.504,4.294,6.345c4.297,1.319,8.173,3.604,12.503,4.871c1.951,0.57,4.356-0.628,5.88,1.435
	c4.689,0.505,9.229,1.694,13.751,2.976c0.617,0.174,1.325,0.024,2.107,0.024c0.281,0.306,0.605,0.684,0.955,1.037
	c3.384,3.421,3.385,3.42-0.024,6.946c-0.389-2.014-2.414-2.021-3.63-3.02c-1.222-1.002-2.078-2.62-3.707-2.902
	c-1.617-0.281-3.32-0.062-4.985-0.062c-1.832,0-3.664,0-5.497-0.001c-2.761,1.988-4.58,5.003-7.721,6.662
	c-1.746,0.922-1.921,3.095-2.016,5.104c-0.207,4.364-0.031,8.879-1.15,13.025c-0.889,3.29-0.42,6.444-0.837,9.625
	c-0.349,2.663,0.418,5.165,1.479,7.391c1.233,2.585,0.762,5.112-0.687,6.704c-3.048,3.352-4.727,7.647-8.278,10.68
	c-3.055,2.609-5.982,5.205-9.791,6.617c-0.574,0.213-1.139,0.457-1.688,0.725C276.795,191.349,276.852,191.631,276.852,192.113z
	 M294.314,128.822c-0.113,0.113-0.318,0.223-0.323,0.34c-0.02,0.436-0.134,1.017,0.093,1.272c0.243,0.275,0.83,0.246,1.268,0.35
	c-0.119-0.453-0.186-0.93-0.378-1.349C294.856,129.183,294.542,129.021,294.314,128.822z"/>
<path fill-rule="evenodd" clip-rule="evenodd" d="M306.349,139.739c-1.386,1.697-0.886,4.109-2.9,5.332
	c-1.081-5.673-0.306-6.704,6.646-8.949c-0.392-0.683-0.758-1.32-1.123-1.957c0.354-0.353,0.706-0.707,0.738-0.739
	c0.929,0.929,1.894,1.894,2.858,2.859c6.413,0.518,11.394-2.733,16.79-3.677c1.83-0.32,3.366-2.321,5.144-3.633
	c1.19,0.552,1.234,1.504,0.234,2.803c1.645,2.963,4.62,4.097,7.602,4.961c5.299,1.536,10.538,3.51,16.235,3.102
	c0.477-0.034,1.01,0.734,1.775,1.331c-2.627,0.616-4.934,1.849-6.82,1.383c-1.549-0.382-3.222-0.277-4.599-0.866
	c-1.536-0.656-3.267-0.431-4.557-1.046c-3.631-1.731-7.383-1.731-11.226-1.924c-3.359-0.169-6.896,1.164-10.081-0.934
	c-1.632,1.117-4.193,0.467-5.355,3.065c1.997,2.294,2.73,5.316,2.048,8.324c-0.641,2.821,3.521,5.428-0.872,8.171
	c0.381,0.14,0.763,0.278,1.144,0.418c0.645-0.196,1.507-0.196,1.896-0.624c1.507-1.661,2.923-3.415,4.26-5.218
	c1.198-1.618,2.247-3.346,3.525-5.27c2.923,2.475,6.641,2.214,10.346,2.148c3.663-0.065,7.331,0.075,10.99-0.059
	c1.421-0.052,2.35,0.656,2.706,1.653c0.255,0.713-0.248,1.841-0.686,2.633c-1.847,3.337-4.724,5.807-7.403,8.421
	c-3.111,3.035-5.084,6.426-4.897,11.008c0.082,2.035-0.939,4.079,0.04,6.185c0.228,0.49,0.107,1.626-0.226,1.818
	c-2.113,1.216-1.662,3.355-2.423,5.23c-0.103-0.828-0.358-1.673-0.281-2.484c0.428-4.52-1.012-9.143,0.935-13.596
	c0.879-2.013-0.907-3.26-2.337-4.762c1.219-1.284,2.158-2.711,3.472-3.559c2.036-1.315,1.907-3.598,2.823-5.379
	c0.718-1.396-1.41-3.951-3.212-4.097c-1.655-0.134-3.329-0.028-4.783-0.028c-3.623,3.623-7.142,7.143-10.896,10.896
	c-0.351,6.747-0.351,6.747,1.973,10.366c-2.583,0.887-2.796,0.994-3.922-1.23c-0.696-1.377-1.151-1.264-2.276-0.383
	c0.647,1.191,1.27,2.434,1.984,3.619c0.649,1.074,1.4,2.087,2.367,3.51c-1.296,0.553-2.511,1.07-3.858,1.646
	c-0.349,1.876-0.749,4.027-1.162,6.247c-0.623,0.135-1.073,0.318-1.522,0.316c-4.636-0.023-4.516-0.095-3.719-4.853
	c0.265-1.577,0.99-3.013,1.075-4.565c0.127-2.324,0.081-4.662,0.024-6.992c-0.159-6.552,1.645-12.984,1.068-19.578
	c-0.198-2.271-0.224-4.429-1.811-6.269C311.601,141.617,309.901,140.505,306.349,139.739z"/>
<path fill-rule="evenodd" clip-rule="evenodd" d="M258.852,58.785c-1.871-3.633-6.126-4.292-8.738-7
	c-1.705,0.553-2-0.712-2.742-1.774c-0.289-0.415-1.938,0.119-3.235,0.248c-0.452-1.751-1.804-3.005-4.507-2.473
	c-0.074,0,0.074,0,0.223,0c-0.092-0.259-0.144-0.549-0.303-0.758c-0.047-0.062-0.395,0.104-0.605,0.166
	c0.154,0.197,0.309,0.395,0.686,0.592c0.154,0.897,0.547,2.451-1.038,1.928c-2.172-0.716-4.231-1.847-6.204-3.026
	c-0.354-0.212-0.05-1.521-0.05-2.562c-2.825-1.506-5.978-3.948-9.92-1.405c-2.065-2.148-4.101,0.259-6.116,0.325
	c-1.908,0.062-4.017,0.578-6.074,0.771c-3.125,0.293-4.32,1.773-4.375,5.039c-0.051,3.027-0.051,3.027-1.667,5.167
	c-0.604-3.914-1.173-7.595-1.828-11.829c-1.279,1.112-2.279,1.879-3.154,2.769c-1.108,1.128-2.225,1.245-3.416,0.249
	c-2.581-2.159-5.236-3.754-8.555-1.425c-3.822-0.796-7.22,1.021-10.599,2.125c-4.205,1.374-8.65,2.337-12.407,4.95
	c-0.729,0.507-1.723,0.638-2.601,0.921c-0.588,0.19-1.586,0.189-1.721,0.537c-1.372,3.545-5.916,2.555-7.672,5.467
	c-3.727,1.396-6.677,3.45-7.697,7.694c-0.268,1.114-1.703,2.214-3.007,0.466c-2.413,1.08-3.009,3.081-2.598,5.663
	c-1.005,0-1.788,0-2.686,0c-0.054-0.083-0.35-0.333-0.373-0.606c-0.183-2.163,0.187-4.217,1.952-5.647
	c1.871-1.516,2.988-3.773,5.505-4.753c1.16-0.451,1.701-2.495,2.522-3.816c0.951-0.117,2.264,0.125,2.794-0.41
	c3.741-3.775,8.737-5.599,13.049-8.463c3.005-1.996,6.724-3.133,10.284-3.99c1.885-0.454,3.502-1.174,5.234-1.897
	c2.413-1.007,5.002-1.681,7.579-2.175c1.396-0.268,2.729-0.606,4.096-0.968c4.449-1.176,8.968-2.181,13.636-2.106
	c2.997,0.048,6-0.084,8.991,0.055c1.208,0.056,2.392,0.881,3.586,0.881s2.372-0.729,3.589-0.875
	c0.718-0.086,1.587,0.186,2.233,0.562c2.824,1.645,2.804,1.68,5.012-0.613c1.98,2.734,1.959,2.804,5.306,3.867
	c5.44,1.729,10.655,4.036,15.933,6.173c2.851,1.154,4.916,3.949,8.301,4.112c0.246,0.012,0.467,0.447,0.708,0.676
	c6.81,6.478,13.729,12.847,20.376,19.487c2.572,2.569,4.529,5.754,6.77,8.656c0.101,0.131,0.354,0.269,0.333,0.351
	c-0.842,3.249,2.194,4.77,3.282,7.143c2.112,4.612,2.99,7.646,2.691,14.096c-0.818-1.369-1.267-2.197-1.787-2.977
	c-1.852-2.772-3.322-5.823-5.934-8.044c-0.75-0.638-1.791-1.326-1.979-2.155c-0.475-2.089-1.767-2.366-3.553-2.443
	c-0.858-0.038-1.689-0.708-3.297-1.439c2.549-1.238,4.434-2.152,6.787-3.294c0.197-1.853-1.023-3.571-2.539-5.272
	c-1.457-1.636-2.713-3.45-4.188-5.356c-0.824,0.611-1.323,0.981-1.881,1.395c-0.399-0.419-1.017-0.831-1.253-1.4
	c-0.139-0.333,0.611-1.021,0.48-1.371c-0.877-2.361-2.637-4.212-4.61-5.513c-1.929-1.271-3.517-2.81-5.207-4.3
	C260.268,58.815,259.469,58.902,258.852,58.785z"/>
<path fill-rule="evenodd" clip-rule="evenodd" d="M134.852,180.785c3.347,1.681,4.66,5.197,6.95,7.821
	c4.432,5.078,8.738,10.183,14.985,13.222c2.508,1.22,4.609,3.074,7.691,3.236c1.319,0.069,2.751,1.556,3.789,2.707
	c2.806,3.119,6.671,3.285,10.344,3.927c0.506,0.089,1.218-0.995,2.062-1.735c1.378,0.053,0.484,2.993,2.661,2.854
	c1.572-0.101,3.186,0.624,4.508,1.13c3.526,1.349,7.608,0.359,10.82,2.794c0.422,0.32,1.327,0.171,1.956,0.021
	c2.066-0.494,4.029-0.707,6.182-0.057c1.83,0.553,3.457-1.326,5.561-1.019c1.633,0.239,3.635,0.864,5.082-0.88
	c0.136-0.163,0.643-0.054,0.971-0.017c6.08,0.685,11.07-3.175,16.781-4.084c0.958-0.153,1.848-1.2,1.693-2.647
	c-0.158-1.479-0.086-2.992,0.01-4.482c0.019-0.283,0.621-0.528,0.955-0.791c0.256,1.54-0.689,3.309,1.041,4.568
	c1.961,1.428,3.262-0.39,4.752-0.934c2.158-0.786,3.857-2.502,6.382-2.725c1.716-0.152,2.031-1.855,1.847-3.481
	c1.262-1.13,3.385,0.45,4.422-1.372c2.051,0.849,0.84-3.145,3.319-1.738c-0.103,0.875,1.49,2.557-1.313,2.732
	c-3.598,3.664-8.244,5.934-12.18,9.153c-0.84,0.687-1.922,1.796-2.734,1.673c-3.607-0.547-6.311,1.79-9.461,2.615
	c-3.118,0.816-6.121,2.069-9.184,3.104c-0.588,0.199-1.219,0.393-1.828,0.385c-3.891-0.049-7.615,1.744-11.561,1.02
	c-5.247,1.98-10.759,1.246-16.035,0.818c-5.546-0.45-11.438-0.157-16.515-3.351c-1.781-1.12-3.919-0.422-5.944-1.314
	c-3.597-1.585-7.101-3.019-10.154-5.665c-2.701-2.34-5.842-4.223-8.952-6.028c-4.785-2.778-8.937-6.118-11.947-10.86
	c-1.367-2.152-3.233-3.985-4.836-5.992C135.89,184.039,134.819,182.66,134.852,180.785z"/>
<path fill-rule="evenodd" clip-rule="evenodd" d="M300.632,105.646c-0.969-2.031-0.468-4.155-1.707-6.053
	c-0.456-0.699-0.387-2.083-0.021-2.92c2.079-4.766,0.397-9.732,0.948-14.564c-1.778-3.381-0.668-7.036-1.012-10.552
	c-0.504-5.148-1.386-10.208-4.114-14.953c2.644-3.344,3.072-8.138,6.825-10.885c1.085,0.477,2.068,0.909,3.477,1.528
	c-0.317,0.916-0.617,1.897-0.994,2.849c-1.737,4.39-3.309,8.801-3.199,13.638c0.087,3.82-0.688,7.815,0.189,11.424
	c1.194,4.908,0.778,9.74,0.744,14.583C301.729,95.044,301.039,100.344,300.632,105.646z"/>
<path fill-rule="evenodd" clip-rule="evenodd" d="M249.441,153.678c-5.016,6.074-5.015,8.544,0.768,13.522
	c-0.74,0.246-1.241,0.451-1.762,0.573c-0.451,0.105-0.925,0.117-1.35,0.165c-0.103,0.433-0.326,0.808-0.223,1.028
	c1.088,2.313,2.503,4.167,4.957,5.429c3.045,1.566,5.763,3.77,8.754,5.786c0.254,1.269,0.552,2.761,0.873,4.37
	c-1.783,0.855-3.141-0.146-4.886-1.393c-4.056-2.894-7.296-6.586-10.812-10.01c-0.775-0.754-1.173-1.891-1.928-2.677
	c-3.26-3.397-1.37-7.023-0.562-10.601c0.51-2.257,1.645-4.187,3.557-5.494C247.531,153.898,248.561,153.898,249.441,153.678z"/>
<path fill-rule="evenodd" clip-rule="evenodd" d="M309.268,100.318c4.192-6.276,7.154-12.088,12.092-16.532
	c1.309,0,2.63,0,3.951-0.001c0.763,1.917,1.524,3.836,2.489,6.267c-1.686-0.751-3.026-1.348-4.647-2.07
	c-1.967,1.967-4.055,4.227-6.329,6.28C314.718,96.163,313.244,98.86,309.268,100.318z"/>
<path fill-rule="evenodd" clip-rule="evenodd" d="M22.854,131.525c-0.451-3.235,0.528-6.412-1.123-9.264
	c-0.145-0.25-0.127-0.704-0.002-0.981c1.461-3.233,1.065-6.413,0.021-9.685c-0.828-2.596,0.906-5.014,0.946-7.569
	c0.061-3.997-0.021-7.996,0.029-11.993c0.036-2.885,1.07-4.354,3.834-5.787c-0.284-1.691,0.031-4.033-0.959-4.924
	c-2.934-2.642-1.616-5.826-1.865-8.793c-0.463-5.502-0.791-11.016-1.184-16.654c-2.182-1.502-3.504-4.057-6.127-5.425
	c-1.091-0.569-2.322-2.562-1.396-4.868c1.094,0,2.329,0,3.896,0c-1.902-2.023-1.987-1.791-5.637-3.13
	c-1.227-0.45-3.171-0.757-3.61-2.759c-0.316-1.442-1.731-2.514-0.37-4.381c0.812-1.112,0.465-3.068,0.664-4.86
	c1.904,0.791,4.003,1.078,5.199,2.271c3.472,3.464,8.161,4.544,12.192,6.874c4.428,2.56,8.934,4.985,13.36,7.547
	c2.43,1.406,4.752,2.998,7.155,4.453c1,0.605,1.931,1.159,1.841,2.547c-0.381,5.897,1.37,11.641,1.107,17.581
	c-0.205,4.631-1.664,8.579-4.074,12.346c-0.589,0.921-1.572,1.794-1.696,2.775c-0.475,3.75-3.304,5.202-6.093,6.754
	c-0.534,0.297-1.132,0.478-1.809,0.757c-0.693-0.497-1.566-1.123-2.61-2.932c-0.554-0.478-0.872-0.124-0.797,0.01
	c0.245,0.435,0.633,0.789,0.967,1.174c-0.094-0.653-0.188-1.307-0.17-1.184c0.418,4.765,1.318,5.767,4.629,6.19
	c0.461,0.059,0.933,0.158,1.357,0.336c0.277,0.117,0.478,0.412,0.723,0.637c4.403-4.573,9.371-8.475,14.312-12.437
	c4.208-3.374,7.966-7.302,12.028-10.865c1.375-1.207,1.147-2.629,1.07-4.051c-0.03-0.544-0.97-1.115-0.896-1.579
	c0.813-5.115-1.913-9.712-2.054-14.672c-1.973-2.402-0.067-5.687-1.914-8.229c-0.555-0.763-0.205-2.284-0.066-3.433
	c0.679-5.595-1.214-11.011-1.055-16.581c0.16-5.625,0.035-11.259-0.596-16.967c-0.123,0.758-0.246,1.516-0.369,2.273
	c-0.279,1.705,0.625,3.518-0.902,5.173c-0.499,0.541-0.245,2.473,0.357,3.182c1.079,1.272-0.799,1.445-0.516,2.414
	c0.312,1.069-0.297,2.662,0.289,3.344c1.196,1.393,0.688,2.825,0.739,4.221c0.109,2.995-0.065,6,0.053,8.993
	c0.271,6.861,0.607,13.72,1.017,20.573c0.072,1.21,0.868,2.387,0.89,3.587c0.019,1.021-0.476,2.117-0.972,3.059
	c-0.298,0.567-1.035,0.903-1.787,1.516c0.564,0.662,1.225,1.438,1.896,2.226c-0.708,1.272-1.638,2.421-1.992,3.726
	c-0.336,1.241-0.072,2.646-0.072,4.336c-1.992,1.418-4.152,2.958-7.119,5.071c0.569-3.057-0.691-5.141,0.957-7.403
	c0.716-0.982,0.001-2.92,0.198-4.389c0.25-1.869-0.847-3.894,0.887-5.663c0.497-0.507,0.467-2.203-0.005-2.869
	c-1.967-2.772-0.55-5.78-0.837-8.644c-0.094-0.939,0.76-1.974,1.307-3.261c-3.648-1.661-6.602-3.921-9.615-6.143
	c-3.18-2.345-7.111-3.659-10.673-5.5c-5.08-2.626-10.375-4.943-15.12-8.083c-6.279-4.157-11.997-8.993-15.104-16.331
	c-0.929-2.192-1.045-3.759-0.178-5.846C6.649,6.357,7.538,3.232,8.633,0C6.432-0.016,5.312,1.637,4.784,3.282
	c-1.26,3.922-2.367,7.863-2.146,12.146c0.299,5.815,0.034,11.657,0.108,17.486c0.015,1.201,0.459,2.397,0.848,4.287
	C2.753,37.946,1.498,39.059,0,40.387c1.853,2.243,4.777,3.684,7.604,5.162c1.089,0.569,2.244,1.025,2.054,2.29
	c-0.402,2.676,1.477,4.022,3.095,5.2c3.617,2.633,5.315,5.942,4.994,10.4c-0.089,1.231-0.542,2.694,0.894,3.621
	c0.086,0.056,0.05,0.303,0.071,0.46l-1.701,10.29c-0.49,2.014-2.768,3.888-0.479,6.119c-2.324,2.707,1.787,4.277,1.18,6.68
	c-3.771-1.783-5.915-0.812-8.172,4.143c1.339-0.455,2.281-0.775,3.231-1.098c1.608,1.127,3.287,2.299,4.961,3.477
	c2.166,1.523,2.314,4.024,2.945,6.262c0.217,0.771-0.159,1.712,0.07,2.476c0.775,2.58-2.478,5.115-0.035,7.667
	c0,2.995,0,5.99,0,8.985c0,2.829,0,5.657,0,8.835C19.529,132.046,24.204,130.771,22.854,131.525"/>
<g>
	<path d="M72.821,202.728c-1.791-0.13-5.525-1.031-10.509-3.014c-11.546-4.596-21.395-12.893-23.529-21.805
		c-2.036-8.508,5.275-10.814,17.977-5.762c5.104,2.031,8.499,4.038,10.014,5.078l-0.593,2.355c-2.158-1.442-5.13-3.062-8.534-4.418
		c-9.604-3.822-15.009-2.286-13.299,4.852c1.59,6.652,8.388,13.225,18.353,17.191c3.221,1.28,6.398,2.142,8.36,2.304L72.821,202.728
		z"/>
	<path d="M73.244,179.437c2.587,0.7,6.368,2.021,10.015,3.473c5.651,2.248,9.462,4.385,12.38,6.932
		c2.354,2.032,3.953,4.348,4.456,6.443c0.859,3.588-1.976,4.614-6.06,3.865l0.029,0.121c3.334,1.984,5.683,4.669,7.33,7.879
		c2.245,4.32,3.845,7.33,4.946,8.716l-5.469-2.175c-0.852-1.033-2.324-3.733-4.289-7.582c-2.112-4.232-4.638-6.514-9.468-8.545
		l-4.983-1.982l2.818,11.774l-5.288-2.104L73.244,179.437z M81.495,193.919l5.407,2.152c5.653,2.248,8.747,1.617,8.004-1.487
		c-0.841-3.509-5.034-6.562-10.636-8.827c-2.552-1.018-4.337-1.58-5.15-1.758L81.495,193.919z"/>
	<path d="M130.465,214.935l-15.922-6.335l2.344,9.798l17.745,7.061l0.705,2.943l-23.031-9.162l-6.506-27.18l22.121,8.801
		l0.706,2.945l-16.834-6.697l2.055,8.588l15.923,6.334L130.465,214.935z"/>
	<path d="M146.799,225.23l-2.208,6.855l-5.469-2.176l7.411-21.641l6.382,2.537l20.48,32.741l-5.65-2.249l-6.42-10.289
		L146.799,225.23z M159.575,227.832l-5.882-9.418c-1.338-2.137-2.331-3.992-3.315-5.809l-0.121-0.046
		c-0.222,1.371-0.494,2.757-0.889,4.097l-2.13,6.269L159.575,227.832z"/>
	<path d="M176.761,222.996l-12.456-4.957l-0.715-2.984l30.324,12.066l0.715,2.984l-12.519-4.982l5.789,24.195l-5.346-2.126
		L176.761,222.996z"/>
	<path d="M203.741,231.029l6.505,27.18l-5.286-2.104l-6.506-27.18L203.741,231.029z"/>
	<path d="M251.169,261.938c2.238,9.354-5.142,10.906-15.596,6.747c-10.818-4.305-19.747-12.892-21.716-21.117
		c-2.064-8.631,4.668-11.058,15.605-6.707C240.646,245.31,249.236,253.873,251.169,261.938z M219.49,249.736
		c1.391,5.807,7.375,12.895,15.701,16.207c8.388,3.338,11.9,0.102,10.426-6.067c-1.296-5.404-6.899-12.741-15.712-16.247
		C221.153,240.146,218.062,243.768,219.49,249.736z"/>
	<path d="M261.312,278.526l-6.505-27.181l5.772,2.297l16.418,18.977c3.803,4.394,6.856,8.199,9.467,11.758l0.111,0.004
		c-1.354-3.82-2.268-7.177-3.28-11.411l-2.721-11.369l4.983,1.981l6.504,27.178l-5.349-2.127l-16.306-18.965
		c-3.579-4.16-7.058-8.354-9.828-12.119l-0.174-0.032c1.125,3.548,2.028,6.862,3.109,11.378l2.779,11.615L261.312,278.526z"/>
	<path d="M299.589,289.887c2.603,1.913,6.259,4.097,9.906,5.55c5.407,2.149,8.116,1.514,7.457-1.231
		c-0.605-2.539-3.142-4.861-9.01-8.472c-7.062-4.234-11.742-8.177-12.661-12.006c-1.014-4.235,3.522-5.277,11.482-2.109
		c4.193,1.668,7.389,3.521,9.374,4.935l-0.773,2.282c-1.452-1.016-4.381-2.911-8.087-4.387c-5.593-2.223-7.188-0.854-6.744,1
		c0.608,2.541,3.398,4.784,9.398,8.484c7.354,4.532,11.408,8.149,12.363,12.143c1.004,4.195-2.807,5.961-12.471,2.115
		c-3.949-1.568-8.447-4.053-10.867-5.891L299.589,289.887z"/>
</g>
</svg>
