<?xml version="1.0" encoding="UTF-8" standalone="no"?>
<svg width="745px" height="560px" viewBox="0 0 745 560" version="1.1" xmlns="http://www.w3.org/2000/svg" xmlns:xlink="http://www.w3.org/1999/xlink" xmlns:sketch="http://www.bohemiancoding.com/sketch/ns">
    <!-- Generator: Sketch 3.2.2 (9983) - http://www.bohemiancoding.com/sketch -->
    <title>Speed Wobbles logo</title>
    <desc>Created with Sketch.</desc>
    <defs></defs>
    <g id="Page-1" stroke="none" stroke-width="1" fill="none" fill-rule="evenodd" sketch:type="MSPage">
        <g id="Speed-Wobbles-logo" sketch:type="MSLayerGroup" transform="translate(371.927152, 281.360207) rotate(-270.000000) translate(-371.927152, -281.360207) translate(65.427152, -115.139793)">
            <path d="M211.854,722.109 C207.12,717.486 203.636,718.569 199.876,724.029 C189.347,739.312 176.647,752.398 160.194,759.868 C134.075,771.723 108.333,771.376 84.012,753.843 C84.012,753.844 84.094,753.933 84.094,753.933 C70.394,748.709 62.029,736.407 52.377,725.991 C34.046,706.212 26.667,681.656 25.956,654.167 C25.45,634.552 27.659,615.951 35.847,597.933 C49.047,568.88 68.153,548.152 98.797,542.342 C106.086,540.961 110.558,537.858 113.302,530.132 C115.145,524.944 118.958,520.064 122.959,516.382 C127.629,512.082 128.983,508.106 128.292,501.397 C127.694,495.589 130.382,489.396 131.616,483.371 L131.557,483.433 C134.75,478.165 138.337,473.112 140.972,467.539 C142.289,464.753 143.094,460.457 142.03,457.809 C133.94,437.666 125.336,417.759 116.879,397.785 C113.419,389.615 113.471,381.29 116.351,373.061 C118.172,367.859 116.403,365.415 112.011,363.317 C90.672,353.125 82.989,336.206 88.662,311.869 C96.371,278.809 114.897,252.479 135.146,227.307 C139.639,221.72 144.665,216.625 149.445,211.303 L149.389,211.36 C152.92,207.763 156.076,203.552 160.082,200.728 C164.702,197.468 165.92,194.479 163.207,189.05 C159.949,182.533 157.286,175.652 154.64,168.808 C146.564,147.928 149.876,127.173 155.794,106.62 C162.665,82.769 175.612,62.618 191.884,45.341 C213.107,22.808 238.945,19.316 266.84,28.399 C266.841,28.399 266.779,28.334 266.779,28.334 C276.393,33.645 286.671,37.954 295.393,44.602 C301.714,49.418 306.912,48.286 311.401,44.451 C325.23,32.633 340.603,30.231 357.409,33.356 C392.938,39.961 420.166,69.131 424.913,105.927 C427.138,123.173 421.449,138.344 413.222,152.469 C410.035,157.941 410.908,160.569 415.474,163.901 C422.414,168.962 429.01,174.578 435.647,180.104 C445.474,188.285 449.287,198.836 445.234,211.694 C443.616,216.825 445.33,219.551 448.874,222.363 C455.23,227.404 461.971,232.119 467.459,238.115 C473.039,244.213 477.185,251.791 482.189,258.525 C484.561,261.715 487.375,264.558 490.156,267.371 C500.839,278.179 511.719,288.767 522.19,299.801 C524.073,301.782 524.369,305.488 525.397,308.397 C524.895,308.935 524.391,309.468 523.891,310.005 L523.833,309.941 C524.332,309.403 524.833,308.867 525.336,308.328 C529.386,318.942 525.217,327.87 520.365,336.728 C515.995,344.713 511.902,352.874 507.483,360.826 C505.14,365.039 505.72,368.196 508.333,372.307 C513.853,380.994 519.133,389.981 523.429,399.41 C529.168,412.011 524.611,426.978 513.379,435.878 C508.415,439.81 503.063,443.316 498.682,447.888 C496.438,450.231 494.535,454.665 494.873,457.865 C498.608,493.038 488.797,513.545 459.944,529.593 C459.944,529.595 460.003,529.532 460.003,529.532 C457.757,532.514 458.493,534.336 461.549,536.284 C473.648,544.008 485.599,551.996 497.586,559.918 C501.161,562.282 504.778,564.591 508.196,567.198 C518.869,575.337 522.261,586.087 517.424,599.21 C505.249,632.223 485.606,658.472 456.585,676.578 C441.037,686.276 426.639,698.094 411.057,707.724 C386.132,723.127 361.622,739.694 333.966,749.188 C320.359,753.857 307.747,750.857 298.658,738.223 C293.795,731.464 288.866,731.264 281.405,732.799 C267.951,735.574 254.073,737.368 240.407,737.148 C229.428,736.971 219.852,730.353 211.798,722.048 C211.797,722.049 211.854,722.109 211.854,722.109 L211.854,722.109 Z M445.122,555.05 C440.463,551.635 436.037,547.751 431.085,544.928 C425.142,541.538 425.774,537.289 427.692,531.658 C432.252,518.26 441.986,510.627 452.841,503.745 C471.727,491.776 478.038,474.812 469.217,454.996 C464.844,445.175 467.449,438.969 475.985,432.52 C482.048,427.938 487.988,423.12 494.332,419.033 C500.9,414.805 503.061,408.81 499.086,402.375 C494.002,394.143 488.036,386.272 481.314,379.552 C476.075,374.315 474.722,370.697 478.429,363.523 C484.88,351.04 490.236,337.872 495.539,324.756 C499.745,314.357 498.616,308.658 490.596,301.432 C483.649,295.17 475.743,290.143 468.619,284.084 C464.683,280.739 461.14,276.685 458.061,272.417 C455.119,268.341 453.764,262.73 450.391,259.277 C440.958,249.629 431.065,240.449 420.924,231.654 C411.611,223.577 411.239,223.154 417.632,211.784 C422.075,203.891 421.675,200.868 414.471,195.343 C405.835,188.72 396.841,182.633 388.184,176.041 C382.866,171.992 377.882,167.434 369.824,160.637 C378.425,152.914 385.787,146.305 393.146,139.696 L393.059,139.782 C405.452,119.655 405.322,105.361 392.293,85.541 C389.314,81.01 386.154,76.466 382.407,72.69 C369.304,59.474 341.299,50.109 322.577,67.172 C313.98,75.007 306.673,84.456 298.684,93.069 C292.961,99.241 287.321,105.556 281.088,111.091 C279.573,112.437 273.927,111.731 273.551,110.637 C272.522,107.656 272.019,102.37 273.628,100.889 C276.695,98.064 281.394,97.294 285.38,95.581 C288.582,94.206 294.04,93.213 294.442,91.146 C295.355,86.442 295.518,79.245 292.877,76.52 C285.352,68.764 277.03,60.965 267.657,56.377 C243.495,44.55 217.751,51.481 202.079,74.386 C193.1,87.508 185.493,102.189 179.772,117.259 C173.169,134.654 173.241,153.487 181.416,170.551 C186.996,182.202 195.047,192.493 201.945,203.426 C202.826,204.822 203.411,206.431 204.581,208.875 C191.382,211.309 180.178,216.127 170.949,225.73 C152.812,244.604 139.791,267.434 126.977,290.37 C121.803,299.633 117.274,309.516 113.895,319.669 C110.263,330.58 114.208,337.441 124.191,341.515 C131.816,344.625 139.341,348.022 146.984,351.073 C163.909,357.83 159.744,358.583 150.531,369.243 C142.505,378.531 140.254,387.565 145.763,399.326 C154.967,418.972 163.245,439.111 172.181,458.904 C174.428,463.876 174.563,467.75 170.622,471.69 C166.834,475.48 163.42,479.697 159.762,483.639 C151.438,492.61 151.632,498.829 160.524,506.848 C162.873,508.965 165.144,511.184 167.965,513.839 C162.857,517.67 158.708,520.933 154.421,523.967 C142.307,532.548 133.973,543.64 132.116,559.696 C131.864,561.86 128.774,564.824 126.574,565.342 C118.886,567.15 110.859,567.404 103.254,569.483 C96.406,571.351 88.942,573.428 83.49,577.865 C62.578,594.881 50.454,618.157 51.115,646.212 C52.155,690.329 72.304,723.157 113.062,736.951 C130.02,742.688 146.771,741.655 161.708,729.277 C175.774,717.618 184.96,702.232 192.761,685.433 C203.446,662.427 214.777,639.768 225.856,616.977 C228.411,611.723 232.64,610.073 237.739,611.562 C242.701,613.014 243.531,617.283 243.489,622.226 C243.339,639.624 234.71,650.728 219.375,657.817 C206.462,663.786 203.653,670.291 212.445,682.293 C231.293,708.022 261.948,719.011 291.537,700.226 C296.18,697.279 298.98,698.062 302.216,702.343 C305.936,707.266 310.239,711.694 314.395,716.226 C318.695,720.914 323.817,721.968 329.36,719.178 C342.104,712.758 355.322,707.163 367.37,699.473 C395.166,681.731 422.626,663.342 449.743,644.424 C467.217,632.235 481.194,616.297 489.27,595.09 C491.601,588.968 491.22,584.35 485.71,580.826 C480.64,577.582 475.571,574.33 470.491,571.103 C462.02,565.722 453.538,560.358 445.063,554.986 L445.122,555.05 L445.122,555.05 Z M354.868,38.793 L354.959,39.483 L355.306,39.072 L354.868,38.793 L354.868,38.793 Z" id="Shape" fill="#000000" sketch:type="MSShapeGroup"></path>
            <path d="M556.551,338.702 C562.055,346.822 562.78,346.614 570.236,340.068 C573.046,337.601 577.163,336.844 580.686,335.305 C579.256,338.99 578.187,342.903 576.296,346.289 C574.468,349.561 571.792,352.289 568.858,356.072 C574.746,358.956 579.683,361.375 584.621,363.792 C584.505,364.557 584.388,365.323 584.27,366.086 C581.777,366.435 579.289,367 576.788,367.086 C572.052,367.251 570.434,369.257 572.498,374.128 C573.719,377.019 574.933,379.951 575.757,382.985 C579.209,395.66 571.595,404.87 559.752,400.821 C553.108,398.547 547.64,392.34 541.643,387.905 C541.643,387.906 541.724,387.99 541.724,387.99 C540.288,385.868 538.662,383.863 537.454,381.601 C535.131,377.252 535.916,373.999 540.83,372.696 C547.457,370.941 554.089,369.217 560.984,365.786 C555.809,364.44 550.676,362.849 545.449,361.816 C539.258,360.593 536.976,357.035 538.667,350.584 C539.797,346.272 540.636,341.804 542.311,337.741 C543.684,334.418 546.1,331.589 548.05,328.541 C550.362,331.365 552.674,334.188 554.983,337.013 L555.032,336.925 C555.559,337.498 556.089,338.072 556.616,338.645 L556.551,338.702 L556.551,338.702 Z M561.422,391.325 C562.377,390.536 566.547,388.846 567.206,386.168 C568.398,381.334 562.144,376.098 556.011,376.684 C552.837,376.986 548.244,378.455 547.112,380.897 C545.342,384.711 553.193,391.236 561.422,391.325 L561.422,391.325 Z M551.396,353.258 C552.254,353.017 553.112,352.776 553.967,352.536 C553.308,350.05 552.65,347.562 551.99,345.075 C551.151,345.315 550.315,345.556 549.476,345.796 C550.116,348.283 550.758,350.771 551.396,353.258 L551.396,353.258 Z" id="Shape" fill="#000000" sketch:type="MSShapeGroup"></path>
            <path d="M571.396,434.167 C576.832,442.603 575.486,456.569 567.992,461.962 C563.048,465.521 563.481,468.654 565.763,473.619 C568.608,479.817 570.478,486.53 572.77,493.02 L572.831,492.957 C562.4,487.226 551.312,487.06 540.018,488.438 C532.231,489.387 530.663,487.201 532.789,478.593 L532.727,478.657 C534.67,473.027 536.353,467.271 538.635,461.805 C540.416,457.549 540.776,454.397 537.38,450.527 C532.865,445.386 533.385,440.862 538.478,432.321 C540.23,435.937 541.714,439.004 543.201,442.068 L543.14,442.004 C546.648,440.429 550.155,438.851 554.502,436.898 C556.166,440.872 558.112,445.515 561.184,452.848 C563.657,447.777 565.301,444.499 566.858,441.176 C567.942,438.862 568.907,436.484 569.925,434.134 L569.823,434.072 C570.385,434.072 570.945,434.072 571.506,434.074 L571.396,434.167 L571.396,434.167 Z M543.078,478.38 C547.047,478.588 550.453,479.077 553.807,478.812 C555.458,478.68 557.014,477.151 558.614,476.252 C557.534,474.081 556.972,470.984 555.283,469.907 C549.659,466.314 544.872,469.379 543.078,478.38 L543.078,478.38 Z" id="Shape" fill="#000000" sketch:type="MSShapeGroup"></path>
            <path d="M561.009,545.503 C545.209,543.128 529.418,540.641 513.586,538.545 C511.792,538.308 509.817,540.58 507.795,541.146 C505.827,541.696 503.4,542.232 501.744,541.431 C500.855,540.999 500.351,537.296 501.056,535.832 C505.228,527.183 509.339,518.422 514.404,510.37 C517.999,504.651 525.403,503.904 530.955,508.322 C535.011,511.549 538.159,516.076 541.712,520.021 C541.715,520.021 541.654,519.958 541.654,519.958 C543.962,522.241 546.267,524.522 549.519,527.74 C551.831,522.849 553.477,518.56 555.817,514.76 C556.901,512.999 559.334,512.192 561.158,510.95 C561.81,513.275 563.303,515.773 562.921,517.885 C562.33,521.169 560.43,524.173 559.146,527.323 C556.658,533.428 558.164,537.595 564.357,539.447 C568.641,540.726 572.919,542.023 577.2,543.312 C577.058,544.463 576.921,545.614 576.779,546.764 C571.508,546.326 566.237,545.889 560.963,545.449 L561.009,545.503 L561.009,545.503 Z M537.202,535.546 C538.601,534.831 540.823,533.696 543.047,532.564 C541.643,530.626 540.442,528.453 538.782,526.812 C536.817,524.866 534.401,523.457 532.279,521.68 C524.924,515.515 520.407,516.866 517.612,526.624 C517.178,528.135 518.834,531.769 520.115,532.153 C525.271,533.692 530.662,534.339 537.202,535.546 L537.202,535.546 Z" id="Shape" fill="#000000" sketch:type="MSShapeGroup"></path>
            <path d="M544.341,303.856 C541.643,293.533 538.196,283.33 536.709,272.811 C536.271,269.71 540.709,264.577 544.057,262.327 C556.718,253.814 568.266,261.359 579.737,266.653 C580.508,267.009 581.001,270.966 580.259,271.736 C569.5,282.858 558.514,293.72 547.58,304.643 C546.5,304.381 545.421,304.119 544.341,303.856 L544.341,303.856 Z M570.045,273.031 C565.399,266.521 560.346,264.99 554.786,266.774 C548.091,268.921 547.653,275.523 547.055,281.593 C546.466,287.53 549.304,289.126 553.665,286.104 C559.183,282.282 564.249,277.712 570.045,273.031 L570.045,273.031 Z" id="Shape" fill="#000000" sketch:type="MSShapeGroup"></path>
            <path d="M514.642,233.522 C517.071,234.994 519.497,236.466 522.957,238.564 C520.748,232.339 518.94,227.244 517.133,222.147 C517.822,221.639 518.509,221.131 519.199,220.623 C521.59,222.984 523.64,226.205 526.461,227.498 C530.376,229.296 535.647,231.635 538.94,230.163 C544.142,227.839 541.928,221.932 539.727,217.758 C537.077,212.727 533.789,208.085 529.696,201.549 C533.486,201.926 535.423,201.496 536.068,202.282 C541.421,208.802 547.119,215.155 551.369,222.456 C552.691,224.729 550.982,230.943 548.764,233.29 C543.01,239.373 536.198,244.3 529.812,249.699 C526.281,252.687 522.986,252.69 520.303,248.554 C517.526,244.272 514.952,239.836 512.29,235.467 C513.073,234.819 513.858,234.17 514.642,233.522 L514.642,233.522 Z" id="Shape" fill="#000000" sketch:type="MSShapeGroup"></path>
            <path d="M558.852,237.974 C557.982,239.904 557.531,242.307 556.174,243.682 C550.11,249.821 543.963,255.91 537.424,261.438 C535.87,262.753 532.672,261.837 530.232,261.946 C531.345,259.854 532.016,257.181 533.642,255.766 C541.312,249.086 549.246,242.752 557.085,236.294 C557.676,236.854 558.264,237.413 558.852,237.974 L558.852,237.974 Z" id="Shape" fill="#000000" sketch:type="MSShapeGroup"></path>
            <path d="M537.183,497.75 C546.104,495.573 554.636,496.86 563.529,502.684 C560.626,503.83 557.715,505.943 554.829,505.904 C549.955,505.837 544.993,504.793 540.3,503.319 C538.889,502.876 538.241,499.643 537.244,497.688 C537.243,497.686 537.183,497.75 537.183,497.75 L537.183,497.75 Z" id="Shape" fill="#000000" sketch:type="MSShapeGroup"></path>
            <path d="M513.493,205.127 C511.039,206.057 510.134,206.695 509.271,206.638 C508.537,206.588 507.852,205.734 507.144,205.237 C507.658,204.5 508.051,203.386 508.72,203.139 C509.306,202.924 510.202,203.688 513.493,205.127 L513.493,205.127 Z" id="Shape" fill="#000000" sketch:type="MSShapeGroup"></path>
            <path d="M542.204,563.04 C541.322,561.785 540.793,561.032 540.265,560.277 C541.094,559.631 541.922,558.981 542.753,558.331 C543.25,559.116 544.116,559.899 544.125,560.691 C544.134,561.335 543.112,561.994 542.204,563.04 L542.204,563.04 Z" id="Shape" fill="#000000" sketch:type="MSShapeGroup"></path>
            <path d="M551.396,353.258 C550.758,350.771 550.117,348.282 549.477,345.796 C550.316,345.556 551.152,345.316 551.991,345.075 C552.65,347.562 553.308,350.05 553.968,352.536 C553.111,352.776 552.254,353.018 551.396,353.258 L551.396,353.258 Z" id="Shape" fill="#FFFFFF" sketch:type="MSShapeGroup"></path>
            <path d="M537.202,535.546 C530.662,534.339 525.271,533.692 520.115,532.153 C518.834,531.768 517.178,528.134 517.612,526.624 C520.407,516.865 524.924,515.515 532.279,521.68 C534.401,523.456 536.817,524.866 538.782,526.812 C540.441,528.453 541.642,530.625 543.047,532.564 C540.823,533.696 538.602,534.831 537.202,535.546 L537.202,535.546 Z" id="Shape" fill="#FFFFFF" sketch:type="MSShapeGroup"></path>
            <path d="M570.045,273.031 C564.249,277.712 559.183,282.281 553.665,286.104 C549.304,289.125 546.466,287.53 547.055,281.593 C547.654,275.523 548.091,268.922 554.786,266.774 C560.346,264.99 565.399,266.521 570.045,273.031 L570.045,273.031 Z" id="Shape" fill="#FFFFFF" sketch:type="MSShapeGroup"></path>
            <path d="M315.797,638.688 C316.506,648.725 310.769,665.452 299.856,680.472 C279.913,707.917 238.38,707.659 219.172,679.884 C213.536,671.735 214.041,669.155 222.84,665.322 C237.697,658.854 247.026,647.179 250.949,630.824 C252.063,626.176 251.786,620.725 250.761,615.988 C247.701,601.88 233.745,596.781 224.566,607.304 C217.69,615.187 213.038,625.447 208.058,635.043 C196.296,657.71 184.854,680.57 173.42,703.432 C159.206,731.848 138.522,735.99 113.103,727.601 C77.464,715.841 57.601,685.169 58.945,645.312 C59.866,617.956 69.885,594.662 92.758,581.312 C116.25,567.603 139.904,566.815 161.715,584.713 C170.132,591.621 169.566,595.374 159.695,599.634 C153.529,602.297 149.338,607.062 149.896,613.933 C150.225,617.987 153.097,622.79 156.194,625.376 C161.398,629.723 168.199,629.222 172.531,624.105 C180.96,614.15 188.276,603.127 196.288,592.753 C203.813,583.012 210.83,572.572 219.551,564.21 C229.531,554.639 242.146,551.671 255.67,554.481 C268.796,557.209 282.878,558.579 292.898,568.687 C308.957,584.895 315.575,605.961 315.797,638.688 L315.797,638.688 Z" id="Shape" fill="#000000" sketch:type="MSShapeGroup"></path>
            <path d="M479.318,596.332 C476.813,600.098 474.31,603.863 471.804,607.629 L471.67,607.213 L471.837,607.567 C464.9,614.986 457.966,622.403 451.031,629.823 L451.088,629.764 C432.058,644.427 413.797,660.463 393.781,673.379 C373.343,686.569 351.123,696.574 329.809,708.244 C323.376,711.765 318.48,710.376 314.06,704.793 C312.301,702.572 310.53,700.346 308.606,698.293 C304.242,693.647 304.094,689.553 307.828,683.768 C319.057,666.362 324.972,646.809 324.754,625.556 C324.69,619.32 323.065,613.031 321.655,606.901 C320.278,600.925 322.107,598.033 327.689,596.837 C346.846,592.735 364.319,584.221 380.789,573.123 C388.319,568.05 388.602,564.903 381.59,559.077 C377.949,556.052 374.225,553.14 369.983,549.735 C374.738,543.506 379.027,537.889 384.613,530.574 C378.526,528.79 373.935,526.275 369.377,526.343 C358.059,526.509 346.717,527.503 335.465,528.892 C330.803,529.467 327.846,528.57 324.461,524.878 C319.494,519.467 313.724,514.778 307.838,510.501 C302.88,506.893 298.125,507.567 293.032,512.076 C288.195,516.357 282.226,519.549 276.293,521.86 C273.814,522.825 268.973,521.339 267.227,519.134 C261.694,512.145 256.507,504.652 252.352,496.658 C248.946,490.106 251.039,486.082 258.239,484.726 C271.362,482.253 284.586,479.333 297.831,478.9 C336.535,477.635 374.922,480.752 412.253,492.921 C416.023,494.149 419.78,495.602 423.315,497.446 C433.161,502.587 433.26,502.741 429.816,513.49 C427.495,520.742 424.901,527.912 422.038,534.936 C418.148,544.473 420.028,549.654 428.549,554.587 C431.623,556.365 433.696,560.122 436.226,562.978 L436.173,562.918 C438.713,563.606 441.492,563.799 443.75,565.064 C454.891,571.306 465.868,577.877 476.949,584.24 C482.413,587.376 483.039,591.377 479.233,596.418 L479.318,596.332 L479.318,596.332 Z" id="Shape" fill="#000000" sketch:type="MSShapeGroup"></path>
            <path d="M204.418,322.757 C195.581,321.265 189.387,325.906 183.872,332.572 C180.601,336.526 176.869,340.042 173.361,343.772 C169.883,347.472 165.984,348.998 161.279,346.558 C161.278,346.559 161.336,346.622 161.336,346.622 C150.396,342.519 139.428,338.496 128.524,334.285 C122.507,331.963 120.416,327.303 123.238,321.075 C139.479,285.241 156.363,249.527 186.376,224.381 C204.836,208.915 227.318,200.525 250.281,208.16 C281.346,218.487 304.896,239.74 315.146,274.552 C318.782,286.906 322.054,299.383 325.562,311.78 C328.077,320.664 326.039,327.926 319.155,333.628 C316.812,335.569 314.673,337.809 312.246,339.615 C300.621,348.266 300.748,348.028 289.499,338.461 C286.429,335.852 282.2,333.529 278.432,333.394 C269.325,333.066 267.84,335.202 266.691,345.433 C266.443,347.636 265.804,349.789 265.345,351.967 C264.694,352.04 264.042,352.112 263.392,352.186 C262.118,347.856 260.724,343.559 259.603,339.184 C258.352,334.304 256.02,331.164 250.816,331.432 C245.395,331.711 242.892,334.951 242.241,340.417 C241.791,344.206 241.174,347.974 240.634,351.751 C240.017,351.727 239.403,351.702 238.786,351.677 C238.639,348.972 238.349,346.264 238.372,343.563 C238.46,332.333 237.1,330.708 226.575,328.358 C219.13,326.696 211.768,324.603 204.369,322.703 L204.418,322.757 L204.418,322.757 Z M292.916,315.792 C292.961,315.505 293.004,315.218 293.049,314.93 C294.777,314.93 296.503,314.919 298.229,314.932 C299.957,314.946 301.688,315.092 303.409,314.989 C309.627,314.616 311.016,312.161 308.274,306.514 C299.839,289.135 278.578,287.1 267.364,302.451 C263.538,307.688 264.994,310.979 270.35,312.169 C277.786,313.819 285.386,314.626 292.916,315.792 L292.916,315.792 Z" id="Shape" fill="#000000" sketch:type="MSShapeGroup"></path>
            <path d="M309.856,92.029 C319.322,77.406 330.764,64.516 348.48,65.268 C367.494,66.077 381.204,78.009 389.492,96.204 C400.131,119.561 392.731,141.532 370.868,153.091 C369.544,153.792 368.03,154.944 366.751,154.751 C358.034,153.443 349.357,151.831 339.551,150.125 C343.004,148.341 345.818,147.028 348.507,145.47 C356.473,140.853 359.266,130.406 354.78,122.316 C348.877,111.672 340.246,111.123 333.883,121.562 C329.304,129.08 325.988,137.474 321.555,145.111 C318.891,149.701 314.758,153.306 312.038,157.869 C309.68,161.832 308.383,166.523 306.346,171.563 C305.552,169.325 304.618,167.079 303.947,164.745 C302.426,159.455 299.738,155.849 294.058,155.751 C288.534,155.655 284.547,157.796 282.4,163.555 C278.183,174.875 273.515,186.012 269.616,197.451 C267.608,203.344 264.991,205.936 259.199,203.389 C246.452,197.781 233.395,196.636 219.905,199.937 C209.809,202.408 202.647,197.02 197.116,188.764 C180.105,163.368 180.937,136.177 191.213,108.599 C194.478,99.839 199.137,91.475 204.218,83.726 C219.158,60.942 244.128,53.594 267.893,64.664 C273.533,67.291 279.062,70.556 283.953,74.505 C286.298,76.396 288.123,80.599 288.057,83.701 C288.021,85.353 283.61,87.714 280.892,88.334 C271.196,90.544 265.814,95.657 263.91,105.759 C262.687,112.238 263.728,117.9 269.503,121.627 C275.432,125.456 280.433,123.594 284.795,118.655 C290.742,111.921 296.471,104.961 302.491,98.302 C304.674,95.889 307.422,94.065 309.91,91.97 L309.856,92.029 L309.856,92.029 Z" id="Shape" fill="#000000" sketch:type="MSShapeGroup"></path>
            <path d="M177.683,446.862 C176.11,444.591 174.114,442.527 173.033,440.015 C166.528,424.883 160.068,409.721 153.992,394.39 C152.653,391.01 152.917,386.9 152.442,383.126 C152.441,383.126 152.357,383.214 152.357,383.214 C155.686,378.66 158.794,373.894 162.388,369.592 C170.788,359.547 179.384,349.689 187.973,339.825 C193.818,333.113 200.794,330.067 209.398,332.726 C210.58,333.091 211.831,333.186 213.043,333.447 C229.258,336.928 229.013,336.97 231.444,354.204 C231.87,357.223 235.005,361.619 237.454,362.102 C241.92,362.981 246.171,360.461 247.178,354.656 C247.918,350.401 248.569,346.128 249.259,341.862 C250.181,341.675 251.104,341.487 252.024,341.301 C253.219,344.359 254.809,347.314 255.524,350.493 C256.881,356.539 258.291,361.634 265.84,361.136 C273.061,360.662 273.819,355.748 274.449,349.8 C275.301,341.746 278.768,340.214 284.765,345.546 C302.647,361.443 320.291,377.645 338.085,393.656 C341.844,397.038 342.748,400.805 340.689,405.617 C337.036,414.156 333.543,422.772 329.21,433.221 C324.644,428.009 321.759,424.177 318.352,420.985 C315.292,418.118 311.947,414.71 308.223,413.721 C298.413,411.115 294.46,415.405 292.75,428.78 C288.586,424.725 284.96,418.787 280.008,416.959 C273.183,414.44 269.07,419.642 267.653,427.519 C266.941,423.015 266.71,418.336 265.356,414.068 C264.333,410.85 262.252,406.059 259.982,405.585 C247.896,403.059 235.425,397.642 223.701,407.079 C223.701,407.081 223.757,407.02 223.757,407.02 C213.125,421.087 202.519,435.179 191.831,449.198 C190.287,451.224 188.349,452.906 186.592,454.746 C186.592,454.749 186.554,454.788 186.554,454.788 C179.179,462.688 180.205,452.543 177.671,450.047 L177.625,450.079 C177.624,449.494 177.622,448.911 177.62,448.328 L177.673,448.39 C177.656,447.86 177.641,447.328 177.624,446.8 L177.683,446.862 L177.683,446.862 Z" id="Shape" fill="#000000" sketch:type="MSShapeGroup"></path>
            <path d="M490.6,317.288 C489.713,320.123 489.371,321.978 488.593,323.588 C483.475,334.165 478.075,344.589 473.152,355.267 C470.255,361.553 467.296,361.302 462.185,357.753 C449.526,348.957 436.328,341.756 421.157,338.183 C404.072,334.159 390.548,341.512 382.279,359.017 C379.261,365.404 377.033,366.891 370.691,363.059 C359.157,356.092 346.337,359.256 336.698,370.948 C332.806,375.667 330.112,375.762 325.673,372.18 C303.722,354.464 307.69,356.961 323.409,341.296 C331.831,332.901 335.321,323.638 331.993,311.408 C329.85,303.529 332.688,300.555 339.885,303.297 C346.323,305.751 352.393,309.469 358.372,313.108 C364.682,316.944 365.735,316.493 368.482,309.223 C371.249,301.904 374.234,294.595 377.914,287.769 C385.9,272.952 398.96,268.678 413.982,269.347 C443.128,270.649 465.074,287.225 484.858,308.116 C487.367,310.769 488.887,314.494 490.6,317.288 L490.6,317.288 Z M385.037,323.81 C387.127,323.429 391.396,323.153 395.341,321.79 C398.818,320.585 401.931,318.169 405.204,316.288 C402.488,312.893 399.89,309.377 396.994,306.171 C396.048,305.126 394.353,304.799 392.953,304.3 C383.773,301.026 376.569,306.334 376.024,316.605 C375.737,322.02 377.849,324.583 385.037,323.81 L385.037,323.81 Z M344.86,335.513 C351.093,332.01 356.813,329.964 360.878,325.982 C362.696,324.199 354.036,316.879 348.861,316.768 C344.08,316.665 339.556,322.164 340.167,328.269 C340.373,330.34 342.614,332.179 344.86,335.513 L344.86,335.513 Z" id="Shape" fill="#000000" sketch:type="MSShapeGroup"></path>
            <path d="M280.161,424.205 C281.672,426.941 283.008,429.816 284.744,432.38 C286.557,435.063 288.328,438.466 290.894,439.7 C294.019,441.202 298.147,441.591 301.432,440.708 C302.517,440.419 302.226,434.676 302.763,431.463 C303.215,428.759 303.955,426.109 304.567,423.434 C306.537,424.053 309.176,424.007 310.375,425.393 C321.975,438.77 333.341,452.38 344.734,465.963 C345.343,466.689 345.601,467.75 346.74,470.201 C338.542,470.201 331.265,469.814 324.034,470.274 C301.127,471.726 278.173,472.846 255.363,475.381 C241.785,476.89 237.706,485.995 243.677,499.019 C247.181,506.656 251.904,513.654 255.256,521.794 C250.839,518.207 246.265,514.815 242.032,510.993 C227.557,497.924 211.678,495.883 194.154,502.87 C188.454,505.142 182.134,507.387 176.288,506.919 C171.909,506.569 166.571,502.806 163.945,498.833 C160.664,493.869 164.585,489.108 168.179,485.049 C188.554,462.036 208.972,439.063 229.016,415.72 C236.566,406.928 244.564,412.146 252.466,413.467 C259.173,414.591 259.508,420.335 259.891,426.196 C260.243,431.626 260.178,437.543 266.072,440.441 C271.955,443.333 274.884,441.699 275.84,434.839 C276.298,431.55 276.901,428.287 277.436,425.011 C278.344,424.743 279.252,424.476 280.161,424.205 L280.161,424.205 Z" id="Shape" fill="#000000" sketch:type="MSShapeGroup"></path>
            <path d="M401.983,406.924 C427.246,407.769 448.553,415.645 461.09,441.53 C472.321,464.719 467.355,488.032 448.152,500.527 C444.12,503.151 441.952,503.711 440.035,497.89 C439.186,495.307 435.547,492.876 432.75,492.072 C410.601,485.695 388.312,479.878 366.166,473.485 C362.585,472.454 359.034,469.97 356.295,467.216 C351.627,462.52 347.652,457.036 343.31,451.956 C336.652,444.164 336.716,440.267 343.648,432.349 C355.523,418.79 370.758,412.398 387.319,408.959 C392.148,407.956 397.093,407.584 401.983,406.924 L401.983,406.924 Z M363.192,458.203 C366.171,455.369 370.078,453.073 371.857,449.547 C373.46,446.373 365.779,438.539 361.337,439.815 C357.453,440.93 351.946,444.938 351.484,448.343 C350.59,454.941 356.817,455.874 363.192,458.203 L363.192,458.203 Z" id="Shape" fill="#000000" sketch:type="MSShapeGroup"></path>
            <path d="M210.729,505.584 C224.982,505.577 236.129,511.888 245.385,522.974 C257.516,537.505 259.836,538.053 276.754,530.144 C283.992,526.76 291.157,523.001 297.851,518.545 C302.687,515.322 306.554,515.698 310.72,519.106 C322.638,528.854 329.77,542.035 333.241,557.308 C335.343,566.554 325.54,579.686 316.57,579.869 C313.799,579.926 310.142,577.114 308.289,574.487 C293.457,553.479 272.054,548.003 249.457,545.742 C230.742,543.869 216.915,554.612 204.567,567.873 C199.882,572.906 195.997,578.797 191.809,584.35 C185.283,593.005 180.342,592.639 173.142,584.602 C168.466,579.382 162.519,575.399 156.897,571.238 C153.466,568.7 149.266,567.312 145.957,564.633 C141.344,560.897 139.177,555.461 142.974,550.034 C160.052,525.625 181.521,508.667 210.729,505.584 L210.729,505.584 Z M219.28,550.192 L219.219,550.257 C219.22,550.258 219.282,550.193 219.28,550.192 L219.28,550.192 Z M185.071,532.69 C185.071,532.69 185.122,532.746 185.124,532.746 L185.071,532.69 L185.071,532.69 Z M212.153,530.075 C217.506,535.691 234.28,539.699 240.519,536.318 C242.033,535.498 243.623,531.244 242.93,529.936 C239.103,522.715 232.1,521.058 225.11,520.713 C218.99,520.409 214.138,523.297 212.153,530.075 L212.153,530.075 Z" id="Shape" fill="#000000" sketch:type="MSShapeGroup"></path>
            <path d="M446.61,268.589 C436.773,266.299 427.014,263.401 417.078,261.843 C396.756,258.658 381.099,267.467 371.147,286.752 C368.888,291.132 366.619,295.507 364.341,299.878 C362.32,303.759 359.987,303.461 357.469,300.435 L357.495,300.483 C357.133,300.105 356.767,299.726 356.403,299.349 C356.238,299.726 356.072,300.104 355.905,300.482 L355.929,300.436 C347.87,298.099 339.7,296.102 331.813,293.23 C329.232,292.29 326.273,289.491 325.38,286.817 C321.731,275.889 318.919,264.643 315.573,253.592 C314.094,248.704 315.528,245.886 320,244.688 C324.543,243.467 329.148,242.51 333.673,241.221 C338.799,239.761 339.844,237.015 336.534,232.051 C329.984,222.219 330.339,221.241 340.972,218.033 C354.046,214.085 367.091,209.906 380.36,206.887 C384.329,205.985 390.315,207.108 393.135,209.9 C410.349,226.957 426.956,244.719 443.633,262.391 C445.098,263.945 445.598,266.544 446.547,268.658 L446.61,268.589 L446.61,268.589 Z" id="Shape" fill="#000000" sketch:type="MSShapeGroup"></path>
            <path d="M347.473,414.754 C354.224,403.4 350.205,395.008 342.807,387.331 C339.595,383.997 340.167,380.484 343.043,376.818 C350.856,366.857 361.907,365.183 372.179,372.799 C374.787,374.73 377.233,376.916 380.721,379.781 C382.633,375.021 384.582,371.164 385.765,367.056 C390.707,349.864 405.013,344.275 418.356,347.346 C447.419,354.032 470.756,370.28 487.89,396.433 C493.35,404.767 492.798,408.686 485.258,415.181 C480.442,419.327 475.218,422.95 470.546,427.263 C466.798,430.728 463.941,429.909 461.048,426.413 C446.371,408.672 427.475,400.939 405.838,399.846 C388.321,398.962 372.22,404.901 356.393,411.996 C354.155,413.001 351.971,414.135 349.762,415.209 C348.998,415.058 348.236,414.907 347.473,414.754 L347.473,414.754 Z M395.14,382.813 C402.37,381.078 407.731,380.021 412.965,378.47 C417.69,377.07 418.227,372.75 415.163,370.06 C411.692,367.015 406.735,364.002 402.576,364.223 C396.709,364.536 392.102,369.382 391.58,376.237 C391.413,378.446 394.04,380.899 395.14,382.813 L395.14,382.813 Z M361.197,393.091 C366.226,389.228 369.992,386.336 373.759,383.443 C371.124,381.204 368.707,377.549 365.806,377.036 C360.472,376.09 355.893,379.032 355.436,385.395 C355.3,387.263 358.309,389.39 361.197,393.091 L361.197,393.091 Z" id="Shape" fill="#000000" sketch:type="MSShapeGroup"></path>
            <path d="M319.402,166.044 C326.217,173.011 331.302,185.062 344.24,175.829 C342.057,171.638 339.85,167.395 337.13,162.17 C344.646,159.256 351.471,156.661 358.462,161.895 C375.666,174.77 392.87,187.648 409.817,200.902 C411.699,202.373 412.863,206.351 412.683,209.039 C412.431,212.843 409.761,214.392 406.234,212.1 C405.6,211.69 404.891,211.291 404.449,210.69 C394.011,196.477 380.735,198.533 366.913,202.972 C354.173,207.063 341.337,210.807 328.59,214.871 C323.518,216.489 321.867,219.974 324.831,225.124 C328.082,230.773 325.575,232.388 320.562,234.471 C311.446,238.26 305.646,236.61 299.665,227.634 C295.62,221.565 288.227,217.8 281.882,213.828 C277.009,210.776 275.011,207.459 277.044,201.601 C280.747,190.936 284.167,180.156 287.996,169.545 C288.676,167.658 290.774,166.36 292.216,164.79 C293.501,166.274 295.142,167.557 295.985,169.288 C297.346,172.083 298.075,175.223 299.258,178.13 C301.91,184.639 307.239,184.611 312.501,183.708 C317.725,182.812 317.83,178.333 317.598,173.856 C317.48,171.587 317.576,169.307 317.576,167.032 C318.186,166.701 318.794,166.374 319.402,166.044 L319.402,166.044 Z" id="Shape" fill="#000000" sketch:type="MSShapeGroup"></path>
            <path d="M321.825,586.876 C325.454,584.142 329.039,581.335 332.722,578.692 C340.316,573.243 342.527,565.879 339.77,556.668 C338.941,553.9 338.112,551.135 337.239,548.386 C334.797,540.689 336.007,537.805 343.279,536.776 C350.62,535.736 358.079,535.632 365.086,535.145 C363.101,542.402 359.403,548.579 360.729,553.037 C362.216,558.04 368.25,561.488 373.857,567.186 C365.965,571.244 359.281,575.577 352.052,578.177 C342.165,581.733 331.864,583.976 321.739,586.779 L321.825,586.876 L321.825,586.876 Z" id="Shape" fill="#000000" sketch:type="MSShapeGroup"></path>
            <path d="M331.612,141.38 C334.111,136.404 336.483,131.348 339.155,126.481 C341.067,122.996 343.391,119.103 347.714,123.192 C351.266,126.553 352.753,131.643 348.918,134.975 C344.477,138.834 338.69,140.918 333.486,143.771 C332.862,142.974 332.237,142.176 331.612,141.38 L331.612,141.38 Z" id="Shape" fill="#000000" sketch:type="MSShapeGroup"></path>
            <path d="M180.301,601.416 C176.142,607.06 173.049,612.112 169.1,616.217 C167.421,617.961 163.928,618.246 161.303,618.124 C160.33,618.078 158.335,614.29 158.801,613.38 C160.035,610.967 162.036,608.446 164.314,607.324 C168.866,605.08 173.806,603.742 180.301,601.416 L180.301,601.416 Z" id="Shape" fill="#000000" sketch:type="MSShapeGroup"></path>
            <path d="M327.746,161.977 C323.919,157.301 326.212,153.854 330.649,150.895 C329.659,154.61 328.67,158.327 327.681,162.042 L327.746,161.977 L327.746,161.977 Z" id="Shape" fill="#000000" sketch:type="MSShapeGroup"></path>
            <path d="M304.183,312.348 C295.137,310.925 285.919,310.221 277.114,307.797 C272.349,306.485 275.2,302.941 277.812,301.035 C287.03,294.306 298.715,297.922 304.669,309.241 C304.507,310.276 304.344,311.313 304.183,312.348 L304.183,312.348 Z" id="Shape" fill="#000000" sketch:type="MSShapeGroup"></path>
            <path d="M379.938,317.877 C381.473,315.235 382.605,310.871 384.631,310.323 C388.394,309.31 392.678,310.527 396.745,310.815 C396.849,311.951 396.958,313.088 397.065,314.225 C392.097,316.267 387.129,318.311 382.162,320.353 C381.422,319.527 380.68,318.701 379.938,317.877 L379.938,317.877 Z" id="Shape" fill="#000000" sketch:type="MSShapeGroup"></path>
            <path d="M347.445,324.705 C349.865,324.357 352.283,324.009 354.703,323.659 C354.872,324.619 355.042,325.578 355.211,326.539 C352.869,327.14 350.528,327.741 348.187,328.341 C347.938,327.129 347.693,325.917 347.445,324.705 L347.445,324.705 Z" id="Shape" fill="#000000" sketch:type="MSShapeGroup"></path>
            <path d="M361.971,446.838 C360.198,448.257 359.272,449.49 358.168,449.713 C357.367,449.877 356.329,448.703 355.398,448.125 C356.156,446.996 356.732,445.27 357.728,444.92 C358.603,444.613 359.949,445.853 361.971,446.838 L361.971,446.838 Z" id="Shape" fill="#000000" sketch:type="MSShapeGroup"></path>
            <path d="M231.122,528.845 C229.905,528.696 228.686,528.547 227.469,528.399 C227.515,527.959 227.561,527.518 227.606,527.079 C228.823,527.225 230.042,527.376 231.259,527.524 C231.212,527.964 231.167,528.404 231.122,528.845 L231.122,528.845 Z" id="Shape" fill="#000000" sketch:type="MSShapeGroup"></path>
            <path d="M399.939,373.218 C402.623,372.535 405.307,371.856 407.99,371.173 C408.223,372.167 408.453,373.157 408.686,374.149 C406.022,374.895 403.355,375.643 400.692,376.389 C400.443,375.331 400.191,374.274 399.939,373.218 L399.939,373.218 Z" id="Shape" fill="#000000" sketch:type="MSShapeGroup"></path>
            <path d="M369.252,384.703 C368.054,385.181 367.309,385.703 366.577,385.682 C366.136,385.671 365.718,384.807 365.287,384.326 C365.956,383.828 366.58,383.108 367.318,382.93 C367.684,382.84 368.259,383.754 369.252,384.703 L369.252,384.703 Z" id="Shape" fill="#000000" sketch:type="MSShapeGroup"></path>
        </g>
    </g>
</svg>