<?xml version="1.0" encoding="UTF-8" standalone="no"?>
<svg width="382px" height="482px" viewBox="0 0 382 482" version="1.1" xmlns="http://www.w3.org/2000/svg" xmlns:xlink="http://www.w3.org/1999/xlink" xmlns:sketch="http://www.bohemiancoding.com/sketch/ns">
    <!-- Generator: Sketch 3.2.2 (9983) - http://www.bohemiancoding.com/sketch -->
    <title>Slice 1</title>
    <desc>Created with Sketch.</desc>
    <defs></defs>
    <g id="Page-1" stroke="none" stroke-width="1" fill="none" fill-rule="evenodd" sketch:type="MSPage">
        <g id="img12icon" sketch:type="MSLayerGroup">
            <g id="Group" sketch:type="MSShapeGroup">
                <path d="M107.823,113.498 C112.301,107.516 118.988,105.712 125.764,104.58 C131.498,103.621 136.936,105.183 142.1,108.045 C147.85,111.232 153.777,114.124 159.768,116.832 C161.942,117.814 164.539,117.823 166.913,118.402 C171.801,119.593 176.61,121.242 181.559,121.997 C185.913,122.662 190.419,122.539 194.849,122.435 C197.955,122.363 199.103,120.281 198.757,117.072 C197.768,117.353 196.853,117.612 195.358,118.036 C195.358,115.845 195.108,113.954 195.471,112.19 C195.632,111.41 197.059,110.305 197.868,110.339 C202.834,110.546 207.787,111.049 212.746,111.431 C217.133,111.769 221.615,111.632 225.887,112.516 C231.118,113.599 236.202,115.446 241.276,117.179 C242.003,117.427 242.452,118.838 242.794,119.795 C244.126,123.515 245.361,127.27 246.612,130.949 C247.469,130.744 248.538,130.19 248.829,130.463 C255.187,136.446 260.735,143.089 265.488,151.156 C256.669,148.06 250.457,142.546 244.795,136.309 C244.125,135.572 243.904,134.429 243.466,133.478 C240.283,126.592 235.348,121.333 229.016,117.371 C228.724,117.633 228.433,117.893 228.141,118.154 C229.775,119.831 231.492,121.435 233.02,123.202 C235.221,125.746 237.458,128.298 239.272,131.11 C239.669,131.728 238.678,133.948 237.755,134.542 C236.463,135.374 234.636,135.374 232.436,135.862 C233.018,136.661 233.738,137.982 233.959,137.904 C241.569,135.202 244.849,142.03 249.821,145.043 C253.608,147.338 257.171,150.057 261.109,152.039 C265.488,154.243 269.074,157.01 271.298,161.45 C271.92,162.693 272.856,163.778 274.128,165.639 C272.205,166.179 270.553,166.922 268.849,167.068 C264.315,167.459 259.748,167.462 255.216,167.866 C250.202,168.314 246.026,170.771 242.56,174.259 C240.893,175.938 239.234,176.572 236.915,176.529 C229.839,176.397 222.732,176.865 215.688,176.379 C207.832,175.837 199.709,175.522 192.31,173.185 C186.571,171.373 180.312,168.653 178.113,161.265 C175.435,152.266 169.687,144.801 164.289,137.236 C162.729,135.05 161.316,132.758 159.889,130.594 C162.325,127.391 164.014,130.029 166.688,131.786 C165.392,128.751 164.514,126.693 163.653,124.678 C160.576,125.636 157.928,126.461 154.534,127.518 C157.314,131.722 159.708,136.31 163.008,140.113 C168.539,146.487 171.658,154.067 175.042,161.554 C176.924,165.719 178.543,170.004 180.444,174.16 C180.872,175.098 181.861,176.173 182.795,176.419 C188.76,177.991 192.771,181.775 195.976,186.879 C203.155,198.311 211.329,209.202 217.543,221.125 C221.732,229.163 227.676,235.509 232.889,242.574 C234.421,244.649 235.907,246.76 237.443,248.894 C233.472,249.133 233.227,248.982 226.06,241.698 C225.316,244.455 224.623,246.791 224.069,249.16 C223.722,250.639 223.112,252.294 223.47,253.645 C223.945,255.436 225.247,257.006 226.095,258.495 C223.033,258.693 219.503,258.681 216.138,255.665 C214.156,253.89 210.725,253.799 208.044,252.707 C206.774,252.19 205.57,251.258 204.628,250.244 C202.666,248.132 200.574,246.764 197.487,246.943 C196.266,247.014 194.983,246.038 193.729,245.539 C193.413,245.032 193.097,244.525 192.781,244.018 C195.491,241.815 198.577,239.936 200.815,237.329 C203.683,233.988 203.178,229.079 199.873,226.186 C192.847,220.035 185.522,214.225 178.491,208.079 C174.29,204.407 170.405,200.375 166.395,196.486 C160.478,190.747 154.55,185.018 148.697,179.215 C147.922,178.446 147.005,177.215 147.088,176.281 C147.917,167.007 141.739,161.773 135.796,156.457 C131.924,152.995 127.71,149.917 123.853,146.439 C118.308,141.439 112.949,136.232 106.853,130.494 C115.775,130.45 123.257,131.428 129.405,138.598 C133.11,128.372 142.223,129.452 150.003,127.797 C148.741,124.104 147.92,121.238 143.379,121.464 C142.047,121.531 139.948,118.727 139.258,116.85 C137.051,110.85 131.903,108.183 126.281,110.998 C123.788,112.247 121.83,112.218 119.418,110.963 C115.992,109.18 112.794,110.32 109.842,112.464 C109.234,112.905 108.478,113.143 107.79,113.474 L107.823,113.498 L107.823,113.498 Z M200.67,126.635 C206.482,135.272 215.596,139.592 223.287,144.817 C222.233,146.558 221.62,147.573 221.007,148.587 C225.937,147.095 229.017,149.286 231.802,151.884 C230.671,152.921 229.711,153.801 228.084,155.292 C232.16,155.073 235.084,154.915 238.101,154.752 L238.101,150.853 C232.738,150.503 230.056,148.46 229.8,144.937 C227.627,143.875 225.531,143.149 223.77,141.937 C217.771,137.808 211.927,133.455 205.94,129.308 C204.336,128.197 202.435,127.515 200.67,126.635 L200.67,126.635 Z M189.294,143.013 C187.742,141.257 186.699,139.412 185.121,138.558 C184.275,138.101 182.088,139.005 181.302,139.954 C180.776,140.589 181.647,142.383 181.922,143.805 C181.26,143.984 180.343,144.232 179.427,144.48 C179.439,144.839 179.451,145.197 179.464,145.556 C184.09,148.431 189.06,146.825 193.913,145.731 C195.695,145.33 198.263,145.254 198.025,142.033 C194.668,142.41 191.581,142.756 189.294,143.013 L189.294,143.013 Z M150.96,174.628 C151.096,176.684 150.864,178.555 151.443,180.128 C151.866,181.274 153.242,182.472 154.42,182.776 C155.057,182.941 156.717,181.418 156.962,180.422 C157.84,176.862 154.973,174.308 150.96,174.628 L150.96,174.628 Z M208.784,172.515 C206.465,168.214 200.665,164.814 196.32,165.208 C197.574,168.138 205.127,172.565 208.784,172.515 L208.784,172.515 Z M239.815,155.477 C239.507,155.674 239.201,155.872 238.894,156.068 C239.531,157.993 239.666,160.436 240.957,161.686 C242.067,162.762 244.493,162.524 246.352,162.685 C246.476,162.696 247.139,160.645 246.865,160.43 C244.607,158.662 242.187,157.101 239.815,155.477 L239.815,155.477 Z M238.531,131.957 C236.527,130.455 235.142,128.879 234.617,129.127 C233.312,129.742 232.401,131.189 231.332,132.303 C232.317,133.105 233.269,134.485 234.297,134.545 C235.315,134.604 236.411,133.332 238.531,131.957 L238.531,131.957 Z M263.637,155.954 C263.815,159.166 263.992,162.379 264.169,165.592 C264.678,165.561 265.187,165.531 265.693,165.501 C265.544,162.285 268.502,158.853 263.637,155.954 L263.637,155.954 Z M205.902,230.22 C203.441,236.87 203.441,236.87 206.687,237.597 C205.888,235.233 209.093,232.788 205.902,230.22 L205.902,230.22 Z" id="Shape" fill="#000000"></path>
                <path d="M62.14,323.554 C50.286,322.936 39.948,319.877 31.395,311.842 C21.915,302.936 20.95,289.61 27.912,278.778 C31.461,273.257 36.186,268.873 42.866,266.99 C44.757,266.457 45.046,266.943 45.534,268.476 C47.401,274.339 49.68,279.878 54.659,284.068 C59.36,288.023 64.499,290.278 70.548,289.418 C73.958,288.934 77.146,287.022 78.305,283.539 C79.408,280.227 78.68,276.751 75.965,274.379 C71.62,270.583 67.05,267.033 62.457,263.535 C54.686,257.613 46.798,251.845 39.007,245.948 C34.689,242.679 29.934,239.772 26.324,235.832 C20.387,229.353 20.268,221.539 23.716,213.715 C29.251,201.158 38.018,192.014 51.708,188.574 C66.605,184.83 81.176,184.08 94.17,194.428 C98.74,198.067 102.749,202.102 103.846,208.187 C103.887,208.415 103.979,208.665 104.126,208.837 C110.185,216.003 106.323,223.484 105.088,231.018 C103.894,238.307 98.173,241.333 93.123,244.996 C91.302,246.316 89.321,246.393 88.502,243.018 C87.892,240.501 86.411,237.55 84.381,236.161 C80.632,233.595 77.581,234.6 75.184,237.972 C72.579,241.637 72.964,245.995 76.394,249.479 C82.453,255.637 88.529,261.781 94.72,267.806 C101.189,274.102 104.789,281.467 103.785,290.664 C103.077,297.151 99.687,302.517 96.522,308.018 C90.638,318.247 80.939,321.353 70.17,322.639 C67.354,322.976 64.53,323.282 62.14,323.554 L62.14,323.554 Z" id="Shape" fill="#000000"></path>
                <path d="M71.45,328.367 C73.159,337.234 74.583,345.79 76.535,354.224 C77.422,358.056 79.202,361.717 80.874,365.319 C81.805,367.324 83.3,368.088 85.345,366.02 C87.931,363.406 90.808,361.079 93.697,358.504 C96.558,361.552 99.355,364.53 102.296,367.663 C106.96,360.678 108.734,353.262 107.951,345.653 C107.249,338.842 110.223,334.968 115.551,331.945 C116.367,331.482 117.136,330.932 117.903,330.388 C122.043,327.456 122.871,323.732 120.848,319.133 C119.489,316.046 118.313,312.809 117.656,309.519 C117.371,308.093 118.134,305.842 119.225,304.866 C123.684,300.876 129.136,298.592 134.975,297.558 C137.443,297.121 139.088,298.363 139.136,301.46 C139.386,317.629 138.085,333.527 134.3,349.378 C131.519,361.021 127.372,371.984 122.339,382.69 C120.403,386.809 117.326,390.382 115.27,394.457 C113.413,398.139 111.122,397.393 108.484,395.924 C104.786,393.866 101.145,391.707 97.458,389.629 C91.189,386.097 91.125,386.053 86.125,391.127 C82.866,394.433 79.745,397.88 76.667,401.356 C72.073,406.544 67.666,411.901 62.997,417.02 C59.691,420.644 58.605,420.437 54.809,417.335 C46.367,410.438 40.631,401.726 36.38,391.754 C32.932,383.663 28.249,376.079 25.07,367.899 C21.264,358.107 18.36,347.956 15.3,337.888 C13.978,333.536 12.955,329.043 12.388,324.538 C12.164,322.755 13.089,320.364 14.312,318.97 C16.142,316.885 18.655,315.375 20.957,313.733 C23.697,311.778 26.094,312.879 28.08,314.986 C36.473,323.892 47.496,327.151 58.989,328.964 C63.1,329.615 67.475,328.604 71.45,328.367 L71.45,328.367 Z" id="Shape" fill="#000000"></path>
                <path d="M73.667,148.634 C69.776,146.393 66.652,144.594 63.542,142.803 C64.734,137.558 62.861,135.23 57.428,135.467 C52.098,135.699 46.777,136.145 40.616,136.553 C44.13,141.85 47.342,146.969 50.861,151.867 C52.302,153.871 54.403,153.705 56.48,152.225 C57.732,151.333 59.283,150.859 60.7,150.197 C60.893,150.464 61.087,150.732 61.28,150.999 C58.686,154.302 56.069,157.587 53.504,160.911 C51.173,163.932 50.587,167.506 51.506,171.009 C52.181,173.578 51.575,174.242 49.197,174.36 C47.842,174.426 46.503,174.846 45.057,175.126 C44.125,169.952 45.349,165.535 47.301,161.095 C47.975,159.561 47.937,157.071 47.128,155.635 C42.941,148.205 38.399,140.975 33.982,133.675 C34.243,133.199 34.504,132.724 34.766,132.248 C38.252,132.151 41.741,131.929 45.225,131.983 C52.647,132.1 60.071,132.282 67.482,132.672 C68.294,132.715 69.194,134.192 69.756,135.174 C70.619,136.681 71.05,138.45 72.001,139.885 C72.612,140.809 73.836,141.32 74.768,142.04 C80.454,146.435 80.431,146.423 76.366,152.455 C74.461,155.281 72.605,158.143 70.821,161.046 C69.31,163.503 70.264,165.802 73.014,166.356 C76.924,167.143 80.834,168.06 84.789,168.432 C86.445,168.588 88.64,167.962 89.868,166.876 C95.594,161.809 102.735,159.748 109.594,157.105 C116.912,154.285 117.149,153.849 111.557,148.665 C107.394,144.805 102.75,141.452 98.709,137.478 C97.011,135.809 95.45,133.165 95.335,130.887 C95.056,125.322 95.412,119.684 96.04,114.135 C96.252,112.264 97.882,110.436 99.171,108.836 C100.67,106.977 100.11,105.338 98.212,105.356 C94.795,105.386 93.351,103.655 92.308,100.903 C90.987,97.417 91.351,94.2 93.659,91.254 C96.242,87.956 99.451,86.43 103.782,87.147 C108.08,87.858 112.436,88.346 116.785,88.586 C120.719,88.803 121.122,87.788 120.631,83.94 C120.33,81.576 120.4,78.734 121.463,76.718 C123.482,72.888 122.727,69.868 120.02,67.124 C117.17,64.236 115.83,61.464 118.038,57.414 C118.8,56.016 118.36,53.541 117.68,51.882 C116.766,49.653 116.693,48.251 118.311,46.146 C119.641,44.417 120.289,41.569 120.019,39.366 C119.73,37.004 119.466,35.56 121.826,34.074 C124.061,32.666 125.327,30.572 124.086,27.378 C121.847,21.616 124.537,16.602 127.572,11.911 C128.023,11.214 129.822,10.952 130.858,11.164 C132.786,11.559 134.692,12.287 136.463,13.166 C144.657,17.236 152.66,15.348 160.359,12.036 C165.717,9.732 170.858,6.78 175.77,3.613 C183.78,-1.551 191.536,-0.717 199.397,3.653 C206.854,7.799 214.249,12.064 221.806,16.018 C222.909,16.594 225.004,16.165 226.226,15.471 C232.196,12.083 239.94,15.149 241.776,21.825 C241.901,22.279 242.163,22.859 241.995,23.202 C240.165,26.955 242.584,28.181 245.333,29.835 C247.567,31.179 249.744,33.231 250.987,35.495 C254.821,42.477 258.48,49.591 261.578,56.921 C262.503,59.109 261.653,62.235 261.102,64.822 C259.989,70.052 259.939,70.387 264.743,72.663 C268.071,74.239 271.731,75.336 270.947,80.292 C270.865,80.805 271.945,81.882 272.657,82.077 C277.678,83.455 282.751,84.65 287.796,85.945 C292.104,87.051 296.686,87.609 300.632,89.489 C306.808,92.433 313.483,94.827 317.894,100.661 C321.05,104.835 321.12,109.479 320.502,114.326 C320.203,116.668 319.668,119.054 319.863,121.368 C320.669,130.952 313.91,135.175 307.304,137.505 C304.685,138.429 301.787,138.57 299.012,139.042 C296.489,139.471 295.497,140.817 296.366,143.325 C299.316,151.837 302.889,160.197 305.014,168.91 C306.638,175.567 310.672,179.223 316.199,181.828 C328.245,187.503 338.849,195.291 348.974,203.778 C354.118,208.088 357.869,213.643 357.055,220.504 C356.284,227.001 352.932,232.342 347.178,236.381 C340.873,240.807 333.573,241.849 326.632,244.181 C325.32,244.621 323.91,245.053 322.843,245.875 C320.436,247.733 320.764,249.628 323.666,250.401 C327.287,251.367 330.987,252.039 334.663,252.796 C338.952,253.68 343.238,254.747 346.232,258.162 C347.198,259.263 347.989,261.736 347.409,262.754 C345.341,266.379 342.859,269.84 340.052,272.924 C339.305,273.744 336.784,273.257 335.167,272.929 C326.55,271.187 318.26,272.572 310.079,275.276 C308.076,275.938 306.088,276.648 304.081,277.3 C299.47,278.8 298.979,278.515 297.821,273.624 C301.947,272.923 306.08,272.283 310.188,271.509 C317.799,270.074 325.464,268.829 332.95,266.897 C334.86,266.405 336.181,263.632 337.774,261.908 C335.852,260.325 334.133,257.793 331.971,257.329 C324.281,255.678 316.428,254.804 308.662,253.48 C305.846,253.001 303.101,252.088 300.325,251.374 C300.258,251.02 300.19,250.667 300.123,250.313 C304.479,248.023 308.747,245.542 313.21,243.485 C321.975,239.444 331.046,236.024 339.598,231.589 C344.41,229.093 346.142,223.862 347.213,218.557 C348.168,213.832 346.539,210.768 343.373,207.132 C338.636,201.691 331.913,199.979 326.477,196.008 C318.835,190.425 310.721,185.453 303.389,179.504 C300.995,177.562 300.072,173.489 299.071,170.209 C296.168,160.699 293.609,151.085 290.826,141.538 C289.408,136.674 291.055,134.512 295.961,133.909 C300.349,133.37 304.713,132.296 308.952,131.011 C312.244,130.013 314.713,123.612 313.657,120.24 C313.397,119.41 313.591,118.424 313.643,117.513 C313.856,113.875 314.712,110.131 314.101,106.64 C313.705,104.383 311.43,102.223 309.549,100.51 C306.243,97.498 302.759,94.611 299.02,92.177 C297.097,90.925 294.499,90.55 292.143,90.164 C289.229,89.686 286.198,89.866 283.316,89.279 C280.98,88.804 278.677,87.823 276.559,86.693 C273.803,85.222 271.333,85.615 269.367,87.802 C267.658,89.702 265.639,91.354 263.614,92.931 C260.579,95.296 257.434,97.523 254.302,99.761 C253.278,100.491 252.19,101.165 251.052,101.699 C248.524,102.887 247.93,105.876 250.332,107.125 C253.953,109.008 255.104,112.677 257.473,115.336 C262.33,120.791 261.833,126.445 260.749,132.587 C260.557,133.681 260.27,134.758 259.939,136.238 C256.72,133.343 253.908,130.702 250.971,128.207 C247.962,125.652 247.186,122.159 246.262,118.579 C245.818,116.857 244.726,114.674 243.292,113.941 C236.56,110.497 229.438,108.355 221.738,107.997 C214.502,107.661 207.296,106.663 200.083,105.899 C199.469,105.835 198.901,105.345 197.634,104.718 C200.564,104.255 202.826,104.09 204.948,103.459 C205.719,103.229 206.087,101.819 206.768,101.066 C207.945,99.765 209.209,97.529 210.462,97.511 C213.708,97.466 214.293,95.376 215.328,92.719 L210.11,92.719 C211.496,91.447 212.478,89.764 213.623,89.645 C216.748,89.322 217.58,88.064 216.127,84.84 C219.52,87.679 221.757,86.225 224.12,83.956 C226.328,81.838 228.964,80.72 232.151,82.197 C234.695,83.376 237.345,84.321 240.481,85.583 C238.511,86.13 236.798,86.319 235.411,87.094 C234.477,87.614 233.34,89.098 233.504,89.904 C233.692,90.824 235.38,92.263 236.145,92.111 C241.935,90.961 247.624,90.858 253.276,93.172 C253.505,92.79 253.733,92.406 253.962,92.024 C252.367,90.435 250.773,88.846 249.179,87.256 C249.324,87.035 249.468,86.815 249.613,86.594 C252.664,88.906 255.715,91.218 259.012,93.718 L259.012,88.587 C260.932,86.779 263.636,85.431 264.14,83.506 C265.126,79.734 263.588,76.285 259.785,74.344 C257.506,73.182 255.224,72.024 252.89,70.836 C253.578,68.116 257.001,65.61 253.233,62.5 C256.39,61.392 257.216,59.091 256.227,56.679 C253.015,48.847 249.95,40.778 243.367,35.052 C240.342,32.42 236.477,30.753 233.621,29.027 C233.788,27.448 234.309,26.098 233.964,25.027 C233.301,22.966 227.571,20.816 225.158,21.803 C224.305,22.152 223.966,23.752 223.732,24.17 C217.509,20.654 210.965,16.845 204.315,13.234 C199.987,10.885 195.552,8.717 191.077,6.662 C186.874,4.733 183.046,6.298 179.362,8.405 C172.568,12.29 165.832,16.286 158.926,19.962 C157.259,20.849 154.961,20.472 153.069,21.052 C152.015,21.375 151.199,22.475 150.068,23.393 C144.037,22.359 137.403,21.224 129.805,19.922 C130.369,22.404 130.777,24.965 131.555,27.407 C132.354,29.911 132.94,31.958 129.895,33.531 C126.882,35.086 125.928,37.365 127.98,40.72 C129.147,42.628 129.313,44.943 126.787,46.728 C125.082,47.932 124.94,50.054 126.418,51.733 C128.046,53.581 128.019,54.843 125.834,56.237 C123.583,57.674 123.342,59.87 124.496,62.182 C125.123,63.441 125.815,64.687 126.639,65.822 C128.868,68.894 129.584,71.736 127.809,75.627 C126.535,78.422 125.54,82.287 129.189,84.968 C129.853,85.454 130.053,86.572 130.692,87.846 C123.965,89.817 117.519,91.896 110.958,93.513 C109.027,93.989 106.777,93.003 104.669,92.976 C103.038,92.955 101.35,93.207 99.779,93.658 C97.558,94.294 97.674,95.738 98.651,97.552 C100.787,101.516 104.751,102.464 108.512,103.704 C110.114,104.232 111.851,104.347 114.485,104.823 C111.056,106.407 108.368,107.481 105.862,108.883 C104.752,109.505 103.374,110.694 103.213,111.787 C102.475,116.811 102.025,121.887 101.667,126.957 C101.415,130.526 103.192,133.401 105.798,135.574 C116.505,144.502 127.391,153.216 138.013,162.243 C140.39,164.263 141.965,167.227 143.909,169.757 C143.641,169.981 143.373,170.204 143.106,170.428 C139.335,167.974 135.447,165.681 131.82,163.03 C125.509,158.417 119.073,158.452 112.296,161.79 C104.434,165.662 96.656,169.764 88.551,173.051 C85.88,174.134 82.3,173.089 79.148,172.846 C73.964,172.449 68.797,171.788 63.609,171.487 C60.756,171.321 59.702,170.148 61.131,167.709 C63.558,163.565 66.278,159.592 68.913,155.571 C70.312,153.455 71.781,151.386 73.667,148.634 L73.667,148.634 Z M238.099,98.393 C237.795,97.928 237.491,97.463 237.187,96.997 C233.928,97.335 230.457,97.089 227.466,98.171 C224.339,99.302 221.429,101.432 218.896,103.663 C217.31,105.059 218.412,106.65 220.494,106.562 C221.776,106.508 223.348,106.073 224.236,105.226 C227.529,102.087 231.303,100.379 235.84,100.081 C236.626,100.029 237.348,98.981 238.099,98.393 L238.099,98.393 Z" id="Shape" fill="#000000"></path>
                <path d="M271.846,188.159 C270.648,186.306 269.449,184.453 268.118,182.397 C272.236,179.455 276.48,176.483 280.658,173.42 C284.036,170.943 286.596,172.524 289.061,174.914 C289.79,175.622 290.458,176.427 291.286,176.997 C300.295,183.208 309.365,189.332 318.345,195.585 C322.929,198.777 326.994,203.027 331.989,205.211 C335.672,206.82 338.236,209.153 340.958,211.669 C345.729,216.08 343.348,223.303 339.478,226.444 C330.999,233.326 320.66,236.279 310.947,240.586 C307.638,242.054 304.581,244.08 301.318,245.662 C299.43,246.577 297.161,246.805 295.426,247.911 C293.619,249.063 292.248,250.9 291.256,251.876 C285.102,248.174 279.003,244.557 272.985,240.81 C272.283,240.373 271.731,239.259 271.617,238.392 C271.231,235.462 271.466,232.397 270.714,229.585 C270.031,227.033 270.886,226.547 272.995,225.689 C277.097,224.02 280.975,221.808 285.581,219.503 C284.867,222.548 284.303,224.957 283.567,228.089 C286.769,225.81 285.8,220.531 290.883,220.494 C289.915,222.889 289.222,224.608 288.527,226.327 C288.782,226.469 289.036,226.61 289.29,226.751 C290.087,225.899 290.82,224.973 291.699,224.218 C292.572,223.466 293.594,222.887 294.55,222.232 C294.709,223.238 294.868,224.244 295.145,225.986 C296.448,224.207 297.461,222.825 298.803,220.994 C293.56,218.987 288.767,217.267 284.068,215.32 C279.194,213.299 274.397,211.087 269.592,208.901 C267.068,207.752 265.155,206.14 265.791,203.519 C269.869,201.78 273.628,200.178 277.386,198.576 C277.343,198.181 277.298,197.785 277.255,197.39 C276.457,197.126 275.584,196.505 274.874,196.656 C269.648,197.763 264.457,199.03 259.252,200.235 C258.392,200.434 257.52,200.577 256.652,200.746 C256.608,201.123 256.564,201.5 256.52,201.877 C258.658,202.475 260.795,203.073 262.654,203.593 C264.064,210.879 265.733,218.101 266.79,225.412 C267.584,230.914 267.677,236.527 267.879,242.098 C267.916,243.13 267.236,244.466 266.455,245.202 C262.055,249.343 257.537,252.346 250.666,250.972 C247.243,250.287 243.835,249.715 241.219,247.756 C238.284,245.559 236.059,242.393 233.621,239.566 C232.636,238.422 232.154,236.747 231.021,235.841 C221.952,228.591 219.771,216.969 213.267,208.1 C209.798,203.371 206.587,198.453 203.36,193.554 C201.972,191.448 200.84,189.173 199.591,186.975 C199.798,186.716 200.004,186.457 200.211,186.198 C201.671,186.954 203.131,187.71 204.591,188.465 C204.528,188.233 204.463,188 204.4,187.768 C206.934,187.365 209.457,186.794 212.007,186.605 C214.75,186.403 217.522,186.531 220.279,186.568 C222.421,186.598 224.832,185.866 225.787,189.005 C225.959,189.57 228.577,190.119 228.75,189.845 C230.881,186.465 234.519,187.322 237.465,186.815 C241.804,186.068 246.288,186.219 250.693,185.802 C254.204,185.471 257.843,185.339 261.144,184.258 C265.215,182.924 267.553,184.384 269.52,187.6 C269.805,188.065 270.32,188.388 270.728,188.778 C271.1,188.572 271.473,188.366 271.846,188.159 L271.846,188.159 Z M315.886,211.273 C312.029,216.702 311.619,220.348 314.4,224.514 C316.636,221.657 317.503,213.935 315.886,211.273 L315.886,211.273 Z" id="Shape" fill="#000000"></path>
                <path d="M303.814,353.401 C305.955,352.987 308.084,352.491 310.239,352.177 C313.059,351.766 315.081,350.505 315.436,347.498 C315.775,344.638 315.329,342.206 312.266,340.709 C305.368,337.334 298.615,333.664 291.732,330.259 C289.691,329.25 289.179,328.286 290.253,326.139 C293.217,320.21 295.199,313.968 295.315,307.255 C295.348,305.323 295.278,303.389 295.302,301.457 C295.379,295.262 299.323,292.435 304.647,290.936 C309.913,289.455 315.2,287.043 320.503,286.972 C326.575,286.892 332.896,288.284 338.712,290.223 C346.734,292.896 354.208,297.197 360.266,303.146 C371.296,313.979 376.565,329.116 366.524,343.812 C364.548,346.704 362.643,350.459 358.096,351.118 C355.33,351.516 354.249,350.937 354.363,348.215 C354.626,341.881 351.411,337.831 345.866,335.351 C342.215,333.718 338.682,334.542 336.294,337.495 C333.965,340.372 334.802,342.912 337.012,345.411 C339.596,348.334 342.026,351.393 344.636,354.292 C349.809,360.036 355.525,365.357 360.178,371.49 C368.803,382.858 365.476,394.662 353.278,403.128 C348.049,406.757 342.048,408.698 335.818,408.878 C330.921,409.02 325.893,407.713 322.056,404.326 C317.979,400.727 313.796,397.033 311.936,391.659 C311.496,390.384 311.333,388.438 312.003,387.458 C314.194,384.249 314.584,380.922 314.131,377.202 C313.972,375.9 314.791,374.478 315.164,373.111 C315.52,373.111 315.877,373.11 316.234,373.109 C316.705,374.595 317.178,376.08 317.645,377.568 C320.234,385.805 325.729,386.779 332.315,384.229 C334.091,383.541 336.289,380.417 336.014,378.796 C335.62,376.469 333.498,374.031 331.476,372.463 C326.481,368.586 321.07,365.251 315.953,361.525 C314.799,360.685 314.273,359.031 313.251,357.947 C312.238,356.871 311.098,355.67 309.772,355.19 C307.929,354.522 305.863,354.477 303.893,354.166 C303.866,353.912 303.841,353.657 303.814,353.401 L303.814,353.401 Z" id="Shape" fill="#000000"></path>
                <path d="M208.455,315.367 C211.235,314.912 214.004,314.197 216.799,314.071 C219.757,313.938 220.728,312.12 221.106,309.8 C221.5,307.387 220.858,305.338 218.052,304.645 C215.604,304.041 213.181,303.333 210.747,302.671 C210.776,302.362 210.806,302.054 210.834,301.746 C212.813,301.852 214.84,301.719 216.758,302.117 C220.875,302.973 222.529,302.437 224.041,298.674 C226.223,293.246 228.425,287.797 230.053,282.192 C230.532,280.545 229.495,278.086 228.451,276.445 C226.373,273.177 223.767,270.251 221.467,267.12 C220.669,266.035 220.129,264.762 219.393,263.432 C224.649,262.431 229.441,261.519 233.532,260.741 C232.786,263.726 230.982,266.956 231.468,269.794 C232.622,276.547 238.11,278.741 244.558,278.151 C247.253,277.905 249.917,277.332 252.612,277.062 C256.667,276.657 259.924,275.209 263.379,272.647 C269.036,268.452 275.731,270.296 279.638,276.424 C283.202,282.014 287.352,287.724 288.922,293.965 C290.858,301.659 293.116,310.084 289.502,317.953 C287.386,322.559 284.082,326.674 281.004,330.777 C273.385,340.934 262.785,346.397 250.631,348.878 C244.301,350.171 237.797,350.611 231.372,351.444 C229.972,351.626 228.56,351.757 227.182,352.051 C221.863,353.191 218.403,351.784 215.414,347.167 C213.884,344.801 212.393,342.41 210.856,340.049 C208.252,336.049 208.621,334.904 212.381,331.956 C214.371,330.397 216.252,328.41 217.471,326.22 C219.772,322.089 217.315,318.084 212.643,317.567 C211.21,317.409 209.823,316.846 208.415,316.469 C208.428,316.102 208.441,315.734 208.455,315.367 L208.455,315.367 Z M240.598,331.323 C240.198,326.476 238.368,322.35 234.601,319.142 C232.73,317.548 230.894,318.133 230.168,319.926 C227.391,326.789 224.955,333.816 225.598,341.39 C225.683,342.394 227.223,344.036 228.154,344.081 C233.704,344.358 240.736,336.96 240.598,331.323 L240.598,331.323 Z" id="Shape" fill="#000000"></path>
                <path d="M166.301,311.128 C169.548,311.128 172.845,310.77 176.027,311.225 C179.509,311.724 180.71,309.849 181.526,307.205 C182.561,303.853 183.304,300.402 184.491,297.109 C185.485,294.349 185.251,292.139 183.156,289.997 C177.433,284.141 171.743,278.249 166.154,272.265 C163.85,269.797 161.838,267.057 159.43,264.119 C167.985,261.677 175.942,259.453 183.868,257.123 C187.568,256.033 191.24,254.825 194.867,253.513 C199.668,251.775 203.659,253.498 206.729,256.851 C212.88,263.567 218.873,270.46 224.425,277.669 C225.768,279.412 225.808,282.822 225.268,285.199 C224.424,288.92 222.761,292.506 221.046,295.95 C220.517,297.014 218.734,297.93 217.451,298.036 C215.51,298.196 213.423,297.846 211.549,297.241 C209.243,296.498 207.319,296.153 206.365,298.94 C205.422,301.698 206.382,303.947 208.844,305.278 C210.674,306.267 212.772,306.758 214.739,307.5 C215.464,307.773 216.157,308.127 216.863,308.444 C216.892,308.887 216.921,309.33 216.95,309.772 C214.222,310.221 211.496,311.017 208.766,311.028 C205.74,311.04 204.802,312.513 204.597,315.098 C204.374,317.909 204.77,320.319 208.024,321.206 C210.07,321.765 212.079,322.459 215.17,323.426 C210.724,327.516 207.298,330.93 203.601,334.016 C196.085,340.287 188.508,346.494 180.74,352.444 C179.432,353.446 176.653,353.831 175.22,353.132 C170.289,350.725 165.654,347.711 160.328,344.59 C163.648,342.211 166.678,340.115 169.621,337.905 C171.892,336.2 173.105,333.964 172.949,330.978 C172.76,327.352 171.141,325.605 167.518,325.524 C166.362,325.5 165.206,325.52 164.049,325.52 C163.953,325.18 163.857,324.84 163.761,324.499 C165.495,323.875 167.203,323.154 168.972,322.646 C171.85,321.821 173.22,319.577 173.477,317.01 C173.608,315.709 172.462,313.764 171.306,312.985 C169.957,312.076 167.964,312.123 166.251,311.755 C166.269,311.547 166.285,311.337 166.301,311.128 L166.301,311.128 Z" id="Shape" fill="#000000"></path>
                <path d="M186.097,431.86 C190.697,425.601 195.071,420.061 198.985,414.214 C203.645,407.251 206.911,399.713 204.594,391.062 C203.296,386.218 200.094,382.662 195.712,380.181 C194.31,379.386 192.987,378.452 191.332,377.392 C201.295,368.196 198.858,359.301 190.454,350.667 C194.835,346.661 198.869,342.971 203.279,338.937 C205.859,342.249 208.877,345.287 210.89,348.887 C214.806,355.887 221.011,356.321 227.777,355.736 C231.134,355.445 232.412,356.604 230.943,359.705 C229.163,363.462 226.559,366.837 224.211,370.309 C223.363,371.562 222.221,372.616 221.16,373.82 C225.742,376.727 230.091,379.392 234.342,382.207 C241.125,386.696 244.64,393.176 244.103,401.206 C243.408,411.585 240.527,421.474 233.003,429.079 C227.176,434.972 220.61,440.132 214.433,445.684 C212.469,447.45 210.274,447.68 208.259,446.4 C200.934,441.745 193.733,436.895 186.097,431.86 L186.097,431.86 Z M216.213,398.193 C222.046,397.59 224.161,394.117 226.045,390.598 C228.4,386.197 225.976,380.956 221.174,379.559 C216.018,378.058 214.721,379.135 214.995,384.635 C215.022,385.168 214.665,385.73 214.725,386.251 C215.188,390.236 215.71,394.214 216.213,398.193 L216.213,398.193 Z M222.598,364.092 C222.605,362.037 216.827,357.5 214.894,358.204 C214.205,358.455 213.355,359.433 213.321,360.116 C213.159,363.451 213.065,366.815 213.379,370.128 C213.455,370.926 215.221,372.224 216.129,372.158 C218.802,371.967 222.589,366.924 222.598,364.092 L222.598,364.092 Z" id="Shape" fill="#000000"></path>
                <path d="M110.412,402.269 C115.517,404.109 117.008,400.79 118.668,397.416 C123.684,387.221 129.923,377.461 133.569,366.808 C136.613,357.916 143.888,355.127 150.24,350.757 C155.253,347.309 157.348,348.421 160.784,353.877 C165.885,361.977 167.898,370.772 167.998,380.233 C168.127,392.434 165.134,403.562 156.269,412.229 C147.746,420.562 137.045,423.521 125.613,420.334 C117.963,418.201 113.199,412.075 110.991,404.286 C110.863,403.832 110.731,403.379 110.412,402.269 L110.412,402.269 Z M151.392,355.066 C146.142,354.977 142.673,361.64 144.954,365.176 C145.906,366.653 147.797,368.468 149.263,368.47 C152.214,368.472 155.945,361.837 154.683,359.084 C153.859,357.29 152.116,355.916 151.392,355.066 L151.392,355.066 Z" id="Shape" fill="#000000"></path>
                <path d="M116.755,299.718 C119.381,297.522 121.988,295.303 124.636,293.135 C131.71,287.34 136.724,280.443 136.158,270.775 C135.931,266.902 134.905,263.055 134.897,259.195 C134.893,257.146 135.896,254.808 137.135,253.103 C139.505,249.841 142.901,249.631 145.62,252.598 C149.046,256.336 152.023,260.481 155.317,264.345 C161.389,271.47 167.602,278.476 173.648,285.622 C175.767,288.126 177.763,290.783 179.425,293.601 C180.107,294.759 180.097,296.598 179.797,297.997 C179.36,300.027 178.375,301.939 177.623,303.901 C176.28,307.405 174.068,308.252 169.632,307.38 C167.863,307.032 165.863,306.91 164.162,307.382 C161.653,308.08 159.854,310.139 160.866,312.747 C161.355,314.009 163.608,314.7 165.176,315.395 C166.715,316.077 168.398,316.434 170.067,317.562 C164.536,320.208 157.805,321.141 158.757,329.374 C161.979,329.839 165.322,330.322 168.666,330.805 C168.816,331.398 168.965,331.992 169.114,332.583 C164.291,336.167 159.609,339.965 154.603,343.273 C149.556,346.609 144.186,349.459 139.014,352.489 C139.911,345.95 141.097,339.187 141.715,332.373 C142.713,321.348 143.569,310.297 144.019,299.238 C144.23,294.065 139.032,290.762 134.222,292.671 C128.487,294.946 122.9,297.595 117.249,300.081 C117.083,299.962 116.919,299.84 116.755,299.718 L116.755,299.718 Z" id="Shape" fill="#000000"></path>
                <path d="M265.902,366.835 C269.44,365.087 272.077,363.785 275.557,362.065 C276.411,365.375 277.336,368.49 278.009,371.66 C279.248,377.503 280.197,383.41 281.533,389.229 C282.853,394.986 281.71,397.856 276.699,401.462 C266.683,408.671 256.803,416.068 246.806,423.306 C244.833,424.734 242.592,425.79 239.738,426.704 C240.608,424.441 241.475,422.177 242.35,419.917 C244.753,413.709 247.972,407.833 247.882,400.793 C247.77,391.979 243.705,385.498 237.093,380.287 C234.059,377.894 230.824,375.756 227.4,373.302 C231.627,368.193 234.641,362.687 236.01,356.19 C236.272,354.943 240.101,354.148 242.394,353.684 C248.03,352.542 253.733,351.741 259.401,350.755 C263.359,350.067 264.075,350.748 264.399,354.837 C264.703,358.643 265.336,362.421 265.902,366.835 L265.902,366.835 Z" id="Shape" fill="#000000"></path>
                <path d="M107.706,239.799 C110.93,243.917 115.429,245.485 121.1,243.188 C121.706,242.943 123.189,243.624 123.583,244.283 C128.75,252.922 133.387,261.619 132.739,272.334 C132.331,279.076 129.002,283.795 124.543,288.059 C121.521,290.949 118.096,293.415 114.863,296.086 C111.552,298.819 111.974,302.536 112.802,305.974 C114.087,311.307 115.709,316.583 117.584,321.74 C118.572,324.459 117.845,326.234 116.031,328.06 C110.698,333.429 103.799,335.256 96.77,337.143 C90.536,338.817 86.49,336.611 83.488,331.449 C81.321,327.725 81.349,326.476 85.259,323.605 C89.121,320.77 93.444,318.324 96.624,314.847 C103.344,307.499 107.241,298.473 107.991,288.581 C108.722,278.934 103.596,271.267 97.585,264.241 C95.503,261.808 93.301,259.479 91.151,257.104 C88.85,254.564 90.519,252.502 92.348,251.067 C97.23,247.229 102.35,243.693 107.706,239.799 L107.706,239.799 Z M123.223,279.462 C123.223,278.864 123.469,278.076 123.18,277.698 C121.949,276.088 120.693,274.419 119.105,273.223 C118.806,272.997 116.395,274.604 115.917,275.76 C114.144,280.059 111.355,284.114 112.393,289.234 C112.936,291.918 114.171,292.656 116.522,291.474 C121.447,288.998 122.486,284.299 123.223,279.462 L123.223,279.462 Z" id="Shape" fill="#000000"></path>
                <path d="M133.397,427.455 C118.839,430.764 110.839,421.113 106.587,411.151 C104.073,405.261 102.078,398.901 95.46,395.85 C93.454,394.925 92.363,394.938 90.773,396.743 C81.146,407.673 71.296,418.406 61.627,429.298 C59.236,431.991 56.795,431.979 54.086,430.208 C41.366,421.893 30.981,411.466 24.851,397.31 C22.709,392.364 20.787,387.323 18.83,382.298 C15.142,372.828 10.915,363.517 8.004,353.812 C4.949,343.63 3.094,333.082 0.884,322.658 C0.112,319.017 2.321,316.624 5.148,314.721 C7.779,312.95 10.319,311.035 13.025,309.391 C17.97,306.386 15.729,301.793 15.798,297.7 C15.904,291.507 15.383,285.221 16.285,279.145 C17.208,272.929 22.674,269.323 27.015,265.371 C29.241,263.346 32.225,262.064 35.022,260.785 C36.973,259.893 37.469,259.045 36.021,257.384 C32.75,253.631 29.762,249.575 26.148,246.188 C17.895,238.455 13.763,228.727 12.679,217.861 C12.08,211.857 14.728,206.267 18.841,201.581 C26.412,192.954 35.25,186.035 46.075,182.078 C50.248,180.552 54.751,178.455 59.247,181.585 C59.492,181.756 59.633,182.078 59.682,182.143 C54.016,183.946 48.349,185.6 42.789,187.556 C34.912,190.328 29.384,195.951 24.484,202.545 C20.157,208.367 16.954,214.455 16.69,221.805 C16.333,231.785 21.367,239.09 28.859,244.809 C38.014,251.798 47.443,258.432 56.793,265.163 C61.176,268.318 65.669,271.319 70.079,274.438 C72.621,276.236 74.793,278.222 73.044,281.808 C71.764,284.432 69.278,285.149 65.409,283.953 C57.485,281.505 52.342,276.77 51.122,268.085 C50.33,262.449 45.581,260.357 39.262,263.183 C27.169,268.59 18.222,280.336 18.274,295.176 C18.289,299.473 20.109,303.764 21.12,308.138 C17.119,311.096 12.811,314.151 8.659,317.403 C6.378,319.189 5.654,321.442 6.516,324.546 C10.088,337.387 12.856,350.475 16.957,363.136 C19.97,372.441 24.385,381.324 28.574,390.207 C31.72,396.877 34.997,403.591 39.132,409.662 C43.743,416.433 50.431,421.273 57.669,425.133 C60.503,426.644 63.196,425.309 65.584,422.348 C71.146,415.451 76.837,408.657 82.554,401.887 C84.946,399.054 87.38,396.217 90.127,393.75 C90.952,393.01 92.993,393.17 94.304,393.536 C95.94,393.994 97.401,395.084 98.93,395.913 C103.315,398.293 105.163,402.472 106.719,406.87 C109.881,415.807 114.893,423.068 124.561,425.823 C127.364,426.62 130.314,426.901 133.397,427.455 L133.397,427.455 Z" id="Shape" fill="#000000"></path>
                <path d="M148.199,423.328 C171.141,410.266 177.892,378.779 166.555,354.746 C168.811,355.92 170.534,357.3 172.459,357.695 C174.824,358.179 177.835,358.73 179.734,357.707 C187.701,353.414 192.705,355.542 193.676,364.543 C194.067,368.164 192.164,371.294 189.425,373.759 C189.075,374.073 188.644,374.295 188.291,374.606 C184.849,377.645 184.935,378.308 189.188,380.394 C193.958,382.733 198.793,385.414 199.725,391.033 C200.411,395.164 200.536,399.932 199.127,403.762 C195.312,414.142 189.139,423.348 180.53,430.335 C175.326,434.56 168.998,437.398 163.176,440.86 C160.791,442.279 158.762,441.11 157.62,439.321 C154.294,434.108 151.315,428.675 148.199,423.328 L148.199,423.328 Z M181.473,396.202 C181.895,396.902 182.668,399.326 183.503,399.348 C185.529,399.401 188.214,398.949 189.517,397.612 C194.176,392.833 192.208,385.849 185.882,383.479 C183.443,382.565 182.185,383.378 182.011,386.065 C181.813,389.136 181.682,392.212 181.473,396.202 L181.473,396.202 Z M179.656,369.591 C180.364,370.753 181.078,372.828 182.53,373.909 C183.217,374.42 185.595,373.36 186.723,372.427 C189.103,370.459 188.446,364.554 185.876,362.617 C183.29,360.668 181.584,361.285 180.791,364.483 C180.456,365.829 180.185,367.192 179.656,369.591 L179.656,369.591 Z" id="Shape" fill="#000000"></path>
                <path d="M138.946,425.732 C139.541,425.623 140.823,425.17 142.079,425.232 C143.023,425.279 144.394,425.734 144.786,426.444 C147.328,431.051 149.882,435.679 151.987,440.496 C154.029,445.167 156.83,447.341 161.482,445.64 C167.508,443.437 173.514,440.86 178.962,437.52 C182.166,435.556 184.203,435.964 186.847,437.712 C193.02,441.791 199.144,445.958 205.483,449.766 C212.265,453.841 214.178,453.178 220.391,447.532 C225.089,443.261 229.319,438.473 233.978,434.154 C235.42,432.817 237.63,432.337 239.418,431.339 C244.513,428.498 249.694,425.787 254.606,422.654 C259.16,419.75 263.377,416.322 267.828,413.249 C268.413,412.846 269.568,412.98 270.35,413.221 C271.461,413.563 272.471,414.237 273.528,414.761 C279.933,417.938 280.056,418.063 285.379,412.96 C291.954,406.656 298.292,400.105 304.768,393.695 C305.324,393.146 306.141,392.863 306.887,392.426 C310.388,396.811 313.456,401.485 317.338,405.337 C324.781,412.724 334.026,414.401 343.993,411.862 C350.983,410.081 356.992,406.522 361.975,401.145 C366.668,396.081 368.13,390.069 368.183,383.459 C368.248,375.19 364.374,368.864 358.677,363.249 C353.364,358.013 348.216,352.594 343.252,347.027 C341.997,345.62 341.604,343.369 341.128,341.429 C341.061,341.15 343.06,339.792 343.597,340.038 C345.623,340.967 347.786,342.049 349.212,343.674 C350.116,344.705 349.983,346.798 350.008,348.418 C350.1,354.276 353.876,356.782 359.695,355.249 C364.414,354.006 366.989,350.254 369.739,347.02 C378.228,337.041 378.564,325.438 374.261,313.775 C371.637,306.663 366.185,301.323 359.701,297.317 C353.334,293.384 347.157,288.924 340.343,285.981 C325.13,279.411 310.476,281.813 296.711,290.662 C296.121,291.04 295.543,291.438 294.944,291.802 C294.676,291.964 294.37,292.064 293.774,292.326 C291.374,286.91 289.015,281.59 286.628,276.204 C292.1,275.408 292.805,275.977 293.848,281.766 C294.218,283.823 294.606,285.875 294.986,287.93 C297.026,287.13 299.022,286.187 301.113,285.558 C308.84,283.233 316.481,280.291 324.386,279.032 C328.876,278.316 333.865,280.201 338.541,281.293 C347.595,283.409 354.929,288.813 361.842,294.631 C366.634,298.664 371.048,303.224 375.191,307.936 C381.747,315.392 381.837,324.195 379.974,333.452 C377.853,343.99 371.439,351.27 363.019,357.142 C360.95,358.586 361.089,359.755 362.264,361.639 C365.417,366.696 369.34,371.532 371.248,377.047 C374.258,385.743 372.487,394.448 366.869,401.823 C360.375,410.348 351.275,414.359 340.834,416.374 C330.787,418.312 323.595,413.895 316.679,407.764 C313.159,404.644 309.421,401.771 305.782,398.787 C306.109,398.33 306.436,397.875 306.763,397.419 C304.713,399.666 302.737,401.986 300.598,404.148 C295.467,409.334 290.436,414.64 285.009,419.502 C282.368,421.867 279.142,422.186 276.144,419.144 C274.448,417.422 272.155,416.289 270.175,414.92 C262.461,421.259 254.822,427.692 246.973,433.859 C245.266,435.199 242.81,436.242 240.69,436.257 C236.664,436.287 234.373,438.006 232.634,441.441 C228.294,450.01 220.89,455.415 212.571,459.534 C211.026,460.299 207.952,459.704 206.469,458.574 C198.584,452.568 190.983,446.189 183.28,439.944 C181.523,438.52 180.092,438.123 178.111,440.09 C173.188,444.972 167.13,448.053 160.445,449.848 C156.219,450.983 153.346,449.529 151.258,445.515 C148.498,440.206 145.775,434.872 142.78,429.697 C141.823,428.038 140.055,426.846 138.946,425.732 L138.946,425.732 Z" id="Shape" fill="#000000"></path>
                <path d="M310.398,360.466 C307.79,362.112 306.071,363.281 304.272,364.313 C300.048,366.736 299.028,370.179 301.529,374.6 C304.268,373.409 307.04,372.203 309.809,370.998 C312.27,374.977 311.746,381.349 308.471,384.694 C302.442,390.854 296.31,396.915 290.216,403.011 C287.977,405.251 285.747,407.503 283.473,409.706 C280.071,413.004 277.114,412.838 273.443,408.818 C275.647,406.906 277.606,404.571 280.092,403.177 C285.397,400.203 285.028,395.577 284.414,390.763 C283.791,385.873 283.175,380.977 282.325,376.123 C281.438,371.053 280.346,366.015 279.212,360.992 C278.493,357.812 276.183,358.793 274.178,359.385 C272.744,359.808 271.362,360.406 269.899,360.946 C269.224,357.234 268.448,353.814 268.073,350.351 C267.97,349.404 268.821,347.767 269.656,347.398 C275.768,344.693 280.751,340.861 284.276,335.031 C284.919,333.969 287.718,333.135 288.894,333.645 C295.953,336.705 302.873,340.095 309.735,343.583 C311.876,344.671 311.538,346.78 309.141,347.721 C307.306,348.442 305.321,348.785 303.396,349.272 C300.47,350.011 298.587,352.561 298.944,355.569 C299.297,358.553 301.514,359.146 304.045,359.386 C305.789,359.552 307.512,359.963 310.398,360.466 L310.398,360.466 Z" id="Shape" fill="#000000"></path>
                <path d="M221.107,28.253 C215.743,29.427 210.378,30.602 205.013,31.774 C204.782,31.825 204.495,31.78 204.316,31.9 C201.824,33.576 199.35,35.298 195.961,33.698 C199.602,37.622 203.243,41.546 206.885,45.469 C207.115,45.323 207.347,45.175 207.577,45.029 C205.772,42.191 203.968,39.353 201.598,35.628 C204.236,34.949 206.244,34.47 208.23,33.914 C212.121,32.824 215.961,31.521 219.897,30.643 C222.072,30.159 224.658,29.661 226.607,30.385 C231.532,32.212 236.562,34.201 240.851,37.145 C243.834,39.192 245.659,42.928 248.108,46.044 C243.193,45.695 238.631,44.78 234.204,45.215 C229.223,45.705 224.527,48.357 222.723,53.136 C221.525,56.306 222.495,60.295 222.495,63.975 C212.072,59.567 207.166,49.034 199.63,42.229 C199.728,40.805 200.188,39.318 199.78,39.021 C198.634,38.186 197.158,37.743 195.758,37.338 C194.916,37.095 193.819,37.502 193.097,37.121 C187.561,34.206 182.089,31.17 176.599,28.169 C176.196,27.949 175.807,27.701 175.457,27.493 C177.004,25.568 178.482,23.729 179.959,21.891 C179.626,21.446 179.292,21.001 178.958,20.557 C174.17,21.801 169.381,23.045 164.592,24.288 C170.418,17.912 177.714,14.11 185.171,10.647 C186.585,9.991 188.866,10.022 190.266,10.711 C197.947,14.497 205.494,18.557 213.052,22.586 C215.855,24.08 218.567,25.746 221.319,27.334 C221.248,27.641 221.178,27.947 221.107,28.253 L221.107,28.253 Z" id="Shape" fill="#000000"></path>
                <path d="M255.893,103.087 C258.597,104.525 261.478,105.712 263.96,107.463 C267.155,109.716 269.81,112.772 273.099,114.848 C277.991,117.937 281.825,121.719 282.632,127.554 C283.107,130.982 285.356,131.472 287.849,132.044 C286.811,145.77 293.945,157.605 296.274,170.497 C296.462,171.536 296.586,172.587 296.817,173.616 C297.008,174.472 297.314,175.303 297.236,176.4 C292.63,172.893 286.673,171.804 283.305,166.148 C281.958,163.887 279.342,160.523 275.091,160.37 C273.617,160.316 271.982,157.824 270.875,156.145 C269.137,153.507 268.149,150.319 266.191,147.891 C261.654,142.266 263.337,136.052 263.911,129.935 C264.349,125.264 265.255,120.915 261.638,116.603 C258.71,113.114 257.143,108.482 254.973,104.357 C255.279,103.934 255.586,103.511 255.893,103.087 L255.893,103.087 Z" id="Shape" fill="#000000"></path>
                <path d="M155.593,63.486 C157.407,64.003 159.221,64.52 161.794,65.254 C158.096,56.712 165.217,54.966 169.174,52.174 C176.22,47.202 184.524,47.666 192.691,49.206 C194.412,49.531 196.094,50.242 197.819,50.333 C206.758,50.808 209.883,57.354 212.514,64.335 C213.003,65.637 212.948,67.285 212.701,68.695 C212.147,71.854 213.261,73.078 216.38,72.283 C221.772,70.91 224.013,75.4 227.748,78.089 C225.658,78.822 223.994,79.405 222.195,80.036 C221.346,78.563 220.778,76.93 219.672,75.84 C218.642,74.826 217.042,74.39 215.693,73.7 C215.417,75.245 214.615,76.941 215.003,78.297 C215.455,79.88 216.945,81.167 217.648,83.029 C216.71,82.15 215.552,81.415 214.871,80.369 C211.44,75.108 207.712,75.257 204.605,80.712 C203.914,81.926 203.21,83.134 202.278,84.752 C203.342,85.311 204.39,85.861 205.309,86.343 C199.731,91.422 191.817,90.019 185.382,82.475 C187.949,79.664 190.879,79.421 194.718,82.14 C193.027,78.388 191.628,76.537 187.957,77.717 C184.854,78.715 181.514,78.976 177.932,80.296 C179.672,81.006 181.412,81.717 183.152,82.427 C183.012,82.74 182.873,83.052 182.734,83.365 C180.888,82.832 178.995,82.424 177.21,81.735 C174.985,80.877 173.497,79.584 175.069,76.869 C175.398,76.302 174.991,75.307 174.923,74.51 C174.001,74.804 172.775,74.821 172.207,75.44 C169.747,78.122 170.406,82.489 173.754,84.668 C176.156,86.23 178.885,87.289 181.157,88.418 C175.766,90.903 172.809,87.849 170.359,82.971 C168.7,79.668 166.352,76.712 164.312,73.6 C165.549,75.076 166.786,76.551 168.022,78.027 C168.134,72.981 162.3,66.405 158.53,65.521 C157.469,65.273 156.62,64.116 155.675,63.376 L155.593,63.486 L155.593,63.486 Z M193.159,65.632 C198.184,66.141 198.474,66.873 195.803,71.245 C195.11,72.379 194.994,73.866 194.615,75.191 C194.995,75.336 195.376,75.482 195.756,75.627 C196.557,74.623 197.549,73.716 198.116,72.595 C199.205,70.444 199.618,67.806 201.104,66.036 C203.223,63.513 202.43,61.837 200.225,60.612 C195.861,58.188 191.366,55.978 186.818,53.915 C184.38,52.809 181.718,52.193 179.156,51.356 C178.911,51.764 178.665,52.173 178.419,52.583 C179.213,53.777 180.009,54.972 180.804,56.166 C179.902,56.037 178.999,55.908 178.097,55.779 C177.999,55.99 177.901,56.201 177.803,56.412 C180.933,59.061 184.063,61.709 187.171,64.34 C183.334,63.323 179.657,62.349 175.98,61.375 C175.706,61.871 175.431,62.366 175.157,62.862 C173.284,60.77 171.413,58.677 169.54,56.585 C169.444,56.631 169.349,56.677 169.254,56.722 C171.806,60.636 174.358,64.549 176.924,68.484 C173.502,67.208 170.596,66.126 167.691,65.044 C167.482,65.462 167.273,65.881 167.064,66.3 C167.622,66.778 168.127,67.346 168.749,67.717 C171.757,69.516 174.868,71.153 177.804,73.059 C180.723,74.954 183.411,77.257 187.048,74.432 C187.581,74.016 188.767,74.057 189.483,74.33 C191.757,75.196 192.674,73.681 192.957,72.107 C193.334,70.006 193.12,67.796 193.159,65.632 L193.159,65.632 Z" id="Shape" fill="#000000"></path>
                <path d="M162.775,204.938 C157.464,203.347 152.692,201.918 147.472,200.355 C148.323,201.409 149.007,202.995 150.185,203.569 C153.047,204.963 152.085,206.069 151.01,208.364 C148.178,214.405 143.956,216.903 137.168,215.019 C137.165,215.501 137.161,215.983 137.157,216.465 C139.331,217.056 141.476,217.965 143.686,218.177 C150.121,218.792 154.43,222.484 158.029,227.402 C158.541,228.101 159.191,228.699 159.458,229.702 C156.977,227.941 154.495,226.179 151.163,223.813 C151.585,226.129 151.801,227.318 152.211,229.575 C150.538,227.755 149.512,226.639 148.2,225.213 C147.598,226.209 147.054,227.108 146.545,227.952 C145.644,226.594 144.704,225.177 143.765,223.761 C143.328,224.104 142.892,224.448 142.456,224.791 C142.519,225.574 142.583,226.357 142.646,227.14 C142.374,227.396 142.102,227.651 141.83,227.907 C140.54,226.476 139.249,225.046 137.863,223.508 C136.491,225.208 135.5,227.098 133.457,223.429 C132.246,221.254 128.947,220.084 126.402,218.843 C121.808,216.603 119.753,211.497 125.521,207.71 C129.208,205.289 130.621,201.487 130.961,197.352 C131.044,196.334 129.815,195.097 128.985,194.139 C126.358,191.107 126.119,187.83 128.397,184.104 C130.244,181.082 134.148,179.556 137.565,180.357 C144.761,182.043 150.644,185.982 156,190.878 C158.364,193.041 160.717,195.221 163.163,197.29 C165.458,199.231 166.971,201.085 163.709,203.501 C163.195,203.883 162.96,204.642 162.775,204.938 L162.775,204.938 Z" id="Shape" fill="#000000"></path>
                <path d="M170.784,103.095 C172.102,105.005 171.5,106.694 169.002,108.186 C161.64,112.582 154.417,111.454 147.838,106.981 C140.51,101.998 132.866,99.314 123.936,100.089 C119.277,100.494 114.526,100.458 109.87,100.033 C107.498,99.817 105.245,98.304 102.286,97.115 C107.957,96.637 112.724,96.522 117.383,95.752 C121.035,95.148 124.591,93.846 128.125,92.659 C135.018,90.342 141.548,91.605 148.043,94.231 C148.936,94.592 150.532,94.556 151.116,93.993 C151.803,93.33 151.907,91.893 151.923,90.787 C151.929,90.343 151.051,89.526 150.536,89.493 C147.106,89.268 146.264,88.237 147.121,84.867 C147.289,84.205 147.757,83.621 148.085,83.006 C154.37,84.757 159.588,88.26 164.296,92.625 C166.511,94.679 167.971,97.1 166.757,100.146 C165.51,103.275 162.801,104.817 159.587,105.159 C154.603,105.689 150.109,104.268 145.828,101.616 C143.034,99.885 139.85,98.783 136.841,97.4 C136.643,97.727 136.444,98.053 136.245,98.38 C136.471,98.842 136.574,99.531 136.942,99.732 C141.544,102.242 146.159,104.732 150.823,107.125 C155.017,109.276 159.532,109.712 163.843,107.968 C166.361,106.947 168.424,104.802 170.784,103.095 L170.784,103.095 Z" id="Shape" fill="#000000"></path>
                <path d="M135.194,175.918 C122.152,181.834 120.21,187.484 128.081,197.318 C124.262,197.589 120.842,198.456 117.73,197.818 C115.848,197.433 114.277,194.845 112.853,193.022 C107.908,186.693 104.148,183.343 97.236,179.544 C97.573,179.072 97.795,178.408 98.231,178.205 C105.947,174.603 113.073,169.401 122.053,169.192 C123.459,169.159 125.099,169.186 126.243,169.851 C129.165,171.55 131.867,173.624 135.194,175.918 L135.194,175.918 Z" id="Shape" fill="#000000"></path>
                <path d="M162.808,71.281 C156.846,66.67 151.636,67.739 147.836,75.001 C145.947,78.61 145.257,82.836 143.878,86.73 C143.608,87.488 142.735,88.433 142.01,88.563 C138.279,89.233 130.661,84.014 129.906,80.3 C129.74,79.487 130.157,78.483 130.504,77.65 C131.45,75.377 132.205,72.937 133.598,70.958 C134.947,69.042 136.994,67.618 139.436,65.315 C136.973,65.073 135.109,64.888 132.968,64.677 C133.278,63.895 133.499,63.054 133.918,62.327 C136.131,58.487 134.187,54.639 134.107,50.782 C134.06,48.503 134.86,46.205 135.432,43.076 C136.009,49.352 136.358,54.498 137.095,59.588 C137.196,60.284 139.344,61.318 140.337,61.125 C142.656,60.674 143.239,58.953 141.879,56.667 C143.129,56.106 144.268,55.594 145.762,54.923 C145.399,54.019 144.835,52.282 144.695,52.315 C142.858,52.756 141.081,53.446 139.216,54.099 C139.001,53.405 138.831,52.23 138.298,51.255 C136.703,48.344 138.1,46.592 140.653,45.774 C143.127,44.98 145.622,44.863 146.412,48.478 C146.709,49.836 147.884,51.001 149.05,52.887 C150.611,46.882 148.7,44.591 141.207,42.093 C146.206,40.77 149.772,43.522 153.162,46.482 C153.673,46.927 153.723,48.476 153.369,49.221 C152.571,50.904 151.383,52.4 150.358,53.976 C148.712,56.51 149.285,58.833 151.841,60.538 C153.16,61.418 154.347,62.496 155.593,63.485 L155.674,63.376 C154.079,63.571 152.307,64.31 150.924,63.857 C147.298,62.67 144.743,64.205 142.267,66.391 C140.541,67.915 140.202,69.389 142.68,70.466 C139.951,75.477 138.205,80.465 139.962,85.987 C140.659,84.445 140.901,82.826 141.258,81.234 C142.652,75.004 145.425,69.91 152.136,68.027 C157.244,66.595 161.256,67.783 162.808,71.281 L162.808,71.281 Z" id="Shape" fill="#000000"></path>
                <path d="M78.335,328.759 C81.686,343.482 91.744,342.922 103.457,339.328 C102.957,346.246 102.524,352.224 102.091,358.201 C101.77,358.31 101.448,358.421 101.127,358.53 C99.851,357.09 98.504,355.704 97.313,354.197 C95.353,351.718 93.43,351.556 91.104,353.678 C89.015,355.584 86.833,357.388 84.379,359.508 C79.563,349.749 77.68,339.676 78.335,328.759 L78.335,328.759 Z" id="Shape" fill="#000000"></path>
                <path d="M197.956,232.751 C191.008,229.574 184.43,226.563 177.847,223.562 C177.112,223.227 176.242,222.535 175.628,222.706 C173.328,223.348 173.742,221.999 173.81,220.652 C173.852,219.834 173.613,219.001 173.089,217.851 C170.983,222.67 167.811,218.956 165.517,219.353 C161.481,213.217 164.401,208.021 168.116,202.973 C172.409,204.304 173.288,206.117 171.462,209.834 C170.909,210.96 170.651,212.23 170.259,213.434 C170.566,213.547 170.873,213.661 171.18,213.774 C171.532,213.28 171.861,212.769 172.239,212.296 C174.784,209.114 175.396,208.897 178.292,211.566 C183.746,216.593 189.546,221.276 195.472,225.746 C197.888,227.567 198.304,229.556 197.956,232.751 L197.956,232.751 Z" id="Shape" fill="#000000"></path>
                <path d="M132.042,252.636 C130.554,249.028 129.084,245.461 127.54,241.717 C128.577,241.181 129.6,240.652 130.869,239.994 C131.98,242.094 133.085,244.182 134.411,246.687 C135.741,245.76 136.888,245.023 137.967,244.197 C140.899,241.951 145.096,241.981 147.708,244.553 C149.903,246.716 152.082,248.963 153.864,251.461 C156.385,254.993 159.747,255.022 163.212,254.01 C170.481,251.888 177.614,249.29 184.917,247.304 C186.825,246.784 189.148,247.791 191.281,248.098 C191.277,248.412 191.272,248.726 191.267,249.039 C186.455,250.728 181.695,252.583 176.82,254.062 C171.113,255.794 165.246,257.011 159.576,258.845 C157.393,259.55 156.163,258.991 154.952,257.509 C152.785,254.857 150.678,252.155 148.526,249.488 C145.431,245.656 140.883,244.032 137.591,248.047 C136.125,249.837 133.98,251.069 132.042,252.636 L132.042,252.636 Z" id="Shape" fill="#000000"></path>
                <path d="M224.083,68.55 C228.924,70.029 233.4,71.42 237.898,72.739 C238.421,72.893 239.318,72.874 239.61,72.548 C242.082,69.78 244.321,71.399 246.756,72.645 C250.178,74.395 253.723,75.903 257.215,77.516 C257.641,77.713 258.235,77.81 258.454,78.146 C259.49,79.74 260.423,81.401 261.392,83.037 C259.676,83.235 257.882,83.856 256.258,83.555 C250.751,82.532 245.212,81.486 239.857,79.88 C233.514,77.978 228.633,73.726 224.083,68.55 L224.083,68.55 Z" id="Shape" fill="#000000"></path>
                <path d="M263.211,252.329 C265.533,249.719 267.467,246.452 270.33,244.758 C271.892,243.834 275.214,245.183 277.423,246.198 C282.317,248.447 286.488,251.784 290.027,255.897 C290.879,256.888 292.017,257.632 293.907,259.242 C290.192,258.129 287.491,257.163 284.713,256.543 C282.962,256.153 281.088,256.352 279.283,256.154 C278.174,256.033 276.802,255.996 276.046,255.344 C272.227,252.047 268.041,250.722 263.117,252.241 L263.211,252.329 L263.211,252.329 Z" id="Shape" fill="#000000"></path>
                <path d="M194.939,106.836 C190.913,113.802 184.788,113.161 178.858,113.135 C178.356,118.041 184.697,115.306 185.028,119.335 C176.912,120.777 170.104,115.013 162.441,115.225 C165.488,113.655 168.463,111.487 171.784,110.579 C175.477,109.569 179.511,109.878 183.347,109.295 C187.023,108.737 190.637,107.768 194.939,106.836 L194.939,106.836 Z" id="Shape" fill="#000000"></path>
                <path d="M162.808,71.281 C161.256,67.783 157.244,66.595 152.136,68.028 C145.425,69.911 142.651,75.004 141.258,81.235 C140.902,82.828 140.659,84.446 139.962,85.988 C138.205,80.466 139.951,75.478 142.68,70.467 C140.202,69.39 140.541,67.916 142.267,66.392 C144.743,64.206 147.298,62.672 150.924,63.858 C152.307,64.31 154.08,63.572 155.674,63.377 C156.62,64.117 157.468,65.273 158.529,65.522 C162.3,66.406 168.133,72.981 168.021,78.028 C166.784,76.552 165.547,75.077 164.311,73.601 C163.81,72.828 163.309,72.055 162.808,71.281 L162.808,71.281 Z" id="Shape" fill="#FFFFFF"></path>
                <path d="M85.928,183.739 C88.731,181.874 91.567,182.997 94.565,185.087 C100.316,189.097 106.594,192.447 110.33,199.038 C108.26,200.845 106.668,201.215 104.235,199.024 C98.331,193.711 92.057,188.81 85.928,183.739 L85.928,183.739 Z" id="Shape" fill="#000000"></path>
                <path d="M144.051,180.322 C142.282,179.048 140.413,177.892 138.768,176.474 C135.797,173.914 133.01,171.141 130.057,168.559 C124.296,163.521 117.869,164.158 111.534,166.983 C106.326,169.306 101.436,172.335 96.29,174.813 C92.965,176.413 89.433,177.581 85.827,178.497 C90.352,175.912 94.718,172.975 99.443,170.829 C105.579,168.043 112.018,165.932 118.294,163.446 C122.247,161.882 125.696,163.186 128.898,165.292 C133.014,167.999 137.143,170.742 140.91,173.895 C142.591,175.302 143.405,177.746 144.613,179.719 C144.424,179.92 144.237,180.121 144.051,180.322 L144.051,180.322 Z" id="Shape" fill="#000000"></path>
                <path d="M305.804,368.704 C308.226,365.649 312.088,364.76 315.187,366.54 C320.46,369.571 325.654,372.752 330.796,376.002 C332.84,377.294 332.413,380.487 330.221,381.522 C326.688,383.189 323.615,382.037 321.84,378.343 C321.491,377.616 321.118,376.846 321.018,376.063 C320.521,372.151 320.059,368.278 314.479,369.317 C311.896,366.062 309,366.487 305.804,368.704 L305.804,368.704 Z" id="Shape" fill="#000000"></path>
                <path d="M306.495,102.765 C300.651,106.03 295.079,109.142 289.736,112.127 C288.028,110.75 286.541,109.553 284.807,108.157 C289.645,105.528 294.418,102.666 299.436,100.325 C301.748,99.247 304.432,99.525 306.495,102.765 L306.495,102.765 Z" id="Shape" fill="#000000"></path>
                <path d="M282.792,217.654 C278.04,219.97 273.968,221.956 269.654,224.059 C268.802,219.961 267.986,216.031 267.054,211.554 C272.439,213.641 277.264,215.511 282.792,217.654 L282.792,217.654 Z" id="Shape" fill="#000000"></path>
                <path d="M242.096,262.116 C239.238,265.48 238.51,269.372 240.076,271.366 C242.405,274.33 245.413,273.862 248.448,272.913 C251.862,271.844 253.092,269.549 252.728,265.189 C253.018,265.118 253.308,265.046 253.598,264.975 C254.038,266.96 255.35,269.344 254.674,270.817 C254.013,272.256 251.415,273.104 249.508,273.61 C245.617,274.64 241.508,275.487 237.887,272.945 C236.144,271.72 233.613,269.716 233.703,268.199 C233.863,265.502 235.775,262.971 239.272,262.85 C240.047,262.823 240.809,262.463 242.096,262.116 L242.096,262.116 Z" id="Shape" fill="#000000"></path>
                <path d="M294.793,118.018 C293.791,116.123 293.262,115.121 292.47,113.624 C297.222,110.955 302.045,108.146 306.996,105.586 C307.64,105.253 308.943,106.198 309.94,106.551 C309.636,107.296 309.546,108.359 308.992,108.734 C304.329,111.886 299.581,114.912 294.793,118.018 L294.793,118.018 Z" id="Shape" fill="#000000"></path>
                <path d="M152.1,237.804 C157.337,239.542 164.157,241.805 171.891,244.371 C169.109,245.245 167.155,245.559 165.501,246.437 C161.821,248.394 159.086,247.5 156.793,244.25 C155.052,241.78 153.236,239.361 152.1,237.804 L152.1,237.804 Z" id="Shape" fill="#000000"></path>
                <path d="M263.116,252.242 C262.545,252.936 261.974,253.631 261.068,254.732 L265.325,254.732 C266.017,256.964 265.423,260.696 270.042,258.709 C270.896,258.342 272.256,259.235 273.401,259.434 C274.362,259.599 275.351,259.598 276.581,259.69 C276.798,261.553 275.788,262.943 273.409,262.846 C266.515,262.565 261.965,261.541 258.547,254.14 C260.104,253.53 261.65,252.923 263.204,252.324 C263.211,252.329 263.116,252.242 263.116,252.242 L263.116,252.242 Z" id="Shape" fill="#000000"></path>
                <path d="M287.111,104.056 C286.1,102.532 285.405,101.483 284.409,99.981 C288.633,98.098 292.693,96.148 296.888,94.558 C297.56,94.303 298.84,95.651 300.557,96.693 C295.63,99.392 291.483,101.663 287.111,104.056 L287.111,104.056 Z" id="Shape" fill="#000000"></path>
                <path d="M85.438,253.02 C82.891,250.133 80.559,247.64 78.431,244.983 C77.827,244.229 77.279,242.639 77.659,242.066 C78.323,241.066 79.68,240.101 80.834,239.984 C81.875,239.878 83.872,240.778 83.997,241.49 C84.587,244.857 84.061,248.452 86.441,251.408 C86.533,251.521 85.992,252.146 85.438,253.02 L85.438,253.02 Z" id="Shape" fill="#000000"></path>
                <path d="M81.355,180.318 C73.865,180.717 66.244,182.551 59.265,177.638 C53.935,173.886 53.279,164.631 57.989,159.275 C59.095,158.017 60.179,156.739 61.274,155.47 C61.529,155.674 61.783,155.878 62.038,156.081 C61.062,157.501 60.092,158.926 59.11,160.342 C52.601,169.731 57.251,176.818 66.773,179.22 C70.497,180.159 74.65,179.395 78.608,179.406 C79.551,179.408 80.494,179.406 81.438,179.406 C81.41,179.71 81.382,180.014 81.355,180.318 L81.355,180.318 Z" id="Shape" fill="#000000"></path>
                <path d="M249.039,53.776 C242.838,56.637 238.236,54.584 237.177,48.642 C243.039,47.798 244.662,48.476 249.039,53.776 L249.039,53.776 Z" id="Shape" fill="#000000"></path>
                <path d="M298.283,131.307 C298.365,130.27 298.409,129.72 298.481,128.814 C295.767,129.089 293.119,129.357 291.029,129.569 C291.96,127.346 292.944,124.992 293.929,122.639 C294.2,122.756 294.472,122.871 294.744,122.988 C294.233,124.35 293.723,125.711 293.218,127.06 C296.897,129.012 297.865,128.71 299.727,125.094 C302.525,129.219 304.943,125.057 307.71,124.842 C308.178,125.557 308.752,126.435 309.614,127.755 C306.038,128.875 302.426,130.008 298.283,131.307 L298.283,131.307 Z" id="Shape" fill="#000000"></path>
                <path d="M223.724,473.131 C232.556,474.66 233.633,476.23 229.684,481.587 C227.603,478.634 225.663,475.882 223.724,473.131 L223.724,473.131 Z" id="Shape" fill="#000000"></path>
                <path d="M290.999,94.027 C284.759,97.13 278.623,100.478 272.223,103.206 C269.94,104.18 267.017,103.655 264.321,103.483 C274.267,102.933 282.051,96.81 290.522,92.506 C290.681,93.013 290.84,93.52 290.999,94.027 L290.999,94.027 Z" id="Shape" fill="#000000"></path>
                <path d="M300.626,117.348 C303.419,115.939 306.169,114.421 309.05,113.223 C309.57,113.007 310.636,114.104 311.45,114.596 C308.832,116.071 306.275,117.68 303.556,118.94 C302.754,119.312 301.494,118.698 300.445,118.536 C300.506,118.139 300.565,117.743 300.626,117.348 L300.626,117.348 Z" id="Shape" fill="#000000"></path>
                <path d="M161.477,207.263 C161.174,209.824 160.928,211.904 160.663,214.149 C157.872,213.622 157.157,210.573 155.771,208.259 C155.541,207.874 156.134,206.554 156.674,206.257 C157.437,205.835 158.563,205.715 159.422,205.924 C160.261,206.128 160.961,206.906 161.477,207.263 L161.477,207.263 Z" id="Shape" fill="#000000"></path>
                <path d="M182.067,98.712 C183.274,95.687 184.577,93.44 187.767,94.032 C188.282,94.129 189.047,96.357 188.681,97.099 C187.349,99.805 185.039,99.887 182.067,98.712 L182.067,98.712 Z" id="Shape" fill="#000000"></path>
                <path d="M132.038,455.901 C133.709,457.132 134.996,458.082 136.539,459.219 C134.958,461.52 133.525,463.607 132.09,465.696 C131.765,465.613 131.44,465.53 131.115,465.448 C131.406,462.443 131.696,459.438 132.038,455.901 L132.038,455.901 Z" id="Shape" fill="#000000"></path>
                <path d="M159.995,72.553 C159.874,77.78 158.123,80.605 154.027,80.256 C155.775,77.182 157.288,74.523 158.8,71.862 C159.199,72.094 159.597,72.323 159.995,72.553 L159.995,72.553 Z" id="Shape" fill="#000000"></path>
                <path d="M185.617,478.167 C183.54,473.905 183.907,472.955 188.176,471.108 C189.432,475.694 189.18,476.449 185.617,478.167 L185.617,478.167 Z" id="Shape" fill="#000000"></path>
                <path d="M107.791,113.472 C108.141,116.006 108.695,118.536 108.736,121.075 C108.752,122.066 107.614,123.075 106.687,124.59 C104.969,120.096 106.7,116.843 107.829,113.507 C107.823,113.498 107.791,113.472 107.791,113.472 L107.791,113.472 Z" id="Shape" fill="#000000"></path>
                <path d="M165.471,79.135 C164.635,80.695 164.05,82.499 162.861,83.715 C162.246,84.343 160.563,83.927 159.363,83.983 C159.177,83.512 158.992,83.042 158.806,82.571 C160.55,81.05 162.294,79.53 164.039,78.009 C164.516,78.384 164.994,78.759 165.471,79.135 L165.471,79.135 Z" id="Shape" fill="#000000"></path>
                <path d="M122.959,230.526 C120.89,229.121 119.02,226.887 117.695,227.173 C115.604,227.625 113.878,229.769 111.776,231.364 C111.91,230.321 111.76,227.804 112.34,227.623 C114.944,226.809 117.778,226.307 120.481,226.471 C121.344,226.525 122.061,228.977 122.959,230.526 L122.959,230.526 Z" id="Shape" fill="#000000"></path>
                <path d="M194.112,96.161 C196.673,97.948 196.992,99.714 195.079,101.256 C194.267,101.91 191.857,102.096 191.539,101.607 C189.353,98.246 193.728,98.47 194.112,96.161 L194.112,96.161 Z" id="Shape" fill="#000000"></path>
                <path d="M172.489,89.627 C170.179,89.884 168.83,90.034 167.482,90.184 C167.362,88.383 167.244,86.581 167.124,84.781 C167.562,84.665 168.001,84.55 168.44,84.434 C169.51,85.807 170.581,87.179 172.489,89.627 L172.489,89.627 Z" id="Shape" fill="#000000"></path>
                <path d="M237.227,57.627 C238.582,58.617 239.575,59.342 240.566,60.066 C239.608,60.707 238.579,61.956 237.709,61.853 C236.25,61.681 234.893,60.647 233.493,59.976 C234.621,59.265 235.75,58.555 237.227,57.627 L237.227,57.627 Z" id="Shape" fill="#000000"></path>
                <path d="M246.136,174.801 C247.794,177.456 249.261,179.806 251.243,182.983 C248.647,181.278 246.425,180.095 244.658,178.428 C244.298,178.088 245.653,175.93 246.136,174.801 L246.136,174.801 Z" id="Shape" fill="#000000"></path>
                <path d="M256.347,171.479 C255.404,175.033 255.92,177.979 259.394,179.696 C259.206,179.982 259.017,180.269 258.829,180.555 C257.348,179.505 255.081,178.734 254.583,177.334 C253.978,175.633 254.864,173.403 255.104,171.402 C255.519,171.428 255.933,171.453 256.347,171.479 L256.347,171.479 Z" id="Shape" fill="#000000"></path>
                <path d="M267.938,170.426 C269.32,171.569 270.95,172.533 271.96,173.942 C272.366,174.508 271.416,176.049 270.916,177.697 C269.444,175.007 268.382,173.064 267.319,171.121 C267.525,170.89 267.731,170.658 267.938,170.426 L267.938,170.426 Z" id="Shape" fill="#000000"></path>
                <path d="M226.938,56.718 C228.91,54.331 230.491,52.419 232.071,50.507 C231.526,53.246 232.474,57.157 226.938,56.718 L226.938,56.718 Z" id="Shape" fill="#000000"></path>
                <path d="M161.068,32.637 C164.374,32.838 167.679,33.04 170.985,33.241 C170.946,33.718 170.908,34.195 170.87,34.671 C167.591,34.409 164.31,34.146 161.031,33.884 C161.043,33.468 161.056,33.052 161.068,32.637 L161.068,32.637 Z" id="Shape" fill="#000000"></path>
                <path d="M173.631,36.633 C169.703,39.044 165.027,38.772 159.636,36.633 L173.631,36.633 L173.631,36.633 Z" id="Shape" fill="#000000"></path>
                <path d="M170.429,41.471 C166.731,43.825 163.865,42.102 161.062,39.864 C164.088,40.383 167.114,40.902 170.429,41.471 L170.429,41.471 Z" id="Shape" fill="#000000"></path>
                <path d="M226.324,180.333 C227.33,182.449 228.335,184.565 229.444,186.899 C226.802,186.802 225.458,184.165 226.324,180.333 L226.324,180.333 Z" id="Shape" fill="#000000"></path>
                <path d="M271.181,267.646 C262.715,268.335 262.715,268.335 262.522,265.713 C265.145,266.298 267.68,266.863 271.181,267.646 L271.181,267.646 Z" id="Shape" fill="#000000"></path>
                <path d="M200.67,126.635 C202.435,127.514 204.336,128.197 205.94,129.309 C211.927,133.456 217.771,137.809 223.77,141.938 C225.532,143.149 227.627,143.876 229.8,144.938 C230.056,148.461 232.738,150.503 238.101,150.854 L238.101,154.753 C235.084,154.916 232.161,155.074 228.084,155.293 C229.711,153.802 230.671,152.921 231.802,151.885 C229.017,149.286 225.937,147.095 221.007,148.588 C221.62,147.574 222.234,146.559 223.287,144.818 C215.596,139.592 206.482,135.272 200.67,126.635 L200.67,126.635 Z" id="Shape" fill="#FFFFFF"></path>
                <path d="M189.294,143.013 C191.581,142.756 194.668,142.41 198.025,142.034 C198.262,145.255 195.695,145.33 193.913,145.732 C189.06,146.825 184.091,148.431 179.464,145.557 C179.451,145.199 179.439,144.84 179.427,144.481 C180.343,144.233 181.26,143.985 181.922,143.806 C181.648,142.384 180.776,140.59 181.302,139.955 C182.088,139.006 184.275,138.102 185.121,138.559 C186.699,139.412 187.742,141.257 189.294,143.013 L189.294,143.013 Z" id="Shape" fill="#FFFFFF"></path>
                <path d="M150.96,174.628 C154.972,174.307 157.839,176.862 156.962,180.421 C156.716,181.418 155.056,182.941 154.42,182.775 C153.243,182.471 151.866,181.273 151.443,180.127 C150.865,178.555 151.097,176.684 150.96,174.628 L150.96,174.628 Z" id="Shape" fill="#FFFFFF"></path>
                <path d="M208.784,172.515 C205.127,172.566 197.574,168.138 196.32,165.208 C200.665,164.813 206.465,168.214 208.784,172.515 L208.784,172.515 Z" id="Shape" fill="#FFFFFF"></path>
                <path d="M239.815,155.477 C242.186,157.101 244.607,158.662 246.865,160.431 C247.139,160.646 246.476,162.697 246.352,162.686 C244.494,162.525 242.068,162.763 240.957,161.687 C239.666,160.437 239.53,157.994 238.894,156.069 C239.201,155.871 239.508,155.673 239.815,155.477 L239.815,155.477 Z" id="Shape" fill="#FFFFFF"></path>
                <path d="M238.531,131.957 C236.411,133.332 235.315,134.604 234.297,134.545 C233.269,134.485 232.318,133.105 231.332,132.303 C232.401,131.189 233.312,129.742 234.617,129.127 C235.143,128.879 236.527,130.455 238.531,131.957 L238.531,131.957 Z" id="Shape" fill="#FFFFFF"></path>
                <path d="M263.637,155.954 C268.502,158.853 265.544,162.285 265.694,165.5 C265.187,165.53 264.678,165.561 264.17,165.591 C263.992,162.379 263.814,159.167 263.637,155.954 L263.637,155.954 Z" id="Shape" fill="#FFFFFF"></path>
                <path d="M205.902,230.22 C209.092,232.787 205.887,235.233 206.687,237.597 C203.441,236.871 203.441,236.871 205.902,230.22 L205.902,230.22 Z" id="Shape" fill="#FFFFFF"></path>
                <path d="M238.099,98.393 C237.348,98.981 236.626,100.03 235.839,100.082 C231.303,100.379 227.528,102.088 224.235,105.227 C223.347,106.074 221.775,106.509 220.493,106.563 C218.411,106.65 217.309,105.06 218.895,103.664 C221.428,101.434 224.338,99.304 227.465,98.172 C230.455,97.09 233.927,97.336 237.186,96.998 C237.49,97.462 237.795,97.927 238.099,98.393 L238.099,98.393 Z" id="Shape" fill="#FFFFFF"></path>
                <path d="M315.886,211.273 C317.503,213.934 316.636,221.656 314.4,224.514 C311.619,220.349 312.028,216.703 315.886,211.273 L315.886,211.273 Z" id="Shape" fill="#FFFFFF"></path>
                <path d="M240.598,331.323 C240.737,336.96 233.704,344.358 228.154,344.082 C227.223,344.037 225.683,342.394 225.598,341.391 C224.955,333.817 227.391,326.79 230.168,319.927 C230.894,318.134 232.73,317.549 234.601,319.143 C238.367,322.351 240.197,326.477 240.598,331.323 L240.598,331.323 Z M227.795,340.136 C237.193,337.074 239.121,329.421 232.393,323.837 C230.805,329.468 229.3,334.802 227.795,340.136 L227.795,340.136 Z" id="Shape" fill="#FFFFFF"></path>
                <path d="M216.213,398.193 C215.71,394.214 215.189,390.236 214.726,386.252 C214.665,385.731 215.023,385.169 214.996,384.636 C214.722,379.136 216.018,378.059 221.175,379.56 C225.977,380.957 228.402,386.198 226.046,390.599 C224.161,394.117 222.046,397.591 216.213,398.193 L216.213,398.193 Z M218.357,382.006 C218.136,382.312 217.914,382.617 217.692,382.923 C218.39,386.194 219.088,389.466 219.774,392.688 C222.867,390.847 223.261,387.923 222.345,385.176 C221.896,383.826 219.741,383.045 218.357,382.006 L218.357,382.006 Z" id="Shape" fill="#FFFFFF"></path>
                <path d="M222.598,364.092 C222.589,366.924 218.802,371.967 216.128,372.158 C215.22,372.223 213.454,370.926 213.378,370.128 C213.065,366.816 213.158,363.451 213.32,360.116 C213.354,359.433 214.204,358.455 214.893,358.204 C216.827,357.5 222.604,362.037 222.598,364.092 L222.598,364.092 Z" id="Shape" fill="#FFFFFF"></path>
                <path d="M151.392,355.066 C152.116,355.916 153.86,357.29 154.683,359.085 C155.945,361.838 152.214,368.473 149.263,368.471 C147.797,368.469 145.906,366.654 144.954,365.177 C142.673,361.641 146.141,354.978 151.392,355.066 L151.392,355.066 Z" id="Shape" fill="#FFFFFF"></path>
                <path d="M123.223,279.462 C122.487,284.299 121.447,288.998 116.523,291.475 C114.172,292.657 112.937,291.918 112.394,289.235 C111.357,284.116 114.145,280.06 115.918,275.761 C116.395,274.605 118.806,272.998 119.106,273.224 C120.693,274.419 121.949,276.088 123.181,277.699 C123.469,278.076 123.223,278.864 123.223,279.462 L123.223,279.462 Z" id="Shape" fill="#FFFFFF"></path>
                <path d="M181.473,396.202 C181.681,392.212 181.813,389.136 182.011,386.064 C182.185,383.377 183.442,382.564 185.882,383.478 C192.208,385.848 194.176,392.832 189.517,397.611 C188.214,398.948 185.53,399.4 183.503,399.347 C182.668,399.326 181.895,396.902 181.473,396.202 L181.473,396.202 Z" id="Shape" fill="#FFFFFF"></path>
                <path d="M179.656,369.591 C180.185,367.193 180.456,365.829 180.791,364.484 C181.585,361.286 183.291,360.669 185.876,362.618 C188.445,364.555 189.103,370.46 186.723,372.428 C185.595,373.362 183.216,374.421 182.53,373.91 C181.078,372.828 180.364,370.753 179.656,369.591 L179.656,369.591 Z" id="Shape" fill="#FFFFFF"></path>
                <path d="M193.159,65.632 C193.12,67.796 193.334,70.006 192.956,72.109 C192.674,73.683 191.757,75.197 189.482,74.332 C188.766,74.059 187.581,74.019 187.047,74.434 C183.41,77.259 180.723,74.955 177.803,73.061 C174.867,71.155 171.756,69.519 168.748,67.719 C168.126,67.348 167.622,66.779 167.063,66.302 C167.271,65.883 167.48,65.464 167.69,65.046 C170.595,66.129 173.501,67.211 176.923,68.486 C174.357,64.55 171.804,60.637 169.253,56.724 C169.348,56.679 169.443,56.633 169.539,56.587 C171.412,58.679 173.283,60.772 175.156,62.864 C175.43,62.368 175.704,61.873 175.979,61.377 C179.656,62.351 183.333,63.325 187.17,64.342 C184.062,61.711 180.932,59.063 177.802,56.414 C177.9,56.203 177.998,55.992 178.096,55.781 C178.998,55.909 179.901,56.039 180.803,56.168 C184.922,59.322 189.041,62.477 193.159,65.632 L193.159,65.632 Z" id="Shape" fill="#FFFFFF"></path>
                <path d="M193.159,65.632 C189.041,62.477 184.922,59.321 180.804,56.166 C180.009,54.971 179.214,53.777 178.419,52.583 C178.665,52.174 178.911,51.765 179.156,51.356 C181.718,52.192 184.379,52.809 186.818,53.915 C191.366,55.978 195.861,58.188 200.225,60.612 C202.43,61.837 203.223,63.512 201.104,66.036 C199.618,67.806 199.205,70.444 198.116,72.595 C197.549,73.717 196.556,74.623 195.756,75.627 C195.376,75.482 194.995,75.336 194.615,75.191 C194.995,73.866 195.11,72.379 195.803,71.245 C198.475,66.874 198.185,66.142 193.159,65.632 L193.159,65.632 Z" id="Shape" fill="#FFFFFF"></path>
                <path d="M227.795,340.136 C229.3,334.802 230.805,329.468 232.393,323.837 C239.121,329.421 237.193,337.073 227.795,340.136 L227.795,340.136 Z" id="Shape" fill="#000000"></path>
                <path d="M218.357,387.006 C219.741,388.045 221.896,388.826 222.345,390.176 C223.261,392.923 222.866,395.847 219.774,397.688 C219.087,394.466 218.39,391.195 217.692,387.923 C217.914,387.617 218.137,387.312 218.357,387.006 L218.357,387.006 Z" id="Shape" fill="#000000"></path>
            </g>
        </g>
    </g>
</svg>