<?xml version="1.0" encoding="UTF-8" standalone="no"?>
<svg width="365px" height="398px" viewBox="0 0 365 398" version="1.1" xmlns="http://www.w3.org/2000/svg" xmlns:xlink="http://www.w3.org/1999/xlink" xmlns:sketch="http://www.bohemiancoding.com/sketch/ns">
    <!-- Generator: Sketch 3.2.2 (9983) - http://www.bohemiancoding.com/sketch -->
    <title>5feetlogo</title>
    <desc>Created with Sketch.</desc>
    <defs>
        <rect id="path-1" x="0.889597315" y="0.66352819" width="1098.67114" height="1553.87505"></rect>
        <rect id="path-3" x="0.889597315" y="0.66352819" width="1098.67114" height="1553.87505"></rect>
    </defs>
    <g id="Page-1" stroke="none" stroke-width="1" fill="none" fill-rule="evenodd" sketch:type="MSPage">
        <g id="5feetlogo" sketch:type="MSLayerGroup" transform="translate(-350.000000, -316.000000)">
            <g id="Clipped">
                <mask id="mask-2" sketch:name="SVGID_1_" fill="white">
                    <use xlink:href="#path-1"></use>
                </mask>
                <g id="SVGID_1_"></g>
                <path d="M513.645314,437.077555 C513.635536,437.068089 513.625772,437.058614 513.616023,437.049131 L513.471141,436.479733 C513.52651,435.487671 513.566191,434.493763 513.639094,433.505392 C522.734396,431.982691 529.471896,438.270982 537.95906,439.916421 C547.190017,441.711362 562.113842,442.098036 569.229698,444.835205 L569.214933,444.93395 C577.118876,445.202499 584.53557,443.624427 592.110067,442.854772 C600.837164,441.977142 609.906628,437.453338 618.489765,438.461089 C617.85948,440.873415 616.395889,444.466065 614.504111,448.357718 C614.431208,448.421395 614.355537,448.476766 614.292785,448.537674 C611.653523,450.837412 608.982886,453.086395 605.835151,454.163359 C607.10495,454.349774 608.865688,455.437813 610.432634,455.920463 C610.662416,455.991522 610.865436,456.042279 611.059228,456.086576 C611.08599,456.150252 611.090604,456.199163 611.095218,456.266531 C604.047651,468.967697 586.512248,484.605368 551.306711,485.767234 C542.507634,486.050549 532.892785,484.682887 525.257383,483.782187 L524.111242,486.679932 C522.634732,493.740647 522.955872,500.864116 521.921393,507.777175 C525.939346,505.38146 532.469211,500.516202 535.743372,499.382021 C542.655285,496.983537 552.251678,494.625659 559.614849,493.784021 C567.594463,492.877783 573.791191,494.576748 579.752601,496.901404 C591.478859,497.206866 612.202601,501.965997 616.394966,511.587617 C621.893121,516.063433 625.694211,522.401558 626.662248,530.976668 C627.34698,537.134837 627.365436,547.305552 625.063926,555.764383 C623.36594,564.323804 619.286158,571.000614 613.648658,576.186101 C610.392953,580.603777 605.925587,584.198273 601.166611,587.197531 C598.896477,587.108015 595.47005,588.037323 591.83599,590.009451 C583.716107,594.409593 580.870134,594.006309 572.314681,596.129783 C570.293708,596.631813 568.22198,597.464223 566.091191,598.327086 C559.121141,598.766362 552.153859,598.525499 546.201678,597.823211 C535.83104,596.602282 521.881711,589.882098 513.453607,583.502445 C512.120134,582.501154 510.991527,581.45003 510.020721,580.354608 C508.066191,578.35295 506.537081,576.209172 505.366023,574.009101 C504.556711,572.830623 503.87844,571.622614 503.366275,570.553033 C501.561242,566.689065 500.80453,562.017605 501.069379,557.403362 C502.146309,555.575199 502.660319,553.216398 502.835654,550.941576 C503.399497,550.712709 503.919966,550.483843 504.385067,550.253131 C505.723154,549.604368 506.695805,548.96022 507.38146,548.296691 C507.447903,548.235783 507.500503,548.18595 507.555872,548.116736 C508.666023,546.944718 508.897651,545.723789 508.666023,544.339516 C508.499916,543.36868 508.109564,542.322169 507.616779,541.175991 C509.101594,539.749267 510.816191,538.621546 512.76703,537.910953 C526.636074,532.94049 540.253188,531.497154 545.91745,547.590712 C546.174916,548.323454 546.400084,549.278602 546.575419,550.374024 C547.696644,553.018908 548.35,556.032009 548.462584,559.347804 C548.58901,563.456326 547.233389,568.137015 544.783305,571.913312 C542.878607,577.265834 539.613674,580.949846 534.493876,579.732608 C534.435738,579.724303 534.372064,579.71692 534.304698,579.704923 C541.622651,588.815285 557.442534,584.227804 561.156879,574.422537 C565.003188,564.314576 565.926007,551.686315 567.879614,540.64443 C568.172148,538.95008 568.420386,537.257576 568.564346,535.583528 C567.473574,526.453786 564.826007,518.103852 557.940856,513.700018 C557.544044,513.545902 557.130621,513.394555 556.693205,513.244131 C545.831628,509.70962 535.735067,512.259451 525.709564,515.904703 C521.19052,518.104774 517.674581,520.133196 516.007047,520.186721 C515.588087,520.209792 515.21896,520.152576 514.875671,520.053831 C514.368121,520.242092 513.854111,520.440504 513.351174,520.62692 C513.11401,520.203332 512.920218,519.760365 512.781795,519.301709 C512.257634,519.453979 511.608893,519.592407 510.803272,519.691151 C511.311745,513.186914 509.448574,506.94292 510.278188,500.302101 C510.772819,496.331083 511.967869,492.375754 513.106628,488.511786 C513.422232,487.035228 513.804279,485.63619 514.263842,484.357122 C514.432718,483.701899 514.598826,483.046677 514.743708,482.404374 C514.750168,482.37392 514.759396,482.347157 514.759396,482.327777 C514.505141,472.493293 513.701058,462.629689 513.380932,452.697361 C513.117708,449.95707 512.729014,447.354087 512.294697,444.807566 C512.094953,444.492788 511.924347,444.151939 511.786997,443.78408 C511.88479,443.715457 511.982985,443.647309 512.081327,443.579496 C511.69674,441.402182 511.28791,439.25702 510.905705,437.092504 C511.823409,436.985474 512.737044,436.99613 513.645314,437.077555 Z M517.482203,447.678187 C517.540272,447.685201 517.600564,447.692224 517.665352,447.696036 C517.599021,447.736692 517.539822,447.774557 517.482362,447.815383 C517.482236,447.769671 517.482183,447.723939 517.482203,447.678187 Z" id="Shape" fill="#000000" sketch:type="MSShapeGroup" mask="url(#mask-2)"></path>
            </g>
            <g id="Clipped">
                <mask id="mask-4" sketch:name="SVGID_1_" fill="white">
                    <use xlink:href="#path-3"></use>
                </mask>
                <g id="SVGID_1_"></g>
                <path d="M713.506879,602.961632 C701.388423,621.299558 685.718037,637.058122 667.488674,649.294172 C660.089513,657.960644 650.268876,659.546098 640.411326,664.223095 C634.448993,667.059932 627.666275,669.433499 620.87156,670.970964 C607.902265,674.66605 594.284228,676.836591 580.239849,677.25095 C580.465017,679.463941 579.537584,683.998819 582.067953,681.418534 C584.147987,681.35578 581.549329,683.906534 583.981879,683.602917 C582.139933,686.221039 577.352349,684.183389 581.527181,689.579285 C579.29396,688.615831 577.992785,688.950825 576.529195,690.880501 C578.496644,684.823846 568.698154,692.880315 565.816191,685.660869 C568.607718,684.508231 570.66099,684.611591 572.385738,685.28527 C574.344883,681.973166 571.309732,679.829389 571.895721,677.285095 C560.40755,677.046077 549.203607,675.65073 538.401091,673.18211 C537.716359,674.470407 536.704027,675.604588 535.285654,676.244122 C534.461577,680.402478 533.57844,673.598315 537.465352,674.341208 C537.479195,673.745047 537.302936,673.264243 537.046393,672.872955 C534.911913,672.361697 532.777433,671.819062 530.675252,671.233976 C530.634648,673.127662 531.457802,675.019501 532.786661,676.891961 C530.809983,676.047555 527.847735,676.865199 525.880285,676.027252 C524.015268,678.463573 526.186661,683.275306 521.249581,683.906534 C520.973658,682.685605 522.532299,682.537027 523.429279,682.008234 C522.73901,680.492917 519.264597,681.330864 519.673406,682.980917 C517.210403,682.643154 518.898238,680.755929 518.704446,679.238766 C515.873238,679.33751 516.772987,681.645555 517.164262,683.642599 C514.198322,683.858546 509.406124,681.280107 507.114765,680.91835 C508.472232,675.933122 508.131711,676.338252 502.916862,669.984439 C502.468372,671.590196 498.384899,676.338252 502.052181,676.880887 C502.365017,679.585757 498.180956,675.912819 498.948742,680.368332 C495.905285,680.192991 500.724245,675.883288 499.817114,673.46081 C496.970218,669.551623 494.090101,672.580412 491.32995,671.668638 C492.354279,674.14095 495.323909,673.283623 497.315352,674.104958 C499.280034,671.889199 497.080034,676.520976 492.305369,675.412635 C492.131879,673.91116 491.456376,673.259629 490.404362,673.232866 C491.221057,669.288611 495.955117,670.8593 496.284564,665.023205 C500.05797,663.407297 500.471393,667.529662 503.513926,667.144834 C507.475587,666.00973 506.99849,664.226786 506.785319,662.501982 C503.436409,660.970976 500.121644,659.36522 496.891779,657.629341 C496.011409,658.638015 495.474329,659.845101 495.305453,661.274593 C493.31401,657.759463 497.074497,656.06419 490.240101,657.238976 C490.258557,659.817415 482.490268,655.755036 485.183977,653.215356 C477.503356,660.280685 478.321896,654.713139 472.622567,651.150021 C472.703775,649.182507 473.742869,650.985754 475.123406,650.494798 C474.621393,649.535958 473.537081,649.578409 473.218708,648.319644 C471.298322,651.688042 470.876594,651.751718 471.750503,658.055697 C469.949161,658.407303 468.15151,658.776442 468.316695,660.287145 C464.624497,660.035208 468.448658,655.553855 467.94203,653.703543 C466.600252,655.385896 464.692785,656.754481 463.913926,658.767214 C462.472483,658.812433 462.409732,656.50162 460.755117,656.914134 C460.247567,654.466739 466.212668,657.805605 465.110822,653.1 C463.888087,652.177151 462.341443,651.800629 460.707131,651.578223 C462.371896,655.002914 453.130789,657.980024 458.848574,654.732519 C456.372651,651.966742 455.695302,647.155932 460.047315,649.07638 C459.991946,647.282362 462.915436,647.214071 464.733389,646.519166 C464.515604,645.692294 464.293205,644.846042 464.076342,644.015478 C463.580789,641.247855 459.488087,644.598718 457.495721,644.393846 C461.809899,646.955674 455.961997,646.050359 455.971225,648.79768 C454.529782,648.847513 454.475336,646.539469 452.829027,646.952905 C455.71745,644.857116 465.452265,641.199866 461.800671,635.257644 C462.868372,634.879276 463.794883,634.78976 464.634648,634.888504 C463.877936,634.199136 463.125839,633.490389 462.377433,632.789947 C459.933809,634.782377 457.586158,638.186766 459.020218,639.98632 C459.269379,643.803223 456.573826,638.577131 454.939513,639.715926 C454.988423,640.849184 455.738674,640.765205 456.52307,640.641543 C454.556544,644.408611 452.739513,637.439258 455.211745,635.647086 C455.702685,631.868944 457.053691,636.777576 456.034899,637.991122 C458.241359,636.02084 459.428104,633.467318 461.086409,631.553329 C457.293624,627.93484 453.659564,624.129935 450.218372,620.155226 C448.801846,620.378555 447.149077,620.598193 444.714681,620.999632 C443.794631,619.626433 444.996141,617.953309 447.132466,616.536736 C446.584312,615.870439 446.062919,615.169997 445.525839,614.488012 C445.037668,616.525662 444.388926,618.486715 441.564178,619.151166 C442.37995,616.818205 443.64052,614.974353 444.531963,613.227401 C442.37995,610.469006 440.305453,607.654318 438.337081,604.758418 C437.684648,604.756573 437.032215,604.683668 436.396393,604.452033 C437.733557,605.182006 438.030705,607.692154 439.875419,607.556496 C440.79547,608.103745 431.546057,611.091929 438.030705,610.718175 C442.473154,611.379858 433.415688,613.978599 433.947232,610.443166 C431.005285,612.622935 434.655956,614.658739 436.870721,614.849769 C430.15906,615.503145 430.202433,623.886303 425.569883,619.303436 C427.576091,622.370062 424.395134,629.500914 432.254782,629.600582 C434.932802,630.965475 430.741359,631.400136 428.242366,630.321326 C428.330034,630.397923 428.411242,630.479134 428.508138,630.571418 C428.477685,632.324831 426.812919,633.112944 426.970721,634.982635 C424.166275,634.113312 419.027097,632.471564 421.273238,628.447944 C418.895134,629.803608 419.790268,632.854546 416.58255,631.005157 C414.985151,632.579537 417.42047,632.789024 416.645302,636.337377 C419.127685,635.67754 417.334648,632.509401 421.000084,632.520475 C422.687919,633.868757 424.039849,635.767979 426.057131,636.553323 C423.764849,640.686763 419.116611,629.874668 416.967366,637.584145 C418.761326,641.121424 419.331628,635.699688 421.973658,636.289389 C420.075419,640.042614 403.659396,643.906582 406.359564,643.028953 C406.009815,641.812638 404.568372,642.452172 403.533893,642.420795 C402.906376,639.268344 407.669966,640.952543 408.539262,641.121424 C410.976426,638.734938 405.357383,629.523062 410.002852,631.383525 C409.839513,629.271125 408.259648,629.536905 407.776091,627.96068 C403.015268,628.095415 402.461577,632.362668 399.017617,630.237347 C398.95948,628.438715 401.878356,628.382421 403.692617,627.681979 C401.400336,624.97065 397.67953,626.844033 396.185487,629.641187 C393.406879,629.611656 393.033138,628.382421 393.957802,626.211881 C392.808893,626.653003 391.979279,627.155033 391.152433,627.709665 C386.50604,621.05408 382.266611,614.078267 378.462752,606.820985 C380.475419,605.479163 383.440436,601.968647 381.832886,605.316742 C382.658809,606.917884 385.234396,605.541917 387.165856,605.265062 C379.268372,602.042475 387.698322,600.361045 377.371057,598.462745 C377.232634,596.983418 378.440604,597.446688 378.618708,598.147131 C380.110906,597.417157 379.232383,595.330596 377.961661,595.634214 C380.082299,592.511294 387.041275,601.959418 391.791023,597.374706 C393.682802,597.807522 392.03557,600.875994 394.671141,603.316929 C393.407802,603.040074 392.15,602.801056 391.522483,601.452774 C390.117953,602.411614 389.356628,603.722059 389.986913,605.859377 C391.201342,605.505926 390.560906,604.078279 390.585822,603.038228 C394.099916,605.01497 398.388255,602.263958 397.220889,607.989312 C401.490772,606.483223 396.235319,604.627374 398.751846,603.576249 C397.608473,602.522356 395.537668,603.038228 395.270973,600.478246 C398.823826,598.942626 411.232047,602.828742 414.425,602.171674 C417.372483,603.610395 410.922903,602.205819 409.736158,604.722427 C414.358557,607.260261 412.484312,604.594151 415.453943,611.257119 C421.907215,605.849226 416.426594,610.469006 423.281292,610.554831 C423.820218,610.002967 424.555705,605.572371 421.053607,607.119065 C423.47693,602.701389 429.383893,609.791635 423.608893,611.799754 C424.11552,613.375979 428.355872,609.492632 430.110151,611.525668 C429.150419,607.921021 431.421477,611.093774 437.04698,606.968641 C434.40495,605.595442 432.609144,608.583626 427.958138,607.993003 C431.324581,606.660409 435.211493,603.273555 437.994715,604.273 C435.705201,600.881531 433.581795,597.375629 431.544211,593.816202 C428.37802,594.865481 425.414849,596.261751 422.770973,598.518116 C422.796812,598.554107 422.832802,598.590098 422.852181,598.635318 C422.687919,598.735908 422.513507,598.810659 422.330789,598.891869 C421.758641,599.398513 421.205872,599.941148 420.666023,600.542846 C420.450084,599.526789 421.457802,599.254549 422.330789,598.891869 C422.469211,598.760825 422.623322,598.639932 422.770973,598.518116 C421.876762,597.131074 419.388842,598.423062 417.525671,598.685151 C415.48255,602.371009 417.495218,595.008522 422.198826,596.133475 C411.149916,588.169291 415.385654,589.506499 425.62802,593.911255 C427.396141,593.719303 429.003691,592.670947 430.121225,591.340199 C429.874832,590.885234 429.632131,590.441344 429.390352,589.981766 C429.476174,591.636433 423.951258,592.686635 422.847567,588.404617 C423.105034,590.313068 421.037919,591.920671 418.667198,587.694024 C421.895218,587.954267 423.967869,584.430831 419.591862,586.125181 C421.787248,584.140134 423.872819,583.308647 425.773826,582.83338 C424.763339,580.717288 423.783305,578.569819 422.867869,576.40943 C421.925671,575.754208 420.672483,575.221724 419.160906,574.204745 C420.225839,574.343172 421.241862,574.550813 422.185906,574.6957 C417.576426,563.495086 414.212752,551.66232 412.138255,539.381973 C404.575755,538.801501 399.36552,535.070424 408.968372,529.13743 C408.097232,528.609561 407.801007,527.479071 406.367869,526.930899 C407.706879,524.306318 408.014178,520.697979 407.578607,517.474469 C405.125755,517.30651 402.53448,517.443092 400.089933,517.209611 C400.814346,517.209611 403.458221,516.093887 404.788926,515.853024 C405.447819,512.893448 405.731124,511.260929 407.110738,508.500688 C407.75302,507.214237 409.070805,506.909697 409.918876,506.054217 C410.541779,487.684914 414.187836,470.090804 420.334732,453.711163 C421.628523,448.268202 422.84849,442.779098 423.619044,440.493202 C425.145386,435.940789 428.69547,431.468665 432.887836,427.504107 C436.28104,421.783368 440.011997,416.287804 444.044715,411.038641 C443.034228,410.890985 442.095721,410.593828 441.635235,409.503021 C441.549413,412.415531 437.083893,414.310139 432.302768,414.421804 C432.701426,413.240558 433.077013,412.050083 432.569463,410.342813 C441.30302,410.868837 434.947567,402.552125 440.944966,401.472392 C439.899413,399.644228 436.74245,401.426249 437.141107,397.117469 C440.943121,395.337294 441.621393,398.455599 443.404279,395.494178 C445.052433,392.169154 443.1625,400.858697 438.722819,398.042163 C442.475923,401.613588 442.475923,397.560436 446.227181,396.083878 C446.550168,397.33803 446.875923,398.590335 447.207215,399.83249 C448.876594,399.406134 450.543205,398.969626 452.209815,398.532196 C451.629362,397.123929 449.650839,398.075386 448.126342,398.255341 C448.084815,396.831386 450.399245,396.761249 449.974748,395.111196 C449.027936,393.25627 448.059899,396.776015 447.149077,394.503961 C444.135151,394.45505 453.639262,391.954131 453.357802,387.54476 C455.942617,387.247602 452.685067,391.068196 456.322819,390.717513 C453.571896,391.354279 448.334899,396.296134 454.384899,396.637588 C459.012836,396.918134 448.807383,397.802223 453.790604,399.468887 L453.790604,399.478116 C457.673826,395.27454 461.802517,391.297985 466.10193,387.514306 C476.073909,376.815721 484.288842,369.878668 498.458725,365.097389 C498.754027,364.995875 499.044715,364.887902 499.332634,364.782697 C515.616695,356.35432 533.46401,350.528377 552.350419,347.903795 C552.670638,347.085228 552.630034,346.061789 551.729362,344.528015 C552.458389,343.195421 554.962919,342.89365 554.822651,341.044261 C556.303775,340.917831 555.85344,342.117534 555.155789,342.301181 C556.294547,343.361534 558.362584,342.838279 558.636661,345.403798 C555.668876,344.682131 555.632886,344.739347 557.709228,346.980947 C557.835654,347.064926 557.91594,347.119374 558.010067,347.188588 C559.040856,347.077846 560.086409,347.016015 561.121812,346.928344 C560.753607,343.347691 561.598909,339.892546 565.489513,340.938134 C560.918792,337.786605 539.380201,335.398273 560.383557,331.585985 C557.109396,335.315217 566.033977,333.525813 564.125587,330.600383 C565.440604,331.08211 566.759312,331.541688 566.619966,329.949774 C570.214346,329.255792 569.745554,335.495172 574.199077,333.330169 C573.051091,332.266125 570.980285,332.78292 570.713591,330.228475 C573.208893,330.782184 575.320302,332.016955 577.027517,333.926329 C574.812752,330.163875 577.302517,332.098166 578.589849,326.538926 C578.810403,326.573994 579.013423,326.620136 579.224748,326.66351 C579.197987,326.66997 579.170302,326.677353 579.149077,326.688427 C579.629866,328.256347 580.733557,327.981338 581.580705,327.163694 C585.336577,327.982261 589.051846,328.916184 592.72651,329.968231 C594.333138,332.027107 596.841359,332.579893 601.511745,335.563463 C601.273658,333.945709 601.282886,333.101303 601.466527,332.722935 C602.223238,332.97395 602.984564,333.235116 603.722819,333.506433 C604.25344,333.840504 604.798826,334.104439 605.31745,334.078599 C605.717953,334.233638 606.127685,334.380371 606.532802,334.538178 C606.401762,334.265938 606.262416,333.990929 606.118456,333.724226 C605.452181,332.381481 604.821896,330.994439 604.222064,329.645234 C602.088507,328.667938 599.885738,328.268344 598.106544,328.976169 C596.049581,324.601866 592.206963,324.230881 588.366191,323.739926 C584.295638,323.224976 579.269966,323.133614 574.794295,322.451629 C571.763758,321.991128 571.713926,321.289763 569.087584,319.906412 C567.057383,318.817451 564.954279,319.253958 562.95453,318.846059 C560.909564,318.439083 558.761242,318.067175 556.668289,317.559608 C555.920805,317.38519 555.18255,317.176626 554.443372,316.956065 C547.486242,316.652448 540.587248,316.757653 533.770386,317.220923 C485.649077,319.407151 440.715185,339.785496 406.44354,375.177665 C370.150923,412.640706 350.163591,462.455154 350.163591,515.44051 C350.163591,568.423098 370.150923,618.226472 406.44354,655.700588 C442.754614,693.202389 491.051258,713.844668 542.429195,713.844668 C578.913758,713.844668 614.416443,703.259593 645.096477,683.216243 C674.926594,663.732139 699.000168,636.212792 714.698238,603.63162 L713.506879,602.961632 L713.506879,602.961632 Z M497.145554,658.113837 C500.657802,661.250599 505.349413,660.792866 505.689933,665.240074 C504.215268,665.382193 504.671141,664.170493 505.370638,663.988691 C504.653607,662.502905 502.550503,663.380534 502.859648,664.643914 C500.315436,664.767576 500.609815,660.048128 496.88255,662.198365 C497.276594,661.02081 497.659564,659.822953 497.145554,658.113837 L497.145554,658.113837 Z M409.626342,594.060757 C410.759564,594.015537 410.685738,593.263415 410.553775,592.484531 C412.033977,592.351641 411.579027,593.563341 410.875839,593.743297 C411.723909,594.711365 412.566443,595.686816 414.041107,595.588071 C414.01896,597.355326 412.337584,598.134211 412.518456,599.991905 C411.024413,600.133101 411.495973,598.926938 412.186242,598.740522 C409.255369,597.143994 412.883893,594.426205 408.376846,594.387445 C407.011997,599.466804 407.779782,589.82765 409.626342,594.060757 L409.626342,594.060757 Z M500.539681,337.836439 C500.105956,334.78827 504.251258,338.396608 505.872651,337.774608 C504.076846,339.523407 503.041443,342.953635 507.166443,342.775525 C505.250671,344.834401 502.337332,341.585973 499.994295,345.996267 C501.939597,342.690623 497.12156,341.721632 494.606879,340.709267 C501.929446,346.756694 486.832131,352.701685 483.339262,343.651309 C485.697987,338.933706 499.182215,340.730493 500.539681,337.836439 L500.539681,337.836439 Z M441.467282,385.173961 L441.467282,386.489944 C438.094379,379.021329 448.439178,387.766243 441.467282,385.173961 L441.467282,385.173961 Z M431.313507,424.267677 L432.300923,422.296472 C431.979782,423.247929 430.550336,427.859404 431.313507,424.267677 L431.313507,424.267677 Z M408.94807,463.280181 C409.0625,465.696199 408.067701,468.02916 410.582383,469.535249 C410.709732,471.015499 409.505453,470.552228 409.323658,469.858246 C408.206124,469.906234 408.276258,470.646359 408.403607,471.43078 C407.717953,471.384638 403.003272,464.248249 408.94807,463.280181 L408.94807,463.280181 Z M401.714094,584.124445 L401.714094,585.106356 C401.963255,586.926214 403.17953,587.658955 402.543708,589.895941 C401.75193,589.848875 400.70453,589.918089 399.881376,589.895941 C399.406124,587.451315 400.43599,586.127027 401.714094,584.124445 L401.714094,584.124445 Z M365.12156,574.661555 C365.036661,574.39762 364.955453,574.126303 364.868708,573.863291 C365.310738,573.997104 365.315352,574.369012 365.12156,574.661555 L365.12156,574.661555 Z M365.933641,577.220614 C365.803523,576.833018 365.68448,576.446344 365.557131,576.056902 C365.755537,576.055056 365.958557,576.026448 366.156963,575.995994 C366.294463,576.780415 366.181879,577.119101 365.933641,577.220614 L365.933641,577.220614 Z M381.830117,502.421884 C379.029362,508.089098 385.562919,510.015083 384.787752,515.889015 C381.055872,516.882923 379.186242,515.442356 378.026258,512.088724 L379.009983,513.072481 C379.095805,509.327561 377.091443,506.786036 373.409396,505.155362 C375.88901,502.539086 378.586409,501.394754 381.830117,502.421884 L381.830117,502.421884 Z M374.654279,599.169647 C376.711242,598.723911 378.708221,599.15119 379.597819,601.887436 C377.582383,602.911798 376.981628,601.536754 376.446393,600.03897 C375.858557,600.81324 375.775503,601.401095 375.960067,601.876362 C375.51896,600.975662 375.083389,600.073116 374.654279,599.169647 L374.654279,599.169647 Z M376.00344,601.95019 C376.885654,603.773739 382.083893,603.729442 378.038255,606.005187 C377.334144,604.666134 376.661409,603.319697 376.00344,601.95019 L376.00344,601.95019 Z M406.571812,633.62697 C409.686326,636.398285 401.699329,637.470635 406.30604,637.691196 C407.549077,641.014374 399.421812,635.423757 403.797819,638.339958 C401.129027,642.363579 400.306795,633.192309 406.571812,633.62697 L406.571812,633.62697 Z M410.113591,650.845481 C409.299664,649.985386 408.479279,649.134519 407.669966,648.26335 C407.529698,647.744709 407.397735,647.247294 407.335906,646.782178 C412.440017,647.486312 411.757131,649.388303 410.113591,650.845481 L410.113591,650.845481 Z M418.919128,645.098902 C417.715772,645.456967 418.358054,646.89292 418.326678,647.929279 C414.951007,644.678083 411.411997,647.080258 408.587248,646.454567 C409.37349,644.446448 411.273574,643.088938 412.615352,641.397356 C416.815101,639.656864 417.80344,643.394401 420.17693,644.774982 C420.306124,646.256154 419.100923,645.792884 418.919128,645.098902 L418.919128,645.098902 Z M430.898238,619.259139 C430.838255,617.460507 433.755285,617.408828 435.586158,616.705617 C435.754111,618.21632 436.432383,618.849395 437.478859,618.880772 C442.106795,621.386306 432.816779,617.775199 434.059815,621.107605 C432.613758,621.154671 432.561158,618.840166 430.898238,619.259139 L430.898238,619.259139 Z M430.523574,643.412858 C428.900336,644.033935 424.755956,640.415445 425.180453,643.469151 C422.838339,642.762249 421.431963,640.887021 422.623322,638.78754 C431.467617,641.270926 425.360403,639.60057 433.291107,638.679567 C433.764513,641.086356 429.379279,640.629546 430.523574,643.412858 L430.523574,643.412858 Z M438.452433,653.367626 C435.493876,653.241196 439.733305,648.602958 440.896057,647.387567 C438.827097,647.702258 434.483389,642.940359 433.995218,646.518243 C430.921309,645.248404 435.924832,640.596323 439.594883,642.38665 C437.308138,638.810611 429.837919,637.28422 431.659564,632.427267 C433.141611,632.289763 432.680201,633.501463 431.980705,633.676804 C435.538171,633.134169 442.106795,636.752659 443.902601,633.242142 C447.895638,635.041697 446.793792,638.818917 453.630956,634.723315 C453.280285,637.681967 448.675419,638.157234 447.110319,640.429288 C447.278272,641.928917 447.963926,642.579525 449.014094,642.604442 C449.028859,644.471365 446.838087,643.281813 446.178272,642.008282 C447.099245,645.617543 448.621896,645.660917 441.500503,644.559958 C444.974916,645.45789 442.937332,646.86062 444.986913,647.669036 C445.036745,653.063086 438.980285,648.307647 438.452433,653.367626 L438.452433,653.367626 Z M446.759648,680.569513 C445.996477,680.103475 445.235151,679.609751 444.47198,679.124332 C445.428943,677.563795 446.95344,676.287496 447.149077,676.494214 C447.12693,676.467451 446.565856,678.705359 446.759648,680.569513 L446.759648,680.569513 Z M450.798826,683.00122 C450.593037,682.874789 450.388171,682.762202 450.189765,682.643154 C450.52844,682.508418 450.895721,682.334923 451.289765,682.103288 C451.151342,682.408751 450.979698,682.713291 450.798826,683.00122 L450.798826,683.00122 Z M444.713758,651.739721 C444.328943,647.983727 449.32047,647.380184 449.340772,643.852134 C453.162164,642.895139 449.560403,652.196531 451.561997,647.284208 C454.59807,646.915068 454.206795,652.422629 456.952181,652.564748 C454.54547,656.539457 449.951678,648.91119 444.713758,651.739721 L444.713758,651.739721 Z M465.431963,685.104392 C462.734564,684.872757 461.231292,682.627466 460.048238,679.819237 C465.886913,679.126178 462.335906,683.972979 468.856544,682.868329 C470.267534,686.669543 464.415017,680.627653 465.431963,685.104392 L465.431963,685.104392 Z M494.586577,684.176929 C496.592785,684.237837 494.518289,685.910961 495.578607,687.932923 C500.596896,683.973902 495.09505,683.508786 502.750755,684.719564 C502.854111,686.372386 500.596896,686.638166 500.247148,685.382169 C499.519044,686.712917 497.017282,687.01192 497.145554,688.861309 C495.394044,688.842852 494.605956,687.158653 492.747399,687.334917 C492.69849,685.89435 495.012919,685.836211 494.586577,684.176929 L494.586577,684.176929 Z M508.194463,695.328632 C508.230453,697.899688 506.356208,692.307226 503.126342,691.302243 C501.219799,692.667136 503.100503,694.384558 505.03104,693.477398 C503.047903,696.733208 490.777181,694.684484 493.397987,689.838605 C492.563758,690.754994 491.697232,691.671383 489.967869,692.063593 C491.190604,692.991056 492.733557,693.361119 494.37156,693.588139 C492.83599,697.260154 486.641107,693.635205 486.484228,688.960976 C486.375336,693.697958 481.788003,689.978878 480.886409,693.09903 C477.201594,692.855398 482.732047,689.383641 483.660403,688.368507 C482.21896,685.720855 482.102685,690.390469 479.581544,688.082424 C480.646477,683.281766 486.562668,687.465961 485.779195,681.131528 C487.261242,680.990332 486.804446,682.196496 486.100336,682.383834 C486.690017,683.791178 488.659312,682.83603 490.188423,682.649614 C489.796225,684.541454 488.125,685.678404 485.837332,686.457288 C486.862584,687.333071 494.155621,687.728973 488.064094,689.893053 C491.808893,688.803169 494.961242,687.222329 499.376007,692.27954 C501.890688,691.23949 496.637081,689.379027 500.899581,687.872938 C503.003607,688.032591 501.316695,689.147392 499.970302,689.451009 C503.011913,689.702947 504.413674,692.72989 508.462081,691.245027 C506.16703,693.777323 510.831879,693.888065 508.194463,695.328632 L508.194463,695.328632 Z M580.058977,699.309801 C566.179782,700.136674 573.965604,695.225273 583.76594,693.003053 C583.202097,695.504896 579.690772,696.266246 580.058977,699.309801 L580.058977,699.309801 Z M660.918205,664.220326 C660.774245,664.076362 660.611829,663.927783 660.418037,663.778282 C660.585067,663.672154 660.760403,663.576178 660.918205,663.456208 C661.372232,663.303015 661.791191,663.196887 662.178775,663.140593 C661.759815,663.499582 661.340856,663.873335 660.918205,664.220326 Z M474.074161,642.743792 C473.495554,642.298056 472.930789,641.847706 472.356795,641.397356 C471.644379,643.811528 468.704279,639.883884 468.108138,638.961036 C465.191107,640.76705 472.765604,642.419872 469.74245,645.218872 C471.902768,644.820202 472.002433,643.189528 474.074161,642.743792 Z M428.101174,587.462389 C427.266946,587.462389 426.202013,587.082175 424.920218,586.077193 C421.767869,587.215988 427.193121,587.773389 426.22693,591.07165 C427.433054,590.722813 426.801846,589.286861 426.819379,588.248656 C428.016275,588.587341 428.710235,588.985089 429.07198,589.374531 C428.742534,588.739611 428.429698,588.096386 428.101174,587.462389 Z M521.306795,676.523745 C522.166862,679.671582 526.868624,675.560291 525.994715,674.492555 C524.850419,674.5267 523.688591,674.57838 522.532299,674.582994 C522.324664,674.920757 521.91401,675.458777 521.306795,676.523745 Z M451.289765,400.122264 C450.339262,400.618757 450.363255,401.697567 449.111913,402.015027 C449.387836,402.682246 449.816946,403.090145 450.295889,403.3993 C451.195638,402.375861 452.062164,401.33581 452.979446,400.328059 C452.541107,400.179481 451.95604,399.885092 451.289765,400.122264 Z M627.032299,346.281427 C627.284228,344.45511 628.446057,344.439421 629.6125,345.108487 C629.657718,345.127866 629.698322,345.137095 629.711242,345.163858 C632.034899,346.537056 634.367785,350.390872 630.170805,348.136353 C630.089597,352.244875 635.506544,351.806522 637.416779,349.60922 C644.017701,353.63284 650.358389,358.085585 656.425,362.936077 C655.649832,364.767009 651.160319,363.29322 654.488003,364.522454 C655.965436,364.162543 658.11745,365.229356 660.621057,366.392145 C661.507886,367.14519 662.400252,367.911154 663.273238,368.68081 C662.427013,369.36095 661.706292,369.998638 661.255034,370.311484 C677.124748,379.962635 691.246644,392.210682 703.018121,406.458543 C689.126007,384.715306 671.287919,365.86889 650.294715,351.174371 C645.291191,350.540374 640.846896,348.718671 637.100252,343.672534 C636.568708,343.888481 636.141443,343.974306 635.758473,343.974306 C634.204446,343.960463 633.763339,342.381469 632.164094,341.841602 C631.822651,341.726246 631.461829,341.647804 631.10193,341.58505 C630.962584,341.558288 630.804782,341.525065 630.664513,341.511223 C630.22802,341.448469 629.782299,341.409709 629.322735,341.372795 C628.864094,341.348801 628.409144,341.342341 627.967114,341.342341 C627.332215,341.342341 626.70193,341.361721 626.102097,341.404172 C625.048238,341.482614 624.25646,341.705021 623.52651,341.924659 C624.508389,342.416537 625.494883,342.913953 626.458305,343.428902 C625.190352,345.70557 628.891779,348.481499 627.032299,346.281427 Z M485.836409,655.719967 C486.786913,655.217938 486.75646,654.137282 488.015185,653.808748 C485.396225,651.505318 479.67844,648.357481 483.563507,649.598712 C482.617617,648.974866 481.714178,648.32149 480.780285,647.681955 C480.12047,647.736404 479.394211,647.905285 478.545218,648.267964 C480.351174,649.439059 480.311493,650.551092 477.950923,651.093727 C476.267701,649.242493 478.716862,647.492772 479.163507,646.529318 C478.820218,646.281071 478.467701,646.036516 478.116107,645.779964 C478.04505,645.779964 477.989681,645.766122 477.900168,645.766122 C477.906628,645.719056 477.915856,645.695985 477.929698,645.647074 C477.200671,645.122896 476.468876,644.600564 475.757383,644.064389 C475.735235,645.080445 474.655537,646.114036 476.643289,646.090964 C477.394463,649.032083 473.10797,646.521012 473.493708,644.237884 C472.538591,644.74176 472.569044,645.818724 471.313087,646.13803 C471.529027,648.446074 478.219463,648.48022 475.123406,650.497567 C477.941695,652.933887 483.158389,651.243228 486.442701,652.888668 C486.465772,653.973015 485.508809,654.468585 485.836409,655.719967 Z M1360.68523,1084.61019 L1360.70831,1084.61758 C1360.71384,1084.61758 1360.71938,1084.6065 1360.72307,1084.60281 C1360.71477,1084.6065 1360.7,1084.6065 1360.68523,1084.61019 Z" id="Shape" fill="#000000" sketch:type="MSShapeGroup" mask="url(#mask-4)"></path>
            </g>
        </g>
    </g>
</svg>